<?xml version="1.0" standalone="no"?>
<!DOCTYPE svg PUBLIC "-//W3C//DTD SVG 1.1//EN" "http://www.w3.org/Graphics/SVG/1.1/DTD/svg11.dtd" >
<svg xmlns="http://www.w3.org/2000/svg" xmlns:xlink="http://www.w3.org/1999/xlink" version="1.1">
<metadata></metadata>
<defs>
<font id="alphafridgemagnets_regular" horiz-adv-x="1161" >
<font-face units-per-em="2048" ascent="1638" descent="-410" />
<missing-glyph horiz-adv-x="745" />
<glyph horiz-adv-x="0" />
<glyph unicode="&#xd;" horiz-adv-x="745" />
<glyph unicode=" "  horiz-adv-x="745" />
<glyph unicode="&#x09;" horiz-adv-x="745" />
<glyph unicode="&#xa0;" horiz-adv-x="745" />
<glyph unicode="!" horiz-adv-x="724" d="M156 201l18 -72l41 -59l59 -43l72 -13l72 17l61 39l39 61l14 70l-14 73l-43 60l-59 41l-70 12l-74 -12l-61 -43l-39 -60zM188 1120l9 -73l4 -64l-2 -80l6 -86l-4 -82l14 -78l4 -77l10 -80l52 -54q59 -23 112 -6l60 52l18 75l-2 82l12 80l25 80l8 88l8 70l2 71l8 66l7 80 v73l4 76l12 64l-10 69l-33 64l-59 35l-64 14l-72 -10l-55 -37l-43 -53l-8 -66l-8 -80l-4 -73l6 -76z" />
<glyph unicode="&#x22;" horiz-adv-x="890" d="M0 1499l55 -354l31 -43l41 -31l51 -8l53 12l45 27l27 45l53 352l-14 70l-39 55l-57 41l-68 10l-69 -12l-56 -39l-39 -57zM395 1499l56 -354l28 -43l43 -31l51 -8l54 12l45 27l26 45l54 352l-15 70l-41 55l-55 41l-68 10l-69 -12l-58 -39l-38 -57z" />
<glyph unicode="#" horiz-adv-x="1665" d="M-2 467q-2 -59 14 -92q31 -43 94 -53q8 0 113 -3q-2 -76 31 -149q14 -61 121 -86q23 2 61 0q51 -2 66 -2q102 0 135 70q16 55 20 161q86 0 156 -2q-2 -131 51 -200q29 -27 133 -35q14 2 97 -2q59 -2 92 14q45 31 53 98q2 6 2 117q102 -4 180 -8q63 12 92 104 q-2 31 4.5 93.5t6.5 89.5q0 82 -37 129q-47 25 -117 28q-62 -2 -123 -2l2 199h31q63 0 125 -2q78 4 102 53q31 100 21 295q-25 68 -115 82q-76 2 -154 4q4 82 7 125q-12 66 -103 92q-31 0 -90 4q-66 6 -92 6q-84 0 -129 -36q-33 -57 -29 -193l-155 2q-2 18 0 49q2 39 2 49 q0 86 -54 113q-100 31 -295 20q-59 -23 -75 -90q-10 -37 -9 -129q-72 0 -141 -30q-59 -14 -84 -121q2 -23 0 -62q-4 -51 -4 -65q0 -102 70 -135q55 -16 162 -21q-2 -106 -5 -198q-129 0 -196 -52q-27 -29 -35 -131q2 -16 -2 -98zM662 741l2 197h151v-197h-153z" />
<glyph unicode="$" horiz-adv-x="1140" d="M-55 1147q0 -135 59 -238q84 -135 266 -198q61 -20 340 -76q61 -27 68 -90q-2 -23 -21 -58q-14 -25 -57 -36q-53 -6 -121 4q-51 8 -147 77q-88 63 -144 64q-31 0 -61 -14q-45 -8 -81 -44t-46 -79q-6 -23 -6 -43q0 -82 80 -146q82 -53 174 -92v-278q0 -53 38 -90t89 -37 q53 0 90 36.5t37 90.5v213q31 -4 57 -4v-209q0 -53 37 -90t90 -37q51 0 89 36.5t38 90.5v266q23 12 35 21.5t23.5 17.5t9.5 18q12 2 28 19q27 27 27 26q29 37 65 117q10 8 14.5 30.5t10.5 28.5q24 115 16 150q-8 -2 -14 4q-2 10 6 23q-8 29 -15 59.5t-24 48.5q-4 14 -34 59 q-14 41 -89 101q-2 16 -22 12q-14 25 -45 31q-10 12 -10 14q-12 -4 -23.5 8.5t-13.5 12.5q-23 -4 -39 18q-14 2 -50 16.5t-59 14.5v2q-39 -2 -118 10v4q-10 2 -27 -4q-31 6 -65.5 12.5t-53.5 28.5q-35 23 -29 66h-4q-2 0 -2 10q0 4 6 4q-4 70 64 121q45 16 92 16 q72 0 178 -43q131 -53 174 -63q135 -2 193 118q-2 6 3 20.5t5 18.5q0 10 -10 17l6 6q-4 6 -12 45q-4 29 -25 43q-45 49 -94 57q-4 8 -18.5 10.5t-18.5 12.5q-12 2 -41 12v248q0 53 -38 90t-89 37q-53 0 -90 -37t-37 -90v-182q-27 4 -57 4v178q0 53 -37 90t-90 37 q-51 0 -89 -37t-38 -90v-205q-125 -43 -201 -135l4 -2q-14 -6 -25.5 -28.5t-19.5 -28.5q-61 -104 -61 -242z" />
<glyph unicode="%" horiz-adv-x="1513" d="M0 1440q-4 -37 2 -99q4 -76 4 -98q0 -10 -2 -106q-2 -66 0 -107q6 -57 23 -102q33 -84 105.5 -133.5t162.5 -49.5q176 -2 274 101l-397 -647v-21q61 -51 158 -100l28 2q8 12 27 26l391 635q-23 -51 -37 -161q-4 -39 -37 -162q-27 -104 -26 -166q0 -102 61.5 -181 t163.5 -102q55 -14 107 -14q109 0 194 57q76 53 113 172q20 104 43 209q33 145 33 195q0 80 -41 143q-29 47 -131 135q-100 45 -183 45q-133 0 -223 -110l381 616l-2 29q-39 25 -78 51q-31 18 -92 43q-27 0 -47 -35q-14 -27 -31 -53l-311 -504q20 61 18 156l-4 156 q0 137 -6 174q-14 94 -74 153q-41 39 -157 103q-61 12 -115 12q-70 0 -121 -21q-160 -72 -174 -241zM254 1276q0 53 2 106q10 63 59 78q41 -6 60 -49q10 -35 10 -92v-94q4 -66 0 -160q-10 -53 -68 -74q-39 6 -47 27q-14 37 -14 100v101q-4 20 0 55zM936 242q-6 39 8 100 q20 86 23 98q2 25 12 52l-2 4q12 53 27 104q23 57 73 62q39 -14 47 -60q2 -37 -10 -92q-20 -88 -20 -94q-10 -66 -35 -156q-23 -49 -84 -55q-35 14 -39 37z" />
<glyph unicode="&#x26;" horiz-adv-x="1185" d="M-43 485q0 -217 126 -347t337 -130q178 0 303 94q2 -2 8 -12q59 -90 146 -90q74 0 125 47t51 119q0 55 -47 133l-45 72q121 227 120 399q0 80 -42 126t-111 46q-131 0 -154 -143q-6 -35 -16 -84l-105 180q207 158 207 383q0 129 -86 221q-100 102 -272 103 q-170 0 -275.5 -97.5t-105.5 -255.5q0 -113 102 -284q-266 -190 -266 -480zM299 516q0 82 86 168l184 -322q-49 -45 -116 -45q-63 0 -108.5 58.5t-45.5 140.5zM446 1290q1 45 54 45q51 0 51 -55q0 -57 -59 -115l-25 45q-20 37 -21 80z" />
<glyph unicode="'" horiz-adv-x="507" d="M0 1499l55 -354l31 -43l41 -31l51 -8l53 12l45 27l27 45l53 352l-14 70l-39 55l-57 41l-68 10l-69 -12l-56 -39l-39 -57z" />
<glyph unicode="(" horiz-adv-x="610" d="M-45 780q0 -346 158 -725q80 -197 166 -325q51 -78 141 -78q51 0 92 29q78 49 78 141q0 51 -29 92q-66 102 -135 266q-133 319 -133 600q0 276 151 594q78 162 154 264q35 45 35 101q0 86 -70 137q-45 33 -100 33q-84 0 -135 -68q-98 -131 -193 -330q-180 -381 -180 -731 z" />
<glyph unicode=")" horiz-adv-x="651" d="M-115 1739q0 -55 35 -101q76 -102 154 -264q152 -317 151 -594q0 -281 -133 -600q-70 -164 -135 -266q-29 -41 -29 -92q0 -92 78 -141q41 -29 92 -29q90 0 142 78q86 129 166 325q158 379 157 725q0 350 -180 731q-95 199 -193 330q-51 68 -135 68q-55 0 -100 -33 q-70 -51 -70 -137z" />
<glyph unicode="*" horiz-adv-x="1241" d="M-80 1296q-4 -41 25 -71l252 -246l-146 -322q-4 -10 -6 -22q-6 -43 25 -74q45 -41 98 -12l311 162l260 -238q45 -41 99 -12q37 20 43 63q2 12 0 25l-58 348l305 174q35 21 41 64q4 33 -16 60.5t-55 33.5l-346 51l-72 344q-12 59 -72 68q-61 8 -88 -47l-158 -314l-348 39 q-35 4 -62.5 -17.5t-31.5 -56.5z" />
<glyph unicode="+" horiz-adv-x="1558" d="M0 649q18 -66 55 -70t107 1q80 6 98 4q49 6 115 10q14 4 41 -4q18 8 54 5t52 3q4 -18 23 -287q-2 -66 14 -186q0 -2 6 -8q4 -4 0 -8q-6 -2 -6 0q39 -41 70 -37q14 8 50 5t48 5q35 4 104 0q78 27 101 76q10 61 10 137q0 53 -7 158.5t-9 154.5q18 23 92 10q63 10 168 13 q131 2 168 4q53 14 82 119q-2 76 -2 149q-5 90 -62 125q-63 10 -137 10q-53 0 -160.5 -6t-165.5 -6l-6 23q-10 113 -20 413q-14 53 -78 64q-53 2 -107 6q-20 -6 -88 0q-55 2 -86 -19q-29 -10 -35 -47q-4 -27 -10 -55q16 -96 25 -405q-51 -8 -389 -25q-88 -4 -115 -68 q2 -88 0 -264z" />
<glyph unicode="," horiz-adv-x="544" d="M0 221l27 -82l65 -57l76 -25l-72 -61l-55 -43l-16 -59l41 -62l61 -22l74 22l61 47l49 58l41 65l27 72l14 76v71l-20 84l-45 70l-74 45l-76 10l-74 -18l-59 -52l-39 -67z" />
<glyph unicode="-" d="M0 788l57 -137l84 -90l119 -18l168 -15l174 2l137 5l140 45l88 88l22 120l-43 138l-86 86l-121 24l-166 11l-176 -11l-137 -2l-135 -43l-84 -86z" />
<glyph unicode="." horiz-adv-x="536" d="M0 201l18 -72l41 -59l60 -43l69 -13l74 17l62 39l38 61l13 70l-15 73l-43 60l-57 41l-72 12l-73 -12l-60 -43l-41 -60z" />
<glyph unicode="/" horiz-adv-x="651" d="M-68 102q0 -53 37 -90t90 -37q88 0 119 84l541 1469q8 20 8 43q0 53 -38 90t-89 37q-90 0 -121 -82l-540 -1471q-6 -20 -7 -43z" />
<glyph unicode="0" horiz-adv-x="1126" d="M-61 1120q2 -80 28 -215q6 -41 27 -311q14 -190 69 -297q63 -129 189.5 -197.5t273.5 -56.5q289 25 443 221q86 111 86 291q0 74 -17 190q-23 168 -24 187q-20 215 -37 278q-39 150 -143 238q-72 57 -273 141q-57 6 -108 6q-162 0 -269 -57q-113 -63 -180 -176t-65 -242z M362 1053q0 115 84 151q68 -4 105 -69q20 -55 29 -150q14 -147 16 -154q16 -106 25 -258q-8 -86 -99 -127q-64 2 -80 35q-31 57 -39 160q-14 154 -16 164q-8 29 -8 86l-4 4q-2 20 -8 78q-4 51 -5 80z" />
<glyph unicode="1" horiz-adv-x="782" d="M53 1245q0 -27 43 -61.5t51 -59.5q25 -430 50 -1018l4 -26q49 -59 200 -49q6 -6 5 -11l49 -4l-23 4v5q18 8 86 10q61 2 76 12q37 31 33 100q-8 176 -29 515q-4 96 -18 299q4 115 -17 323q4 4 6 2q0 47 -6 139q-2 43 -6 60q-6 33 -27 47q-6 16 -24 18q-29 4 -33 6 q-6 2 -14 -1t-15 -3q-2 2 -2 4q-63 -4 -129 -8q-72 -8 -112 -43q-43 -76 -140 -229q-8 -16 -8 -31z" />
<glyph unicode="2" horiz-adv-x="1091" d="M-74 1051q27 -53 92 -54q18 0 76 9q49 6 76 2l35 28q31 66 61 131q41 76 109 93q86 10 127 -43q47 -45 47 -109q0 -25 -8 -49q-57 -137 -168 -305l-195 -281q-12 -20 -106 -133q-68 -82 -68 -152q0 -27 8 -55q14 -47 94 -65q272 12 816 38q14 4 27.5 8.5t15.5 18.5 q59 35 39 146q-4 27 2 75q-14 61 -93 72q-104 -6 -311 -25q-43 2 -53 25q-4 10 3 22.5t9 19.5t70 87q43 53 61 94q74 109 156 279q6 16 12 47q23 37 29 100q12 25 12 70q-2 57 0 72q-6 14 -6 51q-12 29 -43 84q-137 199 -412 198q-131 0 -241 -55q-127 -61 -203 -182 t-70 -262z" />
<glyph unicode="3" horiz-adv-x="1083" d="M-57 512q0 -94 80 -211q90 -131 272 -203q2 4 6 4q2 0 7 -4t7 -4q4 0 7 4q106 -18 163 -14q131 8 246 85t174 196q45 68 45 163q0 66 -31.5 176.5t-31.5 139.5q0 27 26 63q33 45 37 60q51 94 51 211q0 133 -65 219q-74 113 -192.5 176t-251.5 63q-94 0 -183 -32 q-123 -45 -213 -136q-102 -102 -112 -221q8 -41 32 -55q45 -12 129 -14q100 -2 129 -7q33 10 88.5 65.5t96.5 61.5q109 16 153 -47q27 -37 27 -88q0 -37 -14 -65q-27 -49 -93 -66q-57 -10 -114 -18q-47 -16 -56 -76q-4 -51 -10 -102q0 -53 56 -78q47 -16 94 -33 q43 -25 69 -107q10 -27 11 -55q0 -78 -62 -129q-51 -31 -98 -31q-25 0 -45 9q-61 25 -92 108q-39 76 -156 78l-100 16q-47 0 -74 -28q-12 -37 -12 -74z" />
<glyph unicode="4" d="M-10 530q0 -86 76 -104l278 -12q49 -2 96 -4q55 -2 97 -17q12 -14 14 -61q4 -29 -6 -84q-12 -61 -13 -84q0 -63 56 -90q47 -8 139 -19q12 12 39 8q41 -6 43 -6q45 2 86 66q12 45 16 131t15 127q10 4 26 2q25 -6 29 -6q23 -2 43 15.5t39 31.5q37 84 20 215q-23 39 -112 49 q-23 14 -25 43q8 129 21.5 385t21.5 385l-10 31q-23 31 -74 39l-250 16q-41 -8 -69 -37q-186 -258 -269 -368q-152 -203 -278 -357q-31 -39 -39 -147q2 -23 -2 -72q-8 -55 -8 -76zM371 723q-14 23 0 43q8 12 174 240q12 2 20 -7q14 -39 8 -90q-2 -2 -4 -96q-2 -57 -20 -92 q-35 -12 -88 -8q-45 4 -90 10z" />
<glyph unicode="5" horiz-adv-x="1095" d="M-45 1391q0 -12 2 -41v-39q16 -121 27 -547q31 -78 77 -80q111 0 291 18q12 4 70 33q43 20 72 21q25 0 47 -13q2 0 10 -2q-2 -10 12.5 -19t16.5 -13q49 -66 49 -150q0 -59 -25 -117q-39 -74 -129 -90q-47 -8 -78 33q-23 41 -43 80q-98 72 -170 72q-14 0 -30 -2 q-139 16 -183 -46q-12 -111 54 -200q37 -70 143 -156q47 -29 104 -55q195 -63 330 -51q117 8 219.5 80.5t151.5 177.5q63 135 63 280q0 205 -125 338q-78 84 -192 137q-121 53 -240 54q-55 0 -104 -13q-10 14 -9 46t-1 42q-4 33 12 37l401 17q39 -4 113 6q41 25 43 88v106 q-8 45 -31 62q-14 4 -50 25.5t-56 21.5q-16 0 -33 -12q-72 -4 -207 -21q-14 6 -48 2t-52 10l-2 2l-2 -6h2h-21q-27 -10 -76 -8q-55 0 -77 -4q-2 0 -125 4t-140 4q-61 -20 -61 -112z" />
<glyph unicode="6" horiz-adv-x="1183" d="M-59 655q0 -133 61 -252q70 -139 201 -226t280 -93q12 -12 38 -5t36 -9l8 8q14 -6 39 -2q27 6 39 4q12 -4 12 0q49 10 140 43q195 100 276 260q61 119 62 260q0 207 -144 363q-139 149 -348 186q-6 4 -39 6q-23 4 -33 19q14 78 97 210q4 14 28 60q20 37 21 61q0 12 -4 25 q-14 45 -103 67q-76 0 -92 11l-6 -6q-117 10 -201 -82l-123 -244q-156 -307 -161 -320q-84 -193 -84 -344zM375 637q0 74 41 131q88 74 141 74q14 0 31 -4q59 -20 105 -79t46 -122q0 -67 -47 -139q-63 -70 -119 -68q-129 4 -180 119q-18 41 -18 88z" />
<glyph unicode="7" horiz-adv-x="1095" d="M0 1458q0 18 6 -162q23 -45 92 -61q74 0 254 10q156 8 244 6q12 -6 12 -30q-299 -541 -426 -859q-63 -166 -61 -225q29 -59 106 -67h138q45 4 93 9t60 46q176 592 369 913v11q53 90 168 266q18 51 18 119q0 61 -16 157q-14 31 -47 41q-2 0 -62 8q-59 -2 -209 -16 q-133 -12 -207 -12q-39 0 -73 2v6q-2 2 -33 -8q-20 0 -186 -2q-115 0 -187 -19q-68 -41 -53 -133z" />
<glyph unicode="8" horiz-adv-x="1046" d="M-31 555q14 -129 78 -248q59 -111 171 -175t243 -69v-8q-2 0 -4 -6t-6 -4v-4q70 -14 81 -12q0 31 5 41q117 20 200 80q193 141 193 395q0 61 -12 125q0 6 -23 69q-14 41 -10 72q96 141 96 317q0 121 -51 218q-121 219 -398 266v4l-79 4q4 -8 -11 -8q-8 0 -8 6l-6 -6 q-268 -33 -397 -279q-53 -100 -54 -229q0 -154 72 -264q4 -41 -29 -103q-35 -68 -36.5 -99.5t-14.5 -82.5zM293 561q0 23 2 49q41 94 106 105q25 2 45 2q102 0 142 -76q24 -47 14 -80l-2 -45h-4q6 -29 -17.5 -54.5t-46.5 -49.5q-41 -20 -90 -21q-53 0 -86 29q-63 43 -63 141 zM319 1104q0 51 40 94t92 49q102 12 151 -65q8 -6 4 -21q16 -27 17 -67q-1 -41 -19 -68q-43 -66 -92 -72q-115 -4 -154 47.5t-39 102.5z" />
<glyph unicode="9" horiz-adv-x="1142" d="M-55 1044q2 -117 45 -221q57 -137 184 -225t277 -102q53 2 153 -15q-4 -66 -41 -174q-39 -119 -45 -174q6 -49 70 -74q63 4 127 9q72 6 124 24.5t72 87.5q14 57 31 117q49 176 98 350q57 213 58 363q0 113 -29 215q-66 158 -215 270q-156 115 -326 121q-18 -6 -56 -3 t-54 -9q-49 -14 -142 -39q-12 -12 -37.5 -23.5t-35.5 -23.5q-55 -10 -109 -43q0 -4 6 -21q6 -10 0 -20q-160 -188 -155 -390zM305 1030q0 84 52.5 149.5t134.5 75.5q27 0 75 -12l2 2q121 -41 127 -194q5 -132 -116 -185q-53 -25 -101 -14q-84 -2 -153 90q-20 37 -21 88z" />
<glyph unicode=":" horiz-adv-x="536" d="M0 426l18 -74l41 -59l60 -41l69 -14l74 16l62 39l38 61l13 72l-15 72l-43 59l-57 43l-72 10l-73 -12l-60 -43l-41 -59zM0 977l18 -72l41 -59l60 -43l69 -12l74 16l62 39l38 61l13 70l-15 74l-43 59l-57 41l-72 12l-73 -14l-60 -41l-41 -59z" />
<glyph unicode=";" horiz-adv-x="575" d="M0 221l27 -82l65 -57l76 -25l-72 -61l-55 -43l-16 -59l41 -62l61 -22l74 22l61 47l49 58l41 65l27 72l14 76v71l-20 84l-45 70l-74 45l-76 10l-74 -18l-59 -52l-39 -67zM10 795l19 -74l41 -59l59 -41l70 -15l73 17l62 39l39 61l12 72l-14 71l-41 60l-60 43l-71 10 l-74 -12l-59 -43l-41 -60z" />
<glyph unicode="&#x3c;" horiz-adv-x="1005" d="M-57 815q0 -82 57 -143l551 -592q61 -68 154 -68q84 0 145 56q68 63 68 155q0 84 -58 144l-407 438l481 448q67 64 67 156q0 82 -57 143q-63 68 -153 68q-84 0 -146 -57l-635 -592q-68 -63 -67 -156z" />
<glyph unicode="=" horiz-adv-x="1660" d="M-2 467q-2 -59 14 -92q37 -53 113 -53q440 -4 1292 -27q63 12 92 104q-2 31 4.5 93.5t6.5 89.5q0 82 -37 129q-53 29 -146 28q-128 -2 -151 2h-776q-27 0 -87.5 4.5t-91.5 4.5q-127 0 -196 -54q-27 -29 -35 -131q2 -16 -2 -98zM4 1016q0 -100 70 -135q51 -14 223 -23 q41 4 117 -4l862 -4h125q78 2 102 53q31 100 21 295q-25 61 -101 78q-18 4 -139 6q-84 2 -129 0q-143 -6 -373 0q-307 6 -376 6h-136l-6 8q-84 6 -172 -30q-59 -16 -84 -123q2 -20 0 -60q-4 -51 -4 -67z" />
<glyph unicode="&#x3e;" horiz-adv-x="989" d="M-98 1409q0 82 60.5 146.5t152.5 64.5q82 0 143 -57l635 -592q68 -63 68 -156q0 -82 -58 -143l-549 -592q-63 -68 -155 -68q-84 0 -144 56q-68 63 -67 155q0 84 55 144l408 438l-482 448q-67 64 -67 156z" />
<glyph unicode="?" horiz-adv-x="739" d="M0 1231q0 -70 44 -114t112 -44q139 0 159 162q10 68 72 68q76 0 76 -105q0 -106 -98 -217l-70 -78q-121 -139 -121 -309q0 -117 96 -152q70 -16 113 -2q84 31 92 129q6 61 25.5 98.5t81.5 102.5l55 61q154 170 154 351q0 193 -106.5 295t-307.5 102q-170 0 -273.5 -96.5 t-103.5 -251.5zM147 201l19 -72l41 -59l57 -43l72 -13l72 17l63 39l37 61l14 70l-14 73l-43 60l-59 41l-70 12l-74 -12l-59 -43l-41 -60z" />
<glyph unicode="@" horiz-adv-x="1685" d="M-59 688q0 -338 190 -557q221 -254 619 -254q301 0 612 156q70 35 70 112q0 31 -13 58q-35 70 -114 69q-29 0 -56 -12q-258 -129 -499 -129q-283 0 -428 168q-127 145 -127 389q0 59 8 125q33 240 178 428q193 252 500 252q303 0 403 -115q80 -90 80 -295q0 -88 -16 -209 l-72 -239q-31 -57 -57 -80h-52q29 213 86 637q-2 18 10.5 58t12.5 57q0 29 -29 43q-84 8 -217 -4q-8 2 -14 2q-18 0 -52 -18.5t-53 -18.5q-117 35 -139 35q-117 0 -242 -89q-96 -68 -133 -194q-12 -47 -32 -223q4 -18 -11 -52q2 -25 -9 -74.5t-8 -74.5t-5 -70q4 -16 16 -37 q6 -31 31 -67q18 -27 37 -51l2 4q84 -61 176 -62q6 2 65 -10q16 14 98.5 20.5t100.5 24.5q35 -25 70 -47q86 -43 217 -43q139 0 248 86q74 59 114 137l4 13l86 297q18 137 19 247q0 301 -139 463q-176 203 -596 203q-424 0 -688 -334q-199 -250 -242 -565q-10 -82 -10 -160z M700 662v75q10 109 52 326q23 33 51 45q10 6 22 6q25 0 45 -31q16 -47 -6 -188q-10 -74 -18 -150q-12 -86 -33 -145q-20 -12 -86 -2q-29 18 -27 64z" />
<glyph unicode="A" horiz-adv-x="1052" d="M-20 160q0 -59 24 -105q66 -86 170 -86q26 0 55 8q104 6 136 105q2 25 20 72q88 16 309 34q-4 -6 2 -9t9 -7q-2 -10 10 -21.5t10 -21.5q31 -25 94 -57q70 2 137 2q80 8 117 67q29 35 29 92q0 47 -19 97q-139 381 -346 848q-74 166 -108 215q-84 119 -201 120 q-10 11 -46 11q-16 0 -36 -2q-10 -4 -24 -4h-7q-35 0 -45 -23q-88 -45 -114 -221q-47 -313 -156 -934q-2 -23 -12 -90q-8 -57 -8 -90zM428 506q10 97 35 287q35 -88 98 -254q2 -14 -10 -17.5t-23 -5.5q-33 -6 -100 -10z" />
<glyph unicode="B" horiz-adv-x="1130" d="M-12 213q0 -57 20 -96q45 -72 131 -82q123 -5 316 -5q145 0 329 3q109 37 193 145q78 100 100 221q2 23 2 45q0 217 -164 322l-4 14q4 14 37 33q133 119 133 285q0 59 -20 119q-39 115 -119 200q-92 98 -199 111l-583 10q-41 -10 -70 -29q-70 -41 -72 -139 q-2 -121 -12 -414q-8 -262 -8 -411q0 -94 2 -180q0 -20 -6 -72.5t-6 -79.5zM393 414q-1 18 -1 39q0 61 9 137l9 4l225 -8q27 -51 27 -92q0 -27 -15 -48q-16 -61 -96 -61q-16 0 -68 4q-41 4 -59 5t-21 3q-10 4 -10 17zM406 1006v14q0 53 12 151q59 -2 123.5 -4t95.5 -41 q19 -42 19 -84q0 -32 -11 -63q-76 0 -225 4q-2 0 -14 23z" />
<glyph unicode="C" horiz-adv-x="1163" d="M0 506q0 -133 71.5 -249t192.5 -175q8 -2 20.5 -11.5t18.5 -9.5q4 0 8 2q27 -20 78 -28q41 -6 83 -11.5t81 -5.5q160 0 285 66q137 70 204 203q57 115 58 223q0 106 -60 172q-86 59 -163 59q-25 0 -48 -6q-102 -25 -135 -160v-71v-7q0 -39 -20 -59q-67 -69 -133 -69h-2 q-12 0 -27 2q-12 10 -39 26h-6q-56 36 -56 98q0 6 1 13h2l-8 8q8 25 8 82q0 29 -2 66q2 39 2 96.5t-2 132.5q0 72 14 211q59 95 156 95q11 0 22 -1q12 -4 66 -37q20 -27 59 -119q33 -76 78 -108q10 -10 18 6q41 -16 84 -16q70 0 117 34q66 45 66 127q-2 31 -5 62 q-2 39 -18 57q-29 92 -80 162t-151 129q-14 -8 -27 8q-25 0 -45 15q-14 2 -51 14l-8 12q-24 1 -42 1q-36 0 -49 -5q-25 10 -96 16q6 -4 0 -10q-4 -4 -8 -10q-51 -2 -147 -20q-119 -29 -215.5 -129.5t-114.5 -221.5q-16 -106 -19 -229q3 -12 3 -29q0 -25 -7 -61q4 -12 0 -43 q-2 -29 4 -45q-11 -29 -11 -75q0 -13 1 -28h6q2 -6 2 -16q0 -8 -2 -14h-6q10 -8 6 -45q-8 0 -10 2l-2 -13q-4 -8 2 -12q-2 -27 -2 -51z" />
<glyph unicode="D" horiz-adv-x="1173" d="M-61 215q0 -78 47 -119q27 -23 90 -47q72 -2 162 -22q47 -4 141 -9v-4q23 -8 31 4q63 -12 165 -16q123 -6 168 -10q8 2 64 6q39 2 53 25q117 47 193 217q20 156 43 311q23 180 24 311q0 45 9.5 144.5t9.5 150.5q0 193 -105 289q4 18 -18 43q-16 18 -49 10 q-10 -12 -27 -12q-6 0 -21.5 3t-21.5 3q-8 0 -14 -2q-166 18 -492 61h-10q-22 0 -61 6q-48 8 -70 9q-29 0 -53 -8q-121 -37 -136 -183q-47 -473 -116 -1050q0 -16 -3 -54.5t-3 -56.5zM383 381q27 310 86 797l4 8q86 -4 250 -31l2 4q-14 -201 -57 -579q-2 -78 -23 -226 q-25 -10 -63 -6q-33 4 -64 8q-49 4 -135 25z" />
<glyph unicode="E" horiz-adv-x="1185" d="M0 1389q14 -559 16 -1225q11 -92 105 -121q41 -1 92 -1q129 0 324 7q57 12 155 12q14 0 43 -2h41q217 0 305 82q8 14 17.5 28.5t19.5 12.5q4 -8 -2 -16l17 35q4 20 4 38q0 52 -31 87v-9q0 -4 -10 -4q-37 47 -162 72v2q-53 -2 -197 -12q-125 -10 -200 -10q-53 0 -101 4 l-26 12q-3 12 -3 23q0 22 11 40q-2 55 -17 123q-2 18 8.5 28.5t26.5 8.5q45 6 109 6h65q43 -2 66 -2q180 0 262 72q45 76 45 123q0 18 -4 35h-6q-2 10 -4 19t-13 11q-51 90 -145 90l-410 5q-10 10 -10 30.5t10 50.5q6 20 6 53q0 13 -1 27q-2 28 -2 48t2 30q121 10 499 10 q98 12 172 109q17 45 17 81q0 28 -11 50q-39 80 -145 94q-240 -6 -713 -10h-15q-99 0 -138 -25q-66 -39 -72 -122z" />
<glyph unicode="F" horiz-adv-x="1052" d="M-16 1331q0 -39 8 -102q8 -72 8 -92q0 -31 14 -80q6 -113 23 -326q6 -23 6 -45q0 -23 -6 -39q5 -3 5 -57q0 -18 -1 -41q-1 -35 -1 -62q0 -54 5 -73q-1 -11 -1 -25q0 -32 6 -80t6 -79q0 -14 -1 -25v-19q16 -39 13 -45q0 -14 18 -27.5t16 -25.5q35 -59 146 -59q16 0 92 4 q106 20 129 129q0 246 -7 418q63 14 216 18q145 6 215 25q39 10 72.5 43.5t42.5 70.5q4 23 4 45q0 88 -68 152q-74 47 -196 47q-49 0 -160 -10q-102 -10 -154 -10q0 25 -5 74.5t-5 76.5q0 37 10 68q92 18 228 22q115 2 231 4q156 4 201 99q18 39 18 90q0 76 -47 121 q-37 35 -96 47q-145 0 -379 -13q-324 -16 -387 -18h-13q-40 0 -108 -10q-98 -45 -98 -191z" />
<glyph unicode="G" horiz-adv-x="1062" d="M-78 524q0 -158 78 -256q153 -237 393 -237h2q27 0 54 2q18 2 53 18.5t55 14.5q58 -91 192 -91h3q102 4 145 91q16 55 98 489q20 104 20 163q0 14 -1 25q-18 90 -121 109q-49 2 -150.5 25.5t-154.5 23.5q-59 0 -111 -22q-68 -48 -68 -119q0 -10 1 -21q8 -74 90 -118 q70 -6 100 -91q-6 -55 -8 -63q-6 -35 -21 -57q-59 -57 -141 -58q-51 10 -92 51t-53 93q8 154 45 325q0 4 20 148q12 88 39 139q45 55 125 66q14 4 29 4q72 0 121 -70q20 -72 94 -94q33 -14 69 -15q76 0 129 50q57 63 58 131q0 23 -8 45q-31 104 -144 180q-100 68 -223 88 q-2 0 -14 23q6 8 14 8q-27 6 -82 18q-4 -6 0 -12q4 -8 2 -14q-2 0 -10 -7q-13 1 -27 1q-63 0 -153 -15q-238 -80 -320 -246q-27 -84 -49 -221q-35 -199 -41 -229q-4 -59 -27 -170q-10 -53 -10 -105z" />
<glyph unicode="H" horiz-adv-x="1171" d="M-49 1389q27 -365 78 -1094q8 -136 90 -191q47 -24 103 -24h5q59 0 99 26q77 54 77 172q0 46 -14 144q-12 79 -12 123v12q-3 16 -3 39.5t3 54.5q90 18 278 27l7 -4q12 -41 16 -107q4 -55 8 -108l16 -164q20 -92 89 -129q41 -23 94 -23q59 0 112 27q72 45 84 147 q0 162 -51 770l-16 230q-14 131 -41 217q-29 55 -71 81.5t-99 26.5q-43 0 -92 -16v-8q-63 -29 -82 -92q-10 -59 -11 -137q0 -59 9 -158q10 -123 10 -152q0 -2 -19 -12l-221 -20q-18 2 -49 22l-16 264q-10 152 -74 207q-47 43 -121 43q-55 0 -106 -24q-80 -46 -80 -155v-15z " />
<glyph unicode="I" horiz-adv-x="667" d="M98 193q18 -90 109 -117q35 -12 72 -13q86 0 143 60q27 47 27 57q0 8 -5 17q4 4 9 8q-4 8 2 8q-2 14 4 45q6 27 -4 41l8 6q12 90 14 178q-4 0 -8 4q0 27 12 33q16 162 41 481l4 7l-4 2q0 27 13 32q-2 13 -2 31q0 26 4 62q12 82 12 94q2 39 0 45q18 96 18 123q0 45 -16 76 q-46 81 -159 81h-3q-43 0 -84 -14q-74 -25 -98 -149l-41 -437q-31 -254 -68 -761z" />
<glyph unicode="J" horiz-adv-x="1003" d="M-172 598q0 -213 125 -383q115 -156 373 -156q133 0 305 43q119 31 203 150q76 109 88 240q-14 272 -15 432q0 18 -8 53q0 8 -2 65q-4 41 10 62q6 6 -8 16q-4 176 -6 193q-6 109 -29 184l-30 43q-59 41 -138 41q-68 0 -125 -31q-77 -39 -77 -136q0 -75 20 -572 q-4 -25 -4 -54q0 -33 8 -104.5t8 -105.5q0 -117 -71 -172q-25 -18 -56 -19q-51 0 -110 45q-49 39 -60 135q-12 113 -34 148q-66 78 -157 78h-5q-178 -37 -201 -134q-4 -31 -4 -61z" />
<glyph unicode="K" d="M-10 1401q2 -150 16 -434q2 -12 2 -33v-19q0 -27 6 -41q-4 -2 -6 -2l2 -591q0 -66 2 -82q4 -45 21 -74q46 -68 100 -68h6v-2q84 -12 115 -12q78 0 129 39t51 131q0 20 -6 61t-6 62q0 53 37 108q35 47 69 95l11 4q16 -49 57 -142q6 -12 57 -161q31 -96 95 -136 q61 -18 126 -18q133 0 199 74q25 39 25 88q0 39 -15 74q-68 160 -206 477q0 2 -37 86q-23 51 -25 90q33 51 103 153q33 53 63 109q39 68 39 121q0 37 -19 72q-69 114 -224 114h-3q-29 0 -59 -4q-76 -23 -127 -110l-82 -156q-8 -14 -19 -39q0 -10 -2 -10t-12 -15 q-12 -39 -49 -110q-14 0 -14 2q-4 27 -7 182q-2 113 -28 174q-18 31 -68 51q-57 23 -74 37q-2 4 -12 5t-10 5q0 2 2 7l-6 3t-4 9h2h-2q-2 2 -2 10q-8 -23 -36 -36t-52 -23q-2 2 0 4h-11q-80 -8 -106 -100q8 -4 8 -7q0 -2 -9 -8t-5 -14z" />
<glyph unicode="L" horiz-adv-x="1093" d="M-4 258q0 -72 55 -102q4 -4 29 -15q18 -8 20 -24h9v8q217 -23 649 -72q24 -1 45 -1q123 0 158 20q76 51 76 132q0 9 -1 17q-8 88 -96 129q-96 29 -266 41q-219 18 -271 27q-16 4 -18 24q-4 31 -4 33l65 719q0 33 9.5 105.5t9.5 107.5q0 88 -45 139q-25 18 -74 45 q-39 10 -72 10q-25 0 -47 -6q-20 -14 -59 -36q-14 0 -14 2q0 16 2 18l-47 -14q-4 -6 -5 -11q0 -8 14.5 -21t16.5 -17q-41 -125 -49 -236q-10 -162 -41 -438q-35 -311 -45 -436q4 -18 4 -39q0 -18 -4 -54.5t-4 -54.5z" />
<glyph unicode="M" horiz-adv-x="1153" d="M0 1350v-81q0 -177 6 -471q5 -245 5 -411q0 -83 -1 -145v-8q0 -60 27 -99q53 -78 156 -78q20 0 38 4q96 29 125 142q1 23 0 51q0 112 -12 297l8 16q20 -4 30.5 -29.5t18.5 -50.5q18 -49 37 -100q25 -59 64 -80q11 -3 23 -3q30 0 57 24q31 47 59 121q23 61 45 122 q10 4 21 -4q-4 -106 -9 -315q-12 -12 2 -41l-4 -4l4 -14q-4 -2 -4 -3q4 -16 9.5 -33.5t21.5 -17.5l4 -16q66 -63 156 -64q31 0 61 9q80 33 103 135l2 1052q0 152 -29 211q-8 16 -72 64q-45 22 -94 22h-4q-53 0 -90 -26l-4 2v-8q-4 0 -10 -2q0 -8 -11.5 -10.5t-13.5 -10.5 q-23 -25 -47 -86q-29 -47 -67 -161.5t-68 -168.5q-16 -12 -27 6q-29 49 -96 199l-58 148q-39 82 -110 104q-39 14 -76 14q-53 0 -86 -26q-88 -68 -90 -176z" />
<glyph unicode="N" horiz-adv-x="1153" d="M0 274q0 -127 27 -170q42 -65 141 -65q17 0 35 2q96 8 137 113q2 26 2 68q0 62 -4 159q-3 78 -3 139t3 105q2 4 2 53q-2 37 25 39l55 -76l-4 -4q59 -90 162 -279q47 -94 161 -276q53 -51 133 -51q37 0 68 14q74 37 98 145q1 106 1 242t-1 303q-4 516 -4 547 q0 154 -59 207q-47 35 -111 35q-47 0 -84 -21q-55 -29 -73 -94v-45q0 -155 -11 -430q-18 -18 -18 -16q-76 90 -160 266q-96 203 -139 270q-61 72 -178 72q-63 0 -123 -23q-66 -37 -76 -127z" />
<glyph unicode="O" d="M-6 1001q0 -41 4 -116q6 -82 6 -119v-129q2 -237 84 -350q157 -213 395 -213h9q186 4 262 20q135 31 213 129q120 122 120 369q0 47 -4 119q-6 86 -6 116q0 127 -2 254q-6 152 -57 244q-70 125 -194 189.5t-267 64.5q-258 0 -426 -170q-137 -139 -137 -408zM393 881 q-2 47 -2 89q0 62 4 111q8 25 18.5 53.5t30.5 45.5q42 42 98 42q9 0 19 -1q96 -31 117 -91q0 -72 7 -223t7 -229q0 -100 -8 -182q-25 -78 -82 -97q-12 -4 -24 -4q-35 0 -115 41q-55 57 -55 119q0 14 4 29h2q0 -2 -6 100h-5q-4 98 -10 197z" />
<glyph unicode="P" horiz-adv-x="1073" d="M0 287q16 -121 74 -166q78 -49 174 -49q63 0 112 24q53 33 93 156q0 115 10 354l8 12q162 -10 199 -10q223 0 336 105q159 149 159 361q0 65 -14 128q-31 121 -127 218.5t-217 123.5q-49 4 -148 27l-2 -4q-90 0 -249 12q-174 12 -248 14q-98 -39 -103 -157 q-14 -244 -32 -729q0 -14 -15 -29q2 -29 -6 -49q-6 -129 -6 -231q0 -60 2 -111zM487 971q-2 16 -2 42q0 73 13 220q4 16 20 16q-23 0 27 -4q104 -6 110 -8q63 -12 84 -63q12 -61 13 -97q0 -63 -35 -98q-35 -23 -88 -23q-14 0 -66 7q-22 1 -38.5 1t-28.5 -1z" />
<glyph unicode="Q" horiz-adv-x="1089" d="M-45 446q0 -113 121 -253q139 -162 362 -162q66 0 131 16q6 -10 4 -12q12 2 31 -13.5t25 -17.5q76 -29 127 -29q55 0 90 31q74 45 74 152q0 27 -5 57q96 102 129 295l46 332q17 193 18 193v-1q0 63 -18 111q-29 123 -136 221q-96 86 -225 129q-20 2 -76 14q-29 6 -51 6 q-12 0 -22 -2q-55 10 -117 11q-137 0 -256 -101q-111 -92 -160 -225q-63 -438 -86 -704q-6 -23 -6 -48zM362 512q20 178 60 537q20 78 84 108q31 14 69 14q41 0 64 -18q59 -47 59 -137q0 -35 -12 -110.5t-12 -112.5q-6 -61 -27 -185q-16 0 -48 13.5t-50 13.5q-78 0 -141 -74 q-8 -16 -17.5 -33.5t-28.5 -15.5z" />
<glyph unicode="R" horiz-adv-x="1132" d="M0 926q6 -238 12 -473q-2 -96 -2 -193q2 -96 35 -176q41 -80 156 -80q111 0 159 88q33 88 33 217q0 35 -6 133q-2 88 -2 140q23 14 70 14q57 0 71 2l11 -10l57 -209q27 -98 53 -197q41 -111 119 -159q35 -18 74 -19q55 0 125 37q71 44 71 121q0 16 -4 33 q-45 158 -131 473q-8 25 23 53q41 39 45 45q100 102 100 281q0 84 -22 165q-31 111 -131.5 197t-213.5 98q-195 2 -579 9l-47 -13q-49 -23 -76 -104q-3 -96 -3 -214.5t3 -258.5zM401 956q9 46 9 112q0 46 -4 101q8 8 40.5 2t47.5 3h100q39 -6 79 -13.5t56 -42.5 q10 -31 10 -60q0 -39 -22 -73l-41 -35q-23 -4 -52 -4q-19 0 -40 2q-78 4 -86 4q-33 0 -62 -4z" />
<glyph unicode="S" horiz-adv-x="1101" d="M-55 1124q0 -135 61 -235q82 -135 264 -199q61 -20 338 -76q63 -29 70 -92q-2 -20 -21 -57q-14 -23 -57 -37q-18 -2 -37 -2q-39 0 -84 8q-51 8 -147 78q-88 63 -144 63q-31 0 -61 -14q-45 -8 -81 -45t-46 -80q-6 -20 -6 -43q0 -82 80 -143q248 -164 497 -164 q162 0 279 82q10 6 21.5 14t9.5 19q12 2 28 18l27 29q29 37 65 117q10 8 14.5 30.5t10.5 28.5q18 83 18 123q0 15 -2 24q-8 -1 -14 7q-2 10 6 22q-8 29 -15 59.5t-24 49.5q-4 14 -34 57q-14 41 -89 100q-2 18 -22 15q-14 25 -45 30q-10 12 -10 13q-12 -4 -23.5 9t-13.5 13 q-23 -4 -39 19q-14 2 -50 16t-59 12v4h-11q-38 0 -107 11v2q-10 4 -27 -2q-31 6 -65.5 12t-53.5 29q-30 20 -30 53q0 6 1 12h-4q-2 0 -2 10q0 2 6 2v8q0 67 64 115q45 14 92 15q72 0 178 -43q131 -51 174 -62h4q132 0 189 117q-2 8 3 22.5t5 18.5q0 10 -10 14l6 8 q-4 6 -12 45q-4 29 -25 43q-45 49 -94 58q-4 6 -18.5 8t-18.5 14q-35 12 -109 37q-147 47 -294 47q-270 0 -404 -164l4 -2q-14 -6 -25.5 -28.5t-19.5 -28.5q-61 -104 -61 -244z" />
<glyph unicode="T" horiz-adv-x="864" d="M-98 1425q0 -39 10 -79q18 -80 113 -99q84 -8 168 -14q37 0 40 -14q-2 -289 -10 -852v-18q0 -167 70 -226q37 -33 113 -33q37 0 83 8q125 25 146 115q0 61 8 238q5 103 5 175q0 36 -1 64q1 10 1 22q0 36 -5 91q8 4 4 17.5t4 17.5h-4q-2 2 4 20q-3 18 -3 56t3 94v20 q0 80 -14 127q-8 39 2 55q88 2 176 2q98 10 158 56q43 49 43 133q0 35 -8 86q-20 27 -27 33q-17 18 -35 20q-10 18 -36.5 20.5t-35.5 6.5q-201 10 -600 30q-10 -1 -24 -1q-26 0 -64 3q-68 4 -90 5q-96 0 -145 -44t-49 -135z" />
<glyph unicode="U" horiz-adv-x="1181" d="M-25 1100q6 -66 7 -162v-96q-2 -63 -2 -94q0 -379 145 -541q109 -145 356 -162l4 -4q10 -2 27 4q135 10 145 12q82 8 138 29q111 43 184.5 138t91.5 214q10 178 14 449q2 227 5 454v8q0 115 -58 167q-102 57 -178 57q-23 0 -43 -4l-8 6v-10q-55 -6 -109 -72q0 -8 -14 -63 v2l-4 -879q-2 -92 -43 -127q-51 -45 -115 -45q-25 0 -47 10q-90 39 -94 182l-23 721q-4 164 -67 222q-31 12 -94 45l-3 -5q-24 8 -58.5 8t-80.5 -8q-37 -14 -65 -50q-26 -34 -25 -67q0 -162 14 -339z" />
<glyph unicode="V" horiz-adv-x="804" d="M-27 1409v-18q0 -93 19 -207q14 -14 14 -33q2 -29 4 -33q-8 0 -8 2q0 -12 8 -38.5t8 -41.5h-6q6 -2 5 -11t3 -11q29 -176 70 -524q16 -23 10 -50q12 -90 27 -180q18 -111 68 -168q4 -10 22.5 -20t18.5 -25q8 4 14 4q10 0 28.5 -8t28.5 -10q20 -4 41 -4q92 0 168 82 q193 379 465 964q20 53 41 107q25 63 25 110q0 43 -15 76q-49 111 -196 111q-72 0 -113 -35q-6 -8 -49 -66q-63 -166 -203 -491q-6 -16 -27 -39q-35 96 -61 322q-25 215 -68 317q-47 74 -143 74q-70 0 -111 -33q-74 -16 -88 -123z" />
<glyph unicode="W" horiz-adv-x="1001" d="M10 451q8 -102 17 -207q14 -117 65 -185q61 -59 154 -59q25 0 49 6q86 20 115 113q14 84 28 170l11 20q33 10 40 -10q12 -76 23 -149q18 -84 74 -127q44 -37 113 -37q27 0 59 6q57 18 96 71.5t45 112.5q72 637 127 1020q1 23 1 44q0 146 -60 204q-57 55 -148 55 q-49 0 -86 -20q-80 -41 -90 -142l-27 -295l-14 -16q-6 -6 -12 0q-4 6 -10 12q-6 61 -13 84q-12 45 -47 66q-13 8 -30 8q-20 0 -46 -10q-35 -23 -45 -60q-6 -8 -10 -57q-4 -37 -31 -39q-10 2 -15 21.5t-7 199.5q0 123 -31 195q-43 72 -143 72q-57 0 -119 -23 q-84 -60 -84 -148q0 -437 51 -896z" />
<glyph unicode="X" horiz-adv-x="1024" d="M-74 1266q0 -16 4 -33q47 -96 320 -549l6 -20l-123 -238q-39 -70 -78 -141q-45 -86 -57 -152q2 -86 49 -133q55 -55 146 -55q57 0 108 22q29 43 82 133q4 -2 8 -2q6 0 10.5 10.5t8.5 14.5q-8 -2 -9 0q-2 4 7 12q-6 -2 10 -2l12 45q14 8 31.5 41t32.5 41q0 -4 7 -14t3 -15 l-15 15q2 -10 21 -41l2 4q14 -12 29 -41q18 -39 22 -45q29 -51 62.5 -104.5t81.5 -65.5q27 -6 53 -6q104 0 155 69q8 10 21 27q23 18 22 59h5q-4 10 -9 66q-4 39 -19 60.5t-38 70.5h-6q2 27 -27 57q-18 35 -49 101q-2 2 -10 22q-8 14 -19 15l-4 20q0 8 -20 14q-4 6 2 19 q-4 12 -25 26q2 16 -16 38t-21 28q-8 8 -9 8t-1 10q8 18 33 43v9q0 12 6 13t17 34q6 0 15 11l9 11l-2 4q-2 6 4 8l6 3l-6 12q16 4 25.5 26.5t21.5 26.5q25 43 74 135q33 63 66 125q37 76 45 135h2q4 14 -2 50q-26 104 -132 129q-41 20 -79 20q-74 0 -133 -61 q-25 -39 -185 -322q-16 25 -51 70q0 2 -35 63q-2 -4 -8 -4q-4 2 -2 8q0 4 6 4q-14 33 -27 33q-2 2 7 10q-2 2 -41 82q-25 51 -54 78v-4q-2 -4 -8 -4l-4 18h-14q0 4 -11.5 7.5t-11.5 9.5q-25 4 -49 4q-82 0 -172 -47q-76 -53 -76 -131zM743 764h9v-6zM797 842v4h4v-4h-4z M874 322q1 8 7 6v-6h-7z" />
<glyph unicode="Y" horiz-adv-x="923" d="M-193 1243q0 -45 17 -86q61 -102 182 -246q98 -119 199 -237l14 -35q10 -78 25 -291q12 -182 35 -282q29 -88 127 -99q57 -6 94 -6q129 0 196 82q28 34 28 96q0 30 -7 66q-2 84 -25 250q-23 160 -24 247q94 174 139 289q39 82 76 164q43 98 43 174q0 27 -4 51 q-18 68 -131 117q-33 6 -64 6q-127 0 -211 -149q-63 -129 -127 -258q-68 88 -135 174q-82 106 -160 149q-31 8 -63 8q-100 0 -172 -55q-51 -49 -52 -129z" />
<glyph unicode="Z" horiz-adv-x="1261" d="M-88 1243q0 -55 22 -92q33 -80 183 -88q115 18 362 35q8 -12 8 -15q-66 -141 -194 -424q-8 -14 -25 -45l2 -4q-35 -74 -106 -211l4 -2q-10 -25 -37 -67q-8 -12 -14 -35q-8 -4 -10.5 -18.5t-10.5 -18.5q-29 -51 -37 -96q-12 -40 -12.5 -70t12.5 -51q33 -76 146 -80l524 57 q92 8 184 19q109 14 172 49q25 2 43 23q-6 0 -8 2q4 14 23 30q31 31 26 41l-9 1t-7 10q2 2 27 12q6 20 6 43q0 53 -39 137l-4 -4l-10 6q0 6 2 8q-6 -2 -14.5 10.5t-18.5 8.5q-10 12 -78 22q-51 -4 -193 -22q-119 -16 -192 -17v6q2 4 16 5v6h-8q-4 12 -4 22q0 25 21 51 q35 43 36 45q-2 4 -6 8.5t-4 8.5q4 6 8 2q6 -4 9 -4q29 45 61 143q8 0 10 -2v4q18 35 49 109q16 41 95 198q12 20 25.5 44t10.5 40q0 2 13 2q31 68 63 136q35 82 35 143q0 53 -25 100q-44 86 -144 86q-16 0 -34 -2q-205 -23 -614 -71q-164 -25 -170 -25q-94 -25 -139 -92 q-31 -49 -31 -117z" />
<glyph unicode="[" horiz-adv-x="743" d="M0 -135q0 -72 49 -121t121 -49h338q70 0 120 49t50 121q0 70 -50 119t-120 49h-170v1552h184q70 0 119 49t49 119t-49 120t-119 50h-352q-72 0 -121 -50t-49 -120v-1888z" />
<glyph unicode="\" horiz-adv-x="776" d="M-84 1571q0 -23 8 -43l541 -1469q31 -84 119 -84q53 0 90 37t37 90q0 23 -9 43l-540 1471q-31 82 -119 82q-51 0 -89 -37t-38 -90z" />
<glyph unicode="]" horiz-adv-x="841" d="M0 1753q0 -70 49 -119t121 -49h182v-1552h-168q-72 0 -121 -49.5t-49 -118.5q0 -72 49.5 -121t120.5 -49h338q70 0 119 49t49 121v1888q0 70 -49 120t-119 50h-352q-72 0 -121 -50t-49 -120z" />
<glyph unicode="^" horiz-adv-x="1320" d="M-49 1028q0 -100 76 -164q59 -49 135 -49q100 0 164 78l260 311l260 -311q63 -78 164 -78q76 0 135 49q76 63 76 164q-1 76 -50 135l-423 508q-63 76 -162 76q-98 0 -162 -76l-424 -508q-49 -59 -49 -135z" />
<glyph unicode="_" horiz-adv-x="1812" d="M0 -186l76 -127l106 -41l170 4l211 10h166l256 -12l373 -2l106 -4l138 59l43 113l-78 123l-103 51l-170 4l-168 -15h-208l-254 3l-177 12l-305 -6l-121 -72z" />
<glyph unicode="`" horiz-adv-x="534" d="M0 1972v70l25 65l47 47l65 29l70 2l63 -24l52 -47l157 -322v-53l-18 -49l-35 -37l-51 -21l-51 -2l-50 21l-245 258z" />
<glyph unicode="a" horiz-adv-x="1097" d="M0 539q5 -19 5 -48q0 -19 -2 -41q-2 -24 -2 -42q0 -26 4 -44q5 -22 5 -59v-22q8 -4 13.5 -22.5t11.5 -20.5q10 -35 47 -78q25 -31 49 -62l2 6q102 -69 206 -69h9q6 0 76 -12q18 16 71.5 23t71.5 28q12 -2 22.5 -18.5t18.5 -20.5l269 -4q33 0 68.5 2t43.5 39 q-8 139 -10 313v311q1 112 1 189t-1 119q-2 10 -2 22q0 16 6 50t6 48q0 46 -39 64q-41 3 -90 3q-73 0 -164 -7q-8 2 -18 2q-20 0 -56 -21.5t-59 -21.5q-41 14 -83 26.5t-83 12.5q-135 0 -266 -101.5t-131 -337.5v4l4 -151q6 -23 -4 -59zM410 604q-1 41 -1 72.5t1 54.5 q2 70 8 125q20 39 51 53q12 8 27 9q29 0 57 -35q23 -48 23 -179q0 -20 -1 -42q0 -86 3 -173q0 -102 -15 -172q-12 -6 -36.5 -6t-63.5 6q-35 20 -41 72q-10 84 -10 88q0 35 -2 127z" />
<glyph unicode="b" horiz-adv-x="1042" d="M0 43l14 -20q74 -14 303 -15q14 2 32 28.5t36 26.5q49 -39 147 -63q20 -4 46 -4q168 0 278 117q6 14 33 26v23q27 12 29 12v8q16 8 16 25v29q2 10 16 16q8 68 8 192q-1 39 -1 71q0 81 4 122v7q0 23 10 63q-14 14 -13 16q6 6 9 4q1 21 1 41q0 209 -96 279q-92 86 -239 86 q-82 0 -154 -29q-4 2 -15 -3t-15 -5q-8 0 -11 12q-2 28 -2 64q0 54 4 126q6 147 6 177q0 8 5 49q2 33 0 49q-4 25 -17 39q-67 29 -167 29q-56 0 -122 -9q-33 -2 -90 -28q-15 -110 -15 -298q0 -42 1 -87q-4 -2 -5 -12.5t-9 -8.5h8q-6 -506 -35 -1155zM401 821q0 20 17 29 q0 2 45 39q86 0 106 -29q35 -49 35 -143v4q-1 0 -12 -170q-2 -72 -6 -143q-6 -82 -35 -136q-18 -20 -43 -20q-6 0 -74 22l-24 41q0 51 8 152.5t8 148.5q0 88 -20 152q2 8 0 27q-4 20 -5 26z" />
<glyph unicode="c" horiz-adv-x="1021" d="M0 545q0 -106 2 -211q6 -119 59 -189q27 -37 74 -71q72 -55 80 -62l-4 -4l16 12q29 -2 80 -20q84 0 250 12q317 43 373 248q7 31 7 55q0 45 -28 58q-55 8 -153 8q-111 0 -156 4q-18 -12 -47 -84q-25 -55 -74 -57q-9 -2 -18 -2q-27 0 -58 22q-30 49 -30 130v5q0 27 4 79 t4 77q0 29 -4 51q4 18 4 43q0 18 -3 58.5t-3 58.5q0 82 43 127q25 17 55 17q17 0 35 -5q33 -14 51 -63q20 -57 41 -74l293 -14l16 14q25 29 25 72q0 53 -42 123.5t-120 119.5q-137 66 -313 66q-180 0 -314 -70q-123 -63 -141 -233q-2 -152 -4 -301z" />
<glyph unicode="d" horiz-adv-x="1097" d="M0 381q-1 -15 -1 -29q0 -84 40 -160q47 -90 133 -137q66 -49 166 -49q111 0 209 53q16 -6 16 -32.5t17 -34.5q29 0 107.5 -8.5t119.5 -8.5q59 0 98 15q12 189 35 549q0 14 12 368q6 219 33 363q-2 20 -2 45q0 39 4 92q6 80 6 124v19l-18 31q-96 20 -213 27q-2 0 -68 -6 q-41 -4 -53 -33l-37 -488l-12 -14q-139 66 -234 66q-47 0 -92 -15q-195 -63 -235 -315q-16 -211 -31 -422zM365 397q0 47 8 203q4 77 4 136q0 39 -2 69q23 59 78 76q12 3 25 3q35 0 79 -22q6 -4 41 -59q2 -18 2 -34q0 -47 -14 -73q-6 -147 -33 -426q-30 -32 -79 -32h-3 q-23 0 -45 8q-39 20 -57 47q-4 47 -4 104z" />
<glyph unicode="e" horiz-adv-x="1032" d="M-2 780q0 -55 9 -164.5t9 -158.5q0 -41 -4 -74l11 -6q-2 -16 -2 -33q0 -69 28 -137q39 -92 115 -135q133 -76 295 -76q166 0 313 80q84 45 130 124q38 65 38 139q0 16 -2 32q-23 43 -80 43q-14 0 -42 -2t-40 -2q-16 0 -28 2q-53 0 -162 -25q-18 -63 -23 -78 q-20 -45 -53 -61q-10 -5 -34 -5q-18 0 -42 3q-23 14 -51 53q-9 57 -9 99q0 61 19 91q123 12 208 12q42 0 75 -3q8 1 17 1q20 0 48 -3q53 -4 72 -4q92 0 123 61q8 86 8 158q0 128 -26 209q-80 254 -435 254q-123 0 -243 -35q-242 -66 -242 -359zM371 725q-10 38 -10 70 q0 56 30 96q31 30 72 30q18 0 37 -6q43 -20 53 -49q17 -49 17 -88q0 -28 -9 -51q-33 -7 -87 -7q-44 0 -103 5z" />
<glyph unicode="f" horiz-adv-x="737" d="M0 1104q-3 -21 -3 -46q0 -50 11 -116q18 -14 55 -10t54 -2l16 -21q2 -131 62 -739q0 -57 16 -166q20 -12 53 -6q55 6 53 6q10 -8 23 -8q6 0 20.5 5t24.5 5q6 0 12 -2q16 6 95 14q59 8 86 35q-6 305 -29 434v11q0 24 -6 63q-8 49 -8 72q0 16 2 29q-14 57 -21 145 q-12 154 -14 156q14 20 53 24l66 4q30 15 30 60v8l-2 82l-4 -2q-15 43 -124 43h-19l-15 12q0 10 5 12q-10 -4 -21 37q8 6 8 12q0 4 -7 13.5t-7 15.5t6 10q-6 10 -2 33q4 16 6 35q18 53 94 68q33 12 33 55q0 16 -7 49q-5 23 -5 48q0 43 -47 58q-72 27 -76 29l-8 -12 q-139 -18 -215 -66q-152 -92 -152 -325q0 -57 10 -117q-16 -16 -49 -27z" />
<glyph unicode="g" horiz-adv-x="1075" d="M-10 328q0 -121 47 -191q115 -162 309 -162q35 0 68 7q8 0 30.5 5t34.5 5q25 0 39 -19q-6 -66 -14 -131q-14 -72 -72 -98q-4 -1 -8 -1q-22 0 -58 17q-38 19 -62 19h-5q-8 6 -18 6q-35 0 -39 -41q2 -16 -2 -51q-4 -41 -4 -58q0 -74 65 -94q27 -8 53.5 -19t34.5 -32 q16 -6 47 2q33 -4 68 -4q139 0 237 53q131 70 158 244q14 147 31 295q0 86 18 285q20 211 37 274q-1 8 -1 17q0 32 11 83q-1 2 -1 19.5t1 50.5q18 96 21 221q-10 14 -38 21.5t-38 17.5l-278 16q-10 -8 -23 -28q-6 -10 -18 -10q-10 0 -32 12t-30 10q-90 43 -190 43 q-141 0 -236 -86q-84 -80 -104 -240q-14 -135 -29 -268q0 -20 -6 -94q-4 -59 -4 -96zM383 459q10 113 43 325q10 49 63 72h4q63 0 95 -57q6 -25 6 -54q0 -41 -15.5 -123.5t-15.5 -125.5q-6 -84 -10 -168q-10 -98 -90 -113q-8 -2 -15 -2q-39 0 -63 45q-11 32 -11 86 q0 49 9 115z" />
<glyph unicode="h" horiz-adv-x="1087" d="M0 82q6 -35 41 -33q35 -27 94 -35q82 -8 88 -10q16 8 41 8q12 0 36 -2t36 -2q41 0 61 25q27 100 29 264q0 23 10 94q4 34 4 58q0 16 -2 26q4 39 4 94q-2 12 4 33q-1 34 -1 64q0 67 6 114q0 14 12 35q-4 4 -4 12q8 10 12 9l-4 6q10 -2 14 18.5t19 24.5q31 10 37 -2 q2 6 12 14q29 0 55 -55q-6 -354 -12 -643q2 -12 2 -27q0 -14 -3 -41t-3 -39q0 -37 20 -59q95 -30 139 -30q7 0 13 1q12 2 31 2q16 0 54 -4t56 -4q63 0 88 39q5 73 5 183q0 55 -1 120q-1 69 -1 125q0 111 3 168q6 139 6 178q-3 106 -38 172q-39 76 -118 126t-163 58 q-23 -6 -61 7q-29 6 -31 -13q-12 12 -23 13q-8 0 -22.5 -20.5t-32.5 -16.5q-6 0 -22.5 -8.5t-24.5 -8.5t-14 6q-1 26 -1 59q0 99 9 261q-2 18 2 56t4 54q0 74 -59 93l-109 6q-18 0 -66 4q-39 4 -63 4q-53 0 -92 -18q-20 -8 -31 -72q0 -416 -45 -1491zM446 602q3 -2 9 2 q-4 0 -9 -2z" />
<glyph unicode="i" horiz-adv-x="745" d="M190 1417q0 -94 86 -145q12 -2 17 -10q45 -35 104 -35q51 0 103 28q8 33 43 54q37 63 37 123q0 47 -23 84q-57 88 -158 88q-18 0 -39 -2q-78 -35 -104 -54q-55 -41 -61 -94q-4 -18 -5 -37zM195 45q0 -31 36 -41q119 -2 326 -4l23 25q8 216 8 549q0 238 -4 536 q-8 14 -39 25l-252 10q-33 -4 -90 -31q-8 -29 -8 -70v-999z" />
<glyph unicode="j" horiz-adv-x="770" d="M20 -309q0 -18 6.5 -55t6.5 -54q45 -39 118.5 -65.5t135.5 -26.5q31 0 75 10q66 14 74 15q0 2 27 12q18 8 16 27q88 53 131 210q1 49 1 102q0 248 -23 578q-35 510 -39 672q-8 23 -37 25q-43 2 -47 4l-201 -8q-10 -8 -43 -15.5t-41 -25.5q25 -510 72 -1076q0 -27 4 -78 t4 -73q0 -49 -12 -84q-25 -39 -80 -39q-23 0 -65 7t-58 5q-25 -27 -25 -67zM152 1386q0 -33 34 -65q29 -26 58 -53q47 -29 100 -29q72 0 127 55q47 84 47 131q0 49 -37 101q-47 82 -151 82q-57 0 -101 -31q-79 -54 -79 -152q0 -20 2 -39z" />
<glyph unicode="k" horiz-adv-x="999" d="M0 68q14 -29 63 -33q74 -4 76 -4q66 -2 172 -4q16 0 33 41q10 289 12 303t6.5 26.5t14.5 10.5q45 -66 110 -197q72 -143 107 -201l305 -26q21 8 21 41q-10 41 -51.5 103t-51.5 99q-45 90 -141 265q-2 10 -15.5 36.5t-13.5 42.5q0 14 8 29h4l3 16q12 4 24 23q8 12 16 27 l-4 4q20 23 45 69q29 55 40.5 75t37.5 44q10 33 41 62q12 33 51 73.5t52 67.5q9 18 9 30q0 22 -28 29q-72 16 -280 17l-25 -19l-199 -311q-10 -10 -19 -21.5t-22 -9.5q4 287 11 414q10 231 37 416q-20 29 -74 32q-68 4 -80 9q-20 -2 -59 2q-49 4 -64 4q-53 0 -78 -37 q-31 -508 -94 -1548z" />
<glyph unicode="l" horiz-adv-x="704" d="M92 1561q0 -12 4 -38t2 -38l115 -1483q60 -5 118 -5q100 0 195 15l23 19q0 12 6 35l-123 1560q-80 -2 -158 -4q-100 -4 -163 -18q-18 -14 -19 -43z" />
<glyph unicode="m" horiz-adv-x="1644" d="M0 49q59 -18 156 -18q160 0 160 2h-1q35 16 41 47l19 694q0 59 2 70q5 36 29 56q15 12 50 13q19 0 44 -4q55 -27 63 -86l-6 -757v4q14 -37 72 -43q66 -6 86 -27l28 23q51 4 162 18q16 2 37 49l4 741l12 37q14 42 83 42q11 0 24 -1q47 -16 68 -86v-93q0 -434 -17 -689 l12 -12q55 -18 144 -19q162 0 153 2q27 2 66 23q14 70 18 180q4 176 7 186q-6 35 -7 80q0 45 7.5 140.5t7.5 142.5q-1 238 -148 328q-93 77 -233 77h-4q-115 0 -201 -53q-14 -2 -53 -20q-31 -16 -58 -13q-111 88 -249 88q-96 0 -177 -47q-18 -18 -24 17q-53 41 -152 45 l-164 4q-23 2 -47 -33q1 -130 1 -249q0 -536 -15 -859z" />
<glyph unicode="n" horiz-adv-x="1107" d="M0 31q115 -31 255 -31q52 0 107 4q37 25 39 98q2 100 5 109q6 78 10 321q2 188 18 299q35 47 70 50q76 -18 86 -52q8 -420 8 -557q-3 -44 -3 -109t3 -151q101 -20 214 -20q72 0 149 8q18 6 22 26.5t8 39.5v755q1 76 -69 170q-96 135 -301 135q-37 0 -76 -4 q-4 -2 -121 -28q-4 23 -27 30q-53 8 -166 19q-2 16 -19 12t-24 2q-16 -8 -84 -8q-53 -2 -71 -33q-14 -362 -33 -1085z" />
<glyph unicode="o" horiz-adv-x="1087" d="M-25 768q0 -76 41 -500q6 -66 62 -143q121 -131 366 -131q59 0 189 10q2 0 115 37q68 20 108 49q129 84 129 291q0 47 -6 106q-10 135 -23 271q-18 156 -71 252q-98 133 -316 133q-53 0 -149 -8q-104 -10 -146 -11q-6 12 -14 13l-29 -29q-217 -74 -251 -246 q-4 -45 -5 -94zM377 823q2 31 30.5 56.5t61.5 25.5q55 0 68 -49q12 -61 18 -158q6 -82 12 -161q0 -27 6.5 -86.5t6.5 -88.5q-1 -94 -56 -135h-8q-35 0 -74 29q-33 49 -41 170z" />
<glyph unicode="p" horiz-adv-x="1075" d="M-43 1069q0 -16 7 -60t3 -61q2 -45 21 -135v-15q0 -47 10 -115t10 -109v-13q18 -117 29 -239q23 -240 74 -756q29 -33 86 -33q23 0 68.5 6t64.5 6q35 2 94 6q51 4 63 39q0 92 -16 242q-16 164 -18 240q2 6 34 10q70 -29 154 -29q131 0 211 70q135 96 135 321 q0 66 -12 166q-8 111 -19 221q-12 127 -57 201q-102 168 -315 168q-74 0 -142 -26q-2 0 -51 -21q-33 -14 -55 -10q-2 14 -26.5 26.5t-43.5 12.5q-12 0 -18 -11q-26 -3 -46 -3q-36 0 -48 12q-23 -12 -74 -17.5t-76 -23.5q-47 -14 -47 -70zM377 854q4 43 55 68q31 10 53 10 q45 0 60 -41l16 -45q2 -39 21 -203q16 -125 16 -205q0 -39 -4 -76q-12 -27 -49 -61q-27 4 -53.5 9t-45.5 20l-20 37q-14 154 -49 487z" />
<glyph unicode="q" horiz-adv-x="1075" d="M0 461q0 -285 197 -383q76 -37 174 -37q88 0 159 31q8 -2 20.5 5t18.5 7q4 0 11 -6l2 -488q14 -27 45 -34q45 -4 97 -4q87 0 191 12q14 6 19 28q6 31 8 35q6 129 6 269q0 141 -6 268l14 57q-14 66 -14 151v21q2 84 6 170q-3 138 -3 239q0 151 7 216q-1 9 -1 19q0 20 5 47 q7 42 7 55q0 10 -2 20q-23 39 -84 39q-12 0 -35 -2h-35q-33 0 -53 8q-41 -9 -66 -9q-19 0 -29 5q-27 -8 -28 -8q-31 -12 -51 -66q-92 57 -213 58q-53 0 -107 -13q-92 -23 -164.5 -105.5t-85.5 -178.5q6 -41 6 -94t-8 -165t-8 -167zM391 418q0 27 8 448q14 35 82 58q6 1 12 1 q26 0 58 -22q18 -18 31 -65q-5 -132 -11 -482q-12 -27 -41 -47q-21 -8 -44 -8q-20 0 -42 6q-51 23 -53 111z" />
<glyph unicode="r" horiz-adv-x="1009" d="M-10 119q0 -41 18 -64q55 -16 152 -22q127 -8 153 -13q8 8 23 35q33 233 43 338q23 201 24 359q4 47 11.5 95t52.5 64q21 4 39 4q49 0 74 -32q18 -18 28 -64.5t31 -60.5q63 -6 184 -21q18 0 49 -4t43 -4q45 0 60 39q2 20 2 41q0 184 -164 305l-20 4q-61 49 -162 49 q-96 0 -193 -41q-12 2 -16 19.5t-8 21.5q-29 18 -78 23q-61 4 -80 8q-12 -2 -27 -2q-16 0 -49 4t-49 4q-51 0 -74 -41q-6 -131 -20 -387q-16 -180 -37 -553q0 -12 -5 -48t-5 -56z" />
<glyph unicode="s" horiz-adv-x="1021" d="M-12 352q0 -133 131 -237q197 -98 391 -99q131 0 258 47q74 39 118 114t44 159q0 154 -172 287q-147 102 -295 202q-16 16 -34.5 32.5t-14.5 37.5q23 39 59 39q8 0 13.5 -3t9.5 -3t8 5t8 5t8 -2q47 -4 64 -59q23 -72 37 -86q76 -10 149 -23q77 -10 134 -10h18 q39 20 39 69q0 16 -4.5 48t-6.5 45q-61 217 -426 258q-8 10 -20 10q-4 0 -27 -8q-16 -6 -26 0q-18 4 -42 4q-49 0 -124 -17q-92 -18 -167 -92t-89 -162q-4 -31 -4 -59q0 -168 184 -309q158 -106 315 -215q10 -8 11 -21q0 -16 -19 -35q-41 -20 -64 -20q-11 0 -18 4 q-47 10 -63 64q-12 45 -25 90l-205 24q-86 12 -86 14l2 1q-37 0 -57 -23q-12 -37 -12 -76z" />
<glyph unicode="t" horiz-adv-x="739" d="M98 987l8 -8q53 0 123 -25q2 -16 -10 -36q-20 -145 -39 -371q-14 -188 -28 -375q-4 -36 -4 -62q0 -48 12 -65h14q44 0 117 -10q96 -14 135 -15h61q33 2 41 33q27 289 82 865q2 0 72 6q41 2 53 30v7q1 19 9 59q10 46 10 65q0 48 -47 62q-18 0 -50 14l-18 -4l-4 60 q0 8 6 42.5t6 55.5q0 41 -20 63q-139 37 -342 41l-21 -20q-20 -98 -24 -197q-8 -4 -93 -8q-16 0 -28 -4q-20 -47 -21 -203z" />
<glyph unicode="u" horiz-adv-x="1054" d="M-33 348q-2 -16 10.5 -51t14.5 -47q98 -162 239 -184q6 -4 29 -5q16 -2 23 -14q70 18 211 49q18 -29 20 -30q10 -16 29 -21q31 -4 129 -16q74 -10 125 -11q27 0 51 2q25 14 29 54q8 59 8 63l88 975q-43 31 -110 42.5t-128 19.5q-14 -2 -45 2t-41 4q-57 0 -67 -56 q-8 -143 -37 -383q-31 -260 -39 -381l-14 -28q-47 -33 -82 -33q-14 0 -29 6q-43 27 -51 101l63 751l-8 21q-47 20 -149 41l-170 6q-12 6 -48 -23q-16 -43 -16 -131q0 -143 2 -143v2q-4 -66 -22 -291q-14 -186 -15 -291z" />
<glyph unicode="v" horiz-adv-x="1015" d="M-186 1044q0 -25 24 -67q27 -49 31 -66l475 -891h23q148 0 338 46q76 207 143 540q106 537 110 551v49l-20 21q-29 4 -59 4q-49 0 -308 -41l-20 -21q-31 -158 -105 -471q-84 152 -202 400l-29 30q-244 -2 -383 -38q-18 -20 -18 -46z" />
<glyph unicode="w" horiz-adv-x="1622" d="M-88 1161q115 -356 346 -1067q6 -18 29 -26q31 -10 37 -15q51 -16 153 -33q37 6 79 13.5t65 27.5q43 131 141 390h4q59 -162 133 -377q25 -25 61.5 -28t73.5 -5q16 2 35 2q20 0 53 -3t47 -3q45 0 76 29q8 16 17 53q8 31 32 76l-4 6q31 66 70 188q45 139 63 189 q23 66 78 198q18 61 76 187q57 119 74 186q-17 23 -56 25h-53q-31 2 -49 12q-4 4 -8 6q-4 0 -8 -8t-9 -8h-96q-57 -2 -86 -27q-63 -168 -199 -500q-12 33 -139 408q-10 43 -20 84q-12 43 -49 43q-7 0 -15 -2q-16 -4 -35 -4q-16 0 -50 4t-50 4q-61 0 -88 -45 q-55 -150 -174 -447h-6q-49 166 -152 496h-23q-48 0 -118 6q-98 8 -137 8q-53 0 -99 -8q-14 -16 -20 -35z" />
<glyph unicode="x" horiz-adv-x="1042" d="M-66 90q8 -10 29 -24q25 -2 334 -17q45 66 137 195l21 8q25 -31 57.5 -102.5t56.5 -102.5l33 -14q226 -13 307 -13h25q16 12 12 33q-90 172 -264 525v36q35 55 111 166l-7 4q8 10 27 29l-6 4q35 57 111 164l-5 2q23 31 58 94l4 4q10 10 10 27q0 29 -27 39 q-185 18 -283 18q-35 0 -59 -2q-29 -45 -84 -127q-18 -41 -49 -53q-23 27 -57 107q-29 70 -66 96q-170 23 -333 24q-16 -18 -27 -61q14 -12 26.5 -42t20.5 -42q18 -41 113 -225q72 -137 100 -226q-92 -154 -326 -524z" />
<glyph unicode="y" horiz-adv-x="1032" d="M-45 1128q14 -90 22 -227q10 -184 15 -231q6 -111 10 -219q6 -127 31 -213q35 -86 122 -149.5t177 -63.5q37 0 113.5 14t107.5 16q27 -49 27 -96q0 -27 -15 -106q-43 -55 -92 -56h-25.5t-37 11.5t-33.5 11.5q-16 0 -27 -21q-8 -41 -8 -73q0 -72 41 -109q90 -66 203 -66 q66 0 119 25q94 35 161.5 122t71.5 185l-23 441l-55 833l-18 35l-21 12h-21q-89 0 -251 -14q-37 -18 -37 -68q0 -14 4 -40.5t4 -34.5q2 -27 12 -207q9 -121 9 -193v-14q0 -29 7 -91.5t7 -92.5q0 -86 -39 -134q-37 -25 -69 -25q-14 0 -27 5q-49 18 -74 82q-31 467 -37 735 q-16 57 -94 64q-61 2 -125 4q-16 -10 -68.5 -17.5t-66.5 -34.5z" />
<glyph unicode="z" horiz-adv-x="1163" d="M0 1108q0 -213 8 -279q2 -10 16.5 -18t16.5 -10q98 5 269 5q57 0 122 -1q4 -8 4 -14q0 -10 -22 -39l6 -4q-45 -37 -92 -121q-63 -117 -80 -140q-33 -80 -103 -194q-96 -164 -110 -191q-12 -22 -12 -37q0 -17 14 -28q6 -2 69 -17q164 0 451 8.5t442 8.5q20 4 42 8t24 25 q4 36 4 84q0 86 -12 208q-37 35 -116 35h-9q-83 -3 -116 -3q-16 0 -19 1q-49 -10 -96 -10q-29 0 -58 4q225 440 393 717l8 35q-6 18 -27.5 26.5t-41.5 14.5q-94 5 -168 5q-98 0 -160 -9q-16 -4 -29 -4q-21 0 -32 12q-6 -2 -33 4q-16 2 -25 -14q-102 -12 -256 -17 q-123 -2 -247 -4z" />
<glyph unicode="{" horiz-adv-x="759" d="M0 823q0 -61 40 -106t99 -58q12 -35 13 -106q0 -41 -31 -287l-8 -63q0 -268 157 -416q129 -121 293 -121q72 0 119 49t49 121q0 66 -47 115t-115 53q-115 8 -116 191l2 12q35 203 34 338q0 170 -53 278q53 106 53 277q0 137 -34 340l-2 10q2 184 116 190q68 4 115 53.5 t47 116.5q-2 70 -49 119t-119 49q-164 0 -293 -118q-158 -150 -157 -416l8 -64q41 -326 20 -391q-61 -10 -101 -57t-40 -109zM180 991q9 0 23 -2q-6 0 -23 2z" />
<glyph unicode="|" horiz-adv-x="600" d="M176 55q0 -53 37 -90t90 -37q51 0 89 37t38 90v1565q0 53 -38 90t-89 37q-53 0 -90 -37t-37 -90v-1565z" />
<glyph unicode="}" horiz-adv-x="737" d="M-66 -164q0 -72 48.5 -121t117.5 -49q166 0 295 121q158 147 158 416l-8 63q-31 246 -31 287q0 68 10 104q102 16 133 117q5 14 9 49q0 61 -41 108.5t-101 57.5q-12 35 -12 103q0 41 33 288l8 64q0 266 -158 416q-129 119 -295 118q-70 0 -118 -49t-48 -119 q0 -68 47.5 -116.5t114.5 -53.5q115 -6 117 -190l-2 -10q-37 -203 -37 -340q0 -170 55 -277q-55 -109 -55 -278q0 -135 37 -338l2 -12q-2 -182 -117 -191q-68 -4 -115 -53t-47 -115z" />
<glyph unicode="~" horiz-adv-x="1622" d="M-59 725q0 -72 14 -129q18 -72 75.5 -116t129.5 -44q88 0 149.5 62.5t61.5 150.5q0 125 71 125q55 0 71.5 -9t49.5 -58q72 -104 139 -154q123 -90 306 -90q258 0 397 162q111 129 111 313q-1 34 -3 63q-12 84 -80.5 135.5t-152.5 41.5q-86 -10 -140.5 -78t-45.5 -154 q4 -59 -86 -59q-45 0 -58 6q-4 4 -37 51q-74 106 -145 160q-131 92 -326 92q-270 0 -405 -174q-96 -121 -96 -297z" />
<glyph unicode="&#xa1;" horiz-adv-x="733" d="M172 197l10 -70l33 -64l59 -32l64 -15l70 9l57 36l43 54l8 65l8 80l4 74l-6 78l15 61l-7 74l-4 63l2 82l-6 84l2 82l-12 78l-4 78l-10 80l-52 53q-59 23 -112 8l-60 -53l-18 -76v-82l-12 -80l-23 -80l-8 -86l-8 -71l-2 -70l-8 -68l-7 -79l-2 -74l-2 -76zM195 1393l14 -74 l43 -59l59 -41l70 -13l74 15l59 41l41 59l14 72l-18 71l-39 60l-59 43l-72 12l-72 -16l-61 -39l-39 -62z" />
<glyph unicode="&#xa2;" horiz-adv-x="1118" d="M-27 526q0 -129 76 -252.5t195 -173.5l-27 -168q-10 -53 20.5 -95t84.5 -50q51 -10 94 20.5t51 83.5l25 152q170 -8 305 55q147 68 219 209q59 115 59 225q0 104 -61 170q-86 59 -164 60q-25 0 -47 -4q-102 -25 -135 -162l2 -72q0 -43 -21 -65q-70 -70 -137 -70 q-12 0 -27 2q-12 12 -39 27h-6q-59 41 -53 110l-8 9q12 37 8 147q2 78 0 231q-2 70 12 209q66 109 179 95q12 -4 65 -37q20 -25 59 -117q33 -76 78 -111q10 -10 19 7q41 -14 86 -15q68 0 116 33q63 45 64 127q-2 31 -3 66.5t-20 54.5q-29 92 -77 157q-53 74 -154 132 q-12 -8 -25 8q-25 0 -47 14q-2 2 -4 2l35 217q8 51 -22.5 94t-81.5 52q-53 8 -95.5 -23t-50.5 -84l-41 -240q-47 -2 -141 -18q-119 -29 -215 -129t-115 -221q-14 -106 -18 -232q8 -31 -4 -90q4 -12 0 -43q-2 -29 4 -45q-12 -35 -10 -102h6q2 -6 2 -14q0 -10 -2 -17h-6 q10 -6 6 -45q-8 0 -9 4l-4 -14q-2 -8 4 -12q-4 -25 -4 -52z" />
<glyph unicode="&#xa3;" horiz-adv-x="1247" d="M-98 901q0 -53 37.5 -90t89.5 -37h131q4 -70 4 -106q0 -150 -23 -234q-86 0 -148.5 -61.5t-62.5 -149.5t62.5 -149.5t150.5 -61.5h775q88 0 150 61.5t62 149.5v338q0 88 -62 150.5t-150 62.5q-86 0 -148.5 -62.5t-62.5 -150.5v-127h-134q14 102 15 223q0 55 -4 117h137 q53 0 90 37t37 90q0 51 -37 89t-90 38h-170l-12 80q10 145 69 145q119 0 146 -41l-9 17q27 -61 82.5 -99t120.5 -38q37 0 70 12q139 51 139 194q0 33 -10 64q-39 115 -156 201q-154 113 -383 112q-229 0 -368 -180q-125 -164 -125 -397v-17l8 -53h-94q-51 0 -89 -38t-38 -89 z" />
<glyph unicode="&#xa4;" horiz-adv-x="1241" d="M-180 662q0 -53 37 -90t90 -37h131q-2 -137 69.5 -254t194.5 -179q6 -2 18.5 -11t18.5 -9q4 0 8 4q27 -20 78 -29q43 -6 84 -11t80 -5q160 0 284 63q137 70 205 203q57 115 58 225q-1 104 -60 170q-86 59 -164 60q-25 0 -47 -4q-102 -25 -135 -162v-72q2 -43 -18 -65 q-70 -70 -138 -70q-12 0 -26 2q-12 12 -39 27h-6q-59 41 -56 110h2l-4 7h152q53 0 90 36.5t37 90.5q0 51 -37 88.5t-90 37.5h-148v27h148q53 0 90 38t37 89q0 53 -37 90t-90 37h-143q2 31 8 55q66 109 178 95q12 -4 65 -37q20 -25 60 -117q33 -76 78 -111q10 -10 18 7 q41 -14 84 -15q70 0 117 33q66 45 65 127q-2 31 -3 66.5t-19 54.5q-29 92 -78 157q-53 74 -154 132q-14 -8 -26 8q-23 0 -45 14q-12 2 -51 14q-8 12 -9 15q-72 4 -90 -6q-25 10 -96 16q6 -4 0 -10l-8 -8q-51 -4 -148 -21q-119 -29 -215 -129t-114 -221q-4 -25 -13 -119h-151 q-53 0 -90 -37t-37 -90q0 -51 37 -89t90 -38h141q-2 -14 2 -27h-143q-53 0 -90 -37.5t-37 -88.5z" />
<glyph unicode="&#xa5;" horiz-adv-x="1138" d="M-29 1411q0 -31 9 -61q47 -102 139 -242q80 -119 160 -236h-173q-53 0 -89.5 -36.5t-36.5 -90.5q0 -53 36.5 -90t89.5 -37h209v-28h-209q-53 0 -89.5 -37t-36.5 -90q0 -51 36.5 -89t89.5 -38h199q-2 -129 6 -205q20 -92 117 -113q86 -18 135 -18q94 0 156 57 q51 47 45 164q2 45 4 115h156q53 0 90 38t37 89q0 53 -37 90t-90 37h-158v28h158q53 0 90 37t37 90t-37 90t-90 37h-111q45 68 127 205q51 88 104 176q55 104 52 199q-10 72 -119 131q-45 14 -86 14q-113 0 -209 -137q-74 -117 -147 -233q-57 94 -115 188q-70 115 -141 166 q-47 16 -99 16q-80 0 -141 -36q-68 -51 -68 -150z" />
<glyph unicode="&#xa6;" horiz-adv-x="600" d="M164 55q0 -53 37 -90t90 -37t90 37t37 90v578q0 51 -37 89t-90 38t-90 -38t-37 -89v-578zM164 1028q0 -53 37 -90t90 -37t90 37t37 90v592q0 53 -37 90t-90 37t-90 -37t-37 -90v-592z" />
<glyph unicode="&#xa7;" horiz-adv-x="1155" d="M-27 535q10 2 15 -7q2 -10 -4 -22q6 -29 14 -59.5t25 -49.5q0 -2 4 -10q2 -76 79 -137q51 -35 115 -66v-2h6q10 -6 19 -10l12 -12q12 2 22.5 -3t16.5 -16q14 -2 53 -18q33 -12 56 -10v-4q14 -2 32 -3q90 -20 176 -18q39 -8 58 -31q33 -23 26 -65h7v-10q0 -2 -5 -2 q2 -72 -63 -123q-47 -14 -94 -15q-72 0 -178 43q-131 53 -175 62q-133 2 -190 -117q2 -8 -3 -22.5t-5 -18.5q0 -10 10 -14l-8 -8q4 -6 12 -46q6 -29 25 -43q47 -49 96 -57q2 -6 17.5 -8t17.5 -14q37 -12 110 -37q147 -47 293 -47q272 0 404 163l-2 3q12 6 24.5 28.5 t18.5 28.5q66 109 65 248q0 153 -96 276q23 33 55 103q10 8 14.5 30.5t10.5 28.5q23 113 16 147q-8 -2 -14 7q-2 10 6 22q-8 29 -15.5 59.5t-23.5 49.5q-2 2 -6 10q-2 76 -80 137q-51 35 -113 66l-2 2h-6q-10 6 -18 10q-10 12 -12 12q-12 -2 -21.5 3t-17.5 16q-14 2 -50 16 t-59 12v4q-14 2 -31 2q-90 20 -176 19q-41 8 -59 31q-33 23 -27 65h-4q-2 0 -2 10q0 2 4 2q-2 72 66 123q45 14 92 15q72 0 178 -43q131 -51 174 -62q135 -2 191 117q-2 8 3 22.5t5 18.5q0 10 -8 14l6 8q-4 6 -13 45q-6 29 -24 43q-47 49 -96 58q-2 6 -17.5 8t-17.5 14 q-37 12 -111 37q-147 47 -293 47q-270 0 -403 -164l4 -2q-14 -6 -25.5 -28.5t-19.5 -28.5q-63 -109 -64 -248q0 -154 97 -276q-25 -33 -58 -103q-8 -8 -13 -30.5t-9 -28.5q-25 -113 -19 -147zM340 584q2 20 20 57q8 14 25 25q86 -18 256 -52q63 -29 68 -92q0 -20 -21 -57 q-6 -14 -22 -25q-88 19 -258 52q-61 29 -68 92z" />
<glyph unicode="&#xa8;" horiz-adv-x="894" d="M0 1866q-16 -119 94 -176q12 0 19 -9q41 -29 94 -28q57 0 112 39q6 33 39 55q29 59 29 113q0 72 -54 122t-126 50q-26 -1 -53 -7q-74 -41 -99 -61q-53 -43 -55 -98zM485 1804l23 -69l45 -58l61 -37l72 -8l72 23l59 43l33 63l8 72l-18 72l-47 55l-64 39l-70 6l-73 -18 l-56 -48l-36 -63z" />
<glyph unicode="&#xa9;" horiz-adv-x="1540" d="M-59 829q0 -395 201.5 -631.5t537.5 -236.5q338 0 538.5 236.5t200.5 631.5q0 397 -200.5 634t-538.5 237q-336 0 -537.5 -236.5t-201.5 -634.5zM195 829q0 209 73 363q121 254 412 254t412 -254q76 -154 75 -363q0 -207 -75 -360q-121 -254 -412 -254t-412 254 q-74 154 -73 360zM305 670q-12 -98 37 -186.5t139 -133.5q4 0 14.5 -7t16.5 -3q18 -14 49 -18.5t58.5 -8.5t54.5 -4q240 0 330 180q39 78 38 150q0 72 -41 117q-57 39 -110 39q-94 0 -123 -111q0 -2 2 -51q0 -27 -14 -41q-53 -55 -109 -47q-8 8 -26 18h-5q-41 27 -36 74h2 l-7 6q8 25 5 98q2 53 0 156q0 47 10 141q43 72 119 64q8 -4 45 -25q12 -18 39 -80q23 -51 53 -73q6 -6 12 4q76 -29 135 12q43 31 43 86q2 29 -14 80q-20 61 -55 108t-101 86q-10 -6 -18 7q-16 0 -31 10q-8 0 -33 8q-6 8 -6 10q-49 2 -61 -4q-16 6 -64 10l-6 -12 q-35 -2 -98 -14q-82 -18 -146.5 -86t-76.5 -150q-10 -72 -13 -153q6 -20 -2 -62q-4 -18 2 -59q-8 -23 -6 -68h4q4 -10 0 -20h-4q6 -6 4 -31q-2 0 -6 2v-18z" />
<glyph unicode="&#xaa;" horiz-adv-x="929" d="M0 1139q6 -23 2 -68t1 -66.5t5 -62.5q4 -14 19 -33q8 -27 34 -59q20 -25 39 -47l2 4q82 -55 164 -53q6 0 60 -11q14 14 55 19.5t55 19.5q8 -10 31 -28l207 -4q25 2 52.5 3t33.5 29q-4 74 -6 717q-4 16 0 45q6 37 6 47q0 35 -31 49q-78 6 -194 -4q-20 6 -52 -12t-49 -18 q-109 31 -129 30q-104 0 -204.5 -78.5t-100.5 -259.5q0 20 4 -112q4 -18 -4 -47zM315 1092q-4 98 7 292q16 29 38 39q10 6 21 7q20 0 43 -27q20 -43 18 -170q4 -88 -10 -264q-16 -10 -76 0q-27 16 -32 55q-6 66 -9 68z" />
<glyph unicode="&#xab;" horiz-adv-x="1435" d="M-117 733q0 -78 56 -135l380 -381q55 -55 134 -55q80 0 135 56t55 134q0 80 -55 135l-246 246l285 285q55 55 55 135q0 78 -55.5 134t-134.5 56q-78 0 -136 -57l-417 -418q-55 -55 -56 -135zM567 733q0 -78 56 -135l381 -381q57 -55 135 -55q80 0 135 56t55 134 q0 80 -55 135l-246 246l283 285q57 55 57 135q0 78 -56.5 134t-133.5 56q-80 0 -136 -57l-419 -418q-55 -55 -56 -135z" />
<glyph unicode="&#xac;" horiz-adv-x="1730" d="M10 1192q4 -10 4 -14q-4 -12 0 -33q2 -23 2 -31q0 -12 -2 -18q0 -49 17 -119q4 -2 8 -2t12 2t15 0h32q20 0 31 -2q12 2 29 2q-4 0 -11 -2q-23 -94 -22 -193q0 -141 49 -274h-2q-16 -6 -16 -25v-2q-4 -6 0 -12q2 -2 6 -12q4 0 10 -5.5t13.5 -7.5t7.5 -6q20 0 34 37v6 q-4 12 -8 23q-12 10 -29 10l-2 -2h-2q-51 129 -51 270q0 98 27 195h26q-25 0 70 6q4 -4 12 -4q12 4 15 0q14 0 37 -6q18 2 24 6t8 16l2 39v45q0 10 4.5 29.5t4.5 28.5q0 10 -3 14q-6 14 -6 33v55q-2 4 -2 8t2 8q0 4 -2 7v43q-2 6 -2 10v2q66 66 144 117q-6 -16 -23 -45 q-2 -16 12 -23q0 -33 -8 -43q-8 -18 -8 -35q0 -27 18 -47q0 -16 -8 -45t-9 -40t-9 -32v-28q-37 0 -45 -6q-20 -12 -31 -21q0 -12 -8 -33q-2 -63 4 -82q-4 -37 27 -65q8 -12 8 -35q0 -8 -2 -25.5t-2 -25.5q0 -14 45 -129q39 -55 116 -160q8 -80 19 -113q18 -55 69.5 -86.5 t118.5 -31.5q35 0 68 10l16 4q72 33 117 90q10 4 16 8q27 14 86 33q39 8 131 55q41 31 76 58q12 14 19 28q27 -41 75 -41q12 0 23 4l-2 -2q-8 -23 -25 -63q-74 -106 -202 -180q80 16 155 59q-57 -143 -123 -221q-29 -33 -103.5 -79t-100.5 -79q178 78 204 94q33 29 68 56 l-35 -117q-4 -10 -33 -43q-74 -51 -190 -145q178 72 246 155q27 31 110 217q10 -33 10 -57q0 -45 -34 -104q53 59 118 135q35 37 58 112q41 -72 98 -129q-53 100 -70 203q134 196 134 438q0 254 -150 459q0 6 -6 26.5t-4 30.5q14 -6 16 -4q6 4 6 27q2 25 -20 63 q-37 47 -37 52q4 0 10 -4q6 0 13 10v8q-57 68 -146 92q-47 14 -39 23q6 -4 10 6q2 6 -16 18q-4 2 -10 2q-12 0 -32.5 -8t-29.5 -8q-14 0 -26 14q-14 0 -33 19q-27 6 -33 24q-23 27 -82 47l-8 -4q12 -16 37 -43q-8 4 -27 21q-39 12 -86 37q-14 -4 -39 6q-16 2 -86 0 q-4 -2 -8 -13q6 -2 4 -4h-20q-27 0 -96 -24q-23 -2 -47 -17q2 6 2 -14q-41 -33 -86 -43q-25 -12 -62 -51q-4 -10 21 -19q-23 -6 -60 -36l-10 -19q-94 -55 -166 -133q-23 6 -41 8h-12q-14 -2 -31 -2h-16q-8 0 -25 2h-33q-23 -6 -59 -6q-10 0 -64 -4q-10 -2 -16 -2q-6 2 -8 2 q-6 0 -23 -14q-6 -14 -6 -25q0 -8 4 -12q-4 -8 -4 -17v-16q4 -6 4 -12q0 -4 -4 -15l4 -4q-4 -4 -4 -8v-6zM23 1188q-2 27 0 37q-2 20 10 69v13q33 0 51 10q4 2 14 0h13q2 -2 2 -4q0 -4 -2 -6h-7q-6 2 -16 -13q0 -8 -3 -24.5t-3 -24.5v-39q-6 -4 -8 -8q12 -10 12 -41v-6 q0 10 8 -41q4 -8 6 -25l2 -18q2 -4 13 -49q2 8 10 20l10 -6l8 4q2 2 4 2q4 0 7.5 -2t7.5 -4q0 -6 -4 -10h-6q-8 0 -17 8q-4 -4 -6 -12l2 -12q0 -4 4 -7h10q35 -2 84 13v8q0 8 -2 24.5t-2 24.5v8q2 2 2 8v13q2 4 9 6q14 0 34 12q0 8 -4 19q-6 2 -10 2t-10 -2q-6 2 -21 0 q-14 -2 -20 -2q-8 0 -15 4l-2 -2h-6l-1 -5q-1 -4 -7 -4l-10 9h-12q-6 0 -9 -5q0 -2 2 -4q0 -4 -2 -6q-8 8 -28 37q2 -4 16 31q6 14 8 18l-10 -8q0 2 -2 2q-2 -2 -8 -2q-8 0 -4 14l6 7q8 4 8 8l2 2q4 -16 12 -15q0 29 7 37l14 2q-2 -10 -8 -28v-13h6q4 2 8 9.5t16 19.5 q0 -4 -2 -12t5.5 -11.5t9.5 -9.5q0 -4 -2 -4q-20 -4 -21 -12l6 -10l13 -23q4 -6 10 -6l6 6q4 4 8 2v-10q-4 0 -6 -2q2 -4 10 -2h15q2 0 6 2h43q6 0 20.5 -2t22.5 -2h6q2 4 4 12v6l-2 4q-2 6 -1 10.5t1 6.5q0 10 -4 35q-4 2 -10 2q-4 0 -15 -2q-8 -4 -16 0v-5q-2 -4 -2 -8 q6 -31 2 -35h-4q-2 12 -13 33q-6 0 -18 -6l-4 2q-2 0 -4 -2q0 -25 -6 -33q-8 2 -8 19v26q-4 2 -9 9q2 6 23 10q6 0 20 6h2q4 -2 9 -4l6 6q6 0 14 -6h29q2 6 2 10t-2 10v17l-2 2q2 12 -4 33q-2 2 -9 4h-10q-14 2 -55 -2q-10 2 -27 2q-16 0 -37 -2h-8q-4 0 -10 2 q-18 2 -41 -15l-2 -8q0 -8 20 -8q2 2 7 6l14 -4q6 -2 20 -4q0 -4 -6 -6h-33q-27 0 -43 -62v-8q-2 -6 -2 -8q0 -6 2 -8q-2 -6 0 -6h-2q-4 0 -4 4l-2 12q0 8 13 74q6 8 6 26q0 10 -2 23l2 2h20l21 -2q16 0 37 6q10 -2 51 -2h57q2 0 8 -2t8 -2t5 2q8 0 16 -4q2 -6 10 -13v-38 q0 -23 2 -39q0 -27 -4 -103q-2 -10 -2 -18v-12q0 -6 -4 -13q4 -25 -2 -71q-4 -10 -19 -21q-16 0 -47.5 3t-48.5 3h-16q-12 -4 -33 -4q-27 2 -33 0q-10 0 -22 4q-6 -2 -21 2q-4 0 -20 2q-8 0 -20.5 -3t-18.5 -3q0 6 -2 27q0 6 2 10h2l4 -4q8 -27 16 -27q2 4 9 9v14q2 8 2 14 l-11 47q0 2 2 4l-2 2q2 0 7 -2q10 -45 10 -71q2 -4 6 -8q8 4 12 12q-2 23 -10 78q-4 16 -6 30q-2 4 -6 19l-2 20q-2 8 -2 25v74q0 14 2 26q-6 10 -11 10q-6 0 -24 -10q0 -4 -2 -14v-17q0 -6 2 -14q0 -6 -2 -24v-27l2 -25q0 -4 2 -16q0 -8 -4 -14q0 -10 10 -68l2 -14 q0 -6 -8 -13q-2 2 -4 9q0 47 -8 77q0 10 -2 30t-2 30zM45 1212v23q0 6 4 18q2 -2 2 -6v-6q4 -14 6 -51q4 -6 4 -10q0 -12 -6 -13q-4 4 -6 9q-2 -10 -2 0q-2 11 -2 36zM117 1081q0 6 4 13q4 -4 8 -21v-14q0 -4 -4 -4q-4 2 -6 4v12q-2 8 -2 10zM131 1159h8q4 -2 6 -2q4 2 5 8 v13q-3 6 -3 10q0 2 -2 0l-2 -12q-4 -8 -12 -17zM141 1106q0 6 2 6q0 -10 7 -14q10 0 26 4q4 -6 4 -12q0 -5 -4 -11q-8 4 -16 6h-10q-4 0 -9 21zM166 1171q0 -6 6 -14q4 -4 8 4l-2 10q-4 7 -10 7q-2 -2 -2 -7zM178 1022q-2 8 2 12q10 0 10 -10q-2 -2 -8 -4q-4 0 -4 2z M193 328l2 -2v2h-2zM193 358q0 -6 2 -10v-20q2 -23 12 -43q2 -2 8 -17l23 -20q4 -6 8 -8l8 -4q8 -12 18 -15l-2 -6q6 -20 21 -27l10 -4l-18 15l18 -17h2l4 -4h-2l-2 4q4 -12 12 -20l15 -8q6 -2 18 -11v-2q12 -18 31 -24h2q4 -8 10 -13l2 -4l8 -4q12 -6 25 -14l16 -12 q8 -4 23 -13l22 -4v-2l23 -18q2 -2 8 -2v-2h2l23 -11h-4l6 -4l35 -4q8 0 18 6q4 -6 16 -20q2 -2 9 -8l30 -13q6 -2 31 5q10 -12 27 -15q-4 0 -15 4l25 -6q-12 2 -16 4l4 -2q12 -2 24 -6l-8 4h27l4 -4l6 -4l22 -2h4l23 2q6 2 8 4q6 -4 15 -6l20 -4h27l4 2h4q8 -2 22 -2h2l9 2 l34 16l7 6l10 17l2 10q0 6 2 16l-2 17q-2 0 -2 4l-6 12l-2 4q4 10 4 21q0 33 -33 49h-4l-12 2l-11 4q-6 0 -14 -2h-6q-10 16 -33 16q-6 0 -14 -2l-4 -2q-4 0 -11 -2l-6 -10h-12q-6 4 -16 4l-17 -2h-4q-14 8 -31 8h-16l-12 6q-2 0 -4 2l-11 7q8 6 9 18q-2 47 -56 59l-6 2 l-29 5l-2 2h-4l-10 8q-14 4 -25 4q-16 0 -30 -14l-2 2q-4 2 -11 4h-8q-6 4 -8 0l-12 -2l-2 2l-10 8q-12 4 -19 6q-10 20 -31 29l-2 2l-2 6l-4 2v2l-8 8l2 4q14 18 14 35v2l-4 19v6l-6 8v4l-10 20l-10 9v2q-14 10 -43 37q-4 2 -13 2l-6 2h4q-18 6 -30 6q-4 -2 -7 -2 q-41 8 -77 -23l-7 -6q10 6 27 8l-31 -8q-2 0 -8 -6l-8 -12l-6 -6l-4 -15v2q-6 -6 -6 -16v-2q6 8 14 24l-18 -28v-13zM205 1071q0 8 2 12q2 0 4 -6q0 -6 -2 -8q-2 0 -4 2zM209 1206q0 4 2 8q2 -2 2 -4q-2 -2 -2 -4h-2zM215 1229v8q0 8 8 37q6 12 33 18q12 0 16 -4 q14 -2 43 -2q2 -2 2 -4q0 -4 -2 -8l4 -8q0 -12 -6 -19l-10 -2q-61 0 -88 -16zM229 334q-2 2 4 14q-6 4 -4 17q2 4 4 6l3 2l6 10q2 8 10 16l2 4l6 5q33 20 57 14l5 2q18 0 22 -6h6q10 -8 25 -15l4 -4l18 -26l2 -8q4 -14 4 -21q0 -10 -22 -27h-10q-4 2 -6 7q2 2 2 6v2q2 0 2 2 q6 12 8 14q0 10 -6 27q-8 6 -25 22l-18 6h-21q-2 -4 -8 -6v-2q-14 -8 -29 -24q0 -4 -7 -24.5t-7 -27.5q0 -8 18 -24q2 -6 9 -6q16 0 32 22q-4 10 -10 23q-4 10 4 12q6 0 45 -47q0 -4 -4 -10h-14l-17 -10q-12 -9 -32 -25l-4 10q-8 2 -21 8l-10 13q-2 2 -8 10q-6 18 -15 39z M236 379q0 2 2 4q-2 -2 -2 -4zM238 1260l4 -3h28q18 -2 31 3l2 6q-2 2 -4 2l-8 -2q-6 0 -6 6l6 2q-18 2 -15 2q-6 0 -18 -6h-14q-4 0 -6 -4q2 -2 2 -4h-2v-2zM240 1016l2 -4h2q2 12 4 16t2 2q2 -4 3 -9t3 -11q6 0 16 8l9 -8h4q2 0 2 -2q14 0 18 8q2 10 -6 10l-12 -8 q0 2 -2 4q8 0 6 12q10 -2 16 6v17q8 0 8 -8q0 -2 -5 -11.5t-3 -11.5q2 -6 10 -16h5q2 10 8 26q0 4 2 13.5t2 15.5v6q-2 9 -4 19q-12 10 -25 10q-2 0 -10 -2t-12 -2q-10 4 -15 4q-8 -6 -15 -11.5t-7 -11.5q-6 -18 -6 -61zM256 1040v2q0 4 2 5q4 -2 10 -9l4 2l-4 -8l2 -2 q-4 -4 -12 2l2 6q0 2 -2 2h-2zM258 233l10 -2q-4 0 -10 2zM258 1065q-2 4 2 12q6 0 12 -6q-4 -4 -14 -6zM270 219zM274 373h2l5 2q-2 -2 -7 -2zM274 1065zM287 1034v4q2 0 4 -2q-2 -2 -4 -2zM289 1053v4q4 2 10 6q0 4 4 8q2 -2 2 -4q-2 -4 -2 -8q-10 -6 -14 -6zM291 1071 q0 4 2 6v-6h-2zM293 184q6 0 10 -2zM297 193v2q2 -3 2 -5zM303 1128q0 -18 25 -18q2 6 4 18q-4 4 -8 2h-19zM305 229q0 6 12 25q4 0 7 2q6 0 12 -2q2 2 10 2l4 -2h27q2 4 2 10t-4 8h-13q-2 -2 -14 4q-2 6 6 11q2 2 8 2q2 -2 5 -2q4 2 24 2q10 -4 12 -17l5 -4q0 -10 -25 -39 l-2 -4q-6 -4 -21 -22l-4 -8q8 -7 4 -9q-4 0 -8 -2q0 -2 -2 0q-4 2 -18 23q-4 2 -13 8l-6 4q-6 2 -8 10zM307 176zM307 1292q0 4 2 6q4 -2 6 -4q-2 -2 -6 -4zM309 1077q-2 4 4 4q2 -4 0 -4h-4zM313 459zM317 459zM332 233q0 -10 8 -14q10 -2 22 17q0 4 -2 4l-8 2h-8 q-10 6 -12 -9zM371 174q0 4 6 12v4q6 8 18 27q4 4 13 14l4 5q2 4 0 6q-2 6 -4 6v2q4 6 8 6q10 -4 22 -16q2 -2 0 -9q-20 -16 -39 -47q-2 -2 -2 -8q0 -14 17 -14q25 0 37 41v4q-4 2 -5 4q0 10 13 10q14 -4 26 -14q-2 -2 -10 -14l-24 -33q-7 -7 -17 -23q0 -2 3 -7t3 -7 q-2 -4 -6 -6q-6 4 -20 14q-2 6 -2 8q0 4 2 6q-4 0 -13 9h-14q-6 4 -16 20zM391 117zM399 113zM403 426zM418 406l4 -3q-2 3 -4 3zM418 1049q8 8 12 8q-4 -4 -4 -17q20 -37 37 -32l12 -33q0 -20 -31 -51q-4 0 -12 6q-18 76 -14 119zM444 254zM449 117q2 6 22 30q2 2 4 7v2 q4 4 6 16q2 0 0 2q4 4 6 8v11l-6 10q4 6 6 6q2 -2 6.5 -3t8.5 -3q4 0 7 1l9 3q8 -8 8 -6q-2 -2 -4 -8q2 -4 4 -7l13 -8q0 -6 -4 -10q-6 0 -11 2l-18 -6l-4 -4l-23 -43q2 -4 17 -19q0 -4 -11 -8q-10 0 -16 6q-14 10 -20 21zM457 258zM479 846q2 25 33 100q6 8 8 15 q0 -6 6 -15q18 -10 37 -10q8 0 19 4q16 0 61 -39l14 -10q12 -12 25 -10q8 4 8 10q0 8 -39 35q0 2 -3 3t-3 3q33 -2 51 -19h9q2 8 -9 29q-4 -4 15 -4q33 -31 30 -49l2 -6q76 0 82 -2q-6 0 17 10q12 -20 24 -14q6 6 6 12t-16 17.5t-18 15.5q-20 20 -146 131q4 2 14.5 -7.5 t14.5 -10.5t117 -95l59 -59q4 0 6 4q-2 10 -55 63q-14 10 -131 117q14 6 51 -25q78 -66 164 -155q31 -39 49 -51q8 -4 14 8q2 10 -16 28.5t-21 22.5q-6 0 56 -16q2 4 10 12q31 -10 90 -31q23 -12 35 -12q16 0 29 12q4 -4 14 -16q4 -4 16 -11q37 0 54 27q0 16 -13 21 q8 -2 -26 -9q-6 0 -19 -4q-10 -2 -18 0l6 27q-8 16 -21 12q-16 -27 -34 -20q-10 12 -13 10q-12 0 -33.5 20.5t-29.5 22.5q-35 27 -100 84q0 4 6 8q16 -4 45 -29l43 -38q6 -4 12 2q-23 23 -59 61q12 0 26 12q0 -2 13 -16l67 -70l35 -43q8 -2 12 4q-4 10 -16 33q-25 23 -70 66 q-6 27 23 41l32 10q20 0 46 -31q4 0 20 -25.5t27 -23.5q6 8 4 21q-14 14 -15 34q0 10 3.5 27.5t3.5 28.5q0 20 -21 24q-4 6 -64.5 5t-66.5 3q-51 -23 -76 -41q-8 -12 -28.5 -23t-26.5 -15q-10 10 -41 18q0 -27 68 -66q6 -10 26 -28l-26 12q-14 16 -50 39q-18 20 -61 43 q-2 -10 22 -33q37 -27 101 -88l2 -4q-14 -2 -27 8l-22 25l-125 104q-4 0 -18.5 11.5t-24.5 11.5q0 -10 18 -33q84 -51 158 -131q-2 -6 -8 -6q-10 0 -88 65q-41 37 -97 82q-6 10 -45 18.5t-45 14.5q-20 10 -26 10q-4 -2 -17 -2q-14 0 -41 2q-10 -8 -34 -26q-2 -6 -14.5 -15.5 t-12.5 -11.5q0 -8 8 -18q25 -16 72 -58v-2h2q-8 -4 -25.5 3t-25.5 3q2 -6 4 -16q-8 0 -23 -6q0 -10 -14 69q0 25 39 220q14 33 26 67q29 55 68 90l10 4l21 4l22 -2l21 -10l24 4l23 -4l12 -20h29l26 -39l-6 4l10 -25l-10 -22l2 -25l11 10l8 17l16 10l14 12l15 23l18 10l23 10 l20 6l27 -8l20 8h21l22 3l23 6l24 -6l23 10l22 -13h35q20 -10 39 -24v-2l19 -14l10 -17l18 -14l6 -6q45 -55 46 -125h2q6 -6 2 -21q0 2 -4 4q0 -8 -7 -30q10 4 37 -21h-6l-20 8q-10 -10 -11 -18q0 -6 18.5 -20.5t18.5 -20.5h-16q-10 -8 -10 -14q0 -10 14 -21.5t29 -21.5 q-4 4 -11 4q-23 0 -22 -21q0 -8 18.5 -22.5t18.5 -22.5q-6 8 -11 8q-6 0 -14 -10q-2 -4 25 -31q10 -18 35 -30q8 2 8 10q0 4 -4 8q8 -2 18 -2q10 2 10 25q-4 -2 13 -2q18 8 41 8q20 0 49 -12q41 -29 49 -89q4 -37 -12 -75q-14 4 -27 4q-16 0 -25 -31q0 -20 21 -22 q-2 0 -2 -3q-23 16 -49 17q-12 0 -27 -31v-8q-22 22 -55 22q-25 0 -25 -26v-4q-2 -14 8 -19q-6 0 -26.5 19.5t-30.5 17.5q-4 0 -16 -20q-8 -98 -136 -164q-23 -16 -129 -51q-4 -8 -20 -11q8 61 12 107q12 2 47 51q0 2 4 53q2 27 -16 41q-29 -6 -82 -2q-37 16 -90 88 q-27 12 -31 9q-25 -25 -55 -25q-16 0 -35 8q-4 2 -29.5 18.5t-37.5 12.5l-50 -39q-33 -10 -53 -10q-18 0 -24 8q-14 4 -31 -21q-2 -8 2 -22l4 -33q-6 0 -14 21q8 10 -17 49q-2 2 -16 -2q-4 -6 -4 -17q0 -8 10 -27.5t11 -28.5t16 -21q6 -2 16 18q8 -16 27 -41q-2 -39 0 -88 q-23 59 -41 80q-12 14 -51 78q-18 121 -15 137zM489 252l3 -2zM510 1290zM516 31zM518 74q-8 6 14 10q8 20 31 51v8q4 4 12 27q0 6 7 20q-6 8 -11 17q0 4 2 4l37 -10q2 -2 8 0q16 0 41 -15q8 -8 9 -16q0 -4 -4 -6l-2 -6q-2 -4 -9 -4h-2q-2 6 -8 18v-2q-2 -4 -4 -6l4 8l-10 4 q-10 6 -15 10l-26 -34q8 -25 29 -25q8 2 10 2q4 -2 2 -6v-6q-5 -9 -17 -27l-12 19q-6 6 -12 8l-2 -2q-2 2 -10 -2q-6 -14 -15 -39q4 -10 10 -23v-2l-4 -4q8 2 -20 8q-10 4 -33 21zM537 1059l2 6q10 8 24 8l53 -24q35 -29 105 -86q12 -14 47 -31l4 8l-45 47q-20 14 -57 49 q4 0 10 -4q51 -35 139 -123q-10 0 -26 4q-16 2 -25 0l-20 19q-43 31 -68 57q-31 20 -88 66q-4 0 -12 10l-11 4q-4 -2 -6 -4q0 -4 2 -10q20 -16 58 -54q8 0 39 -28q-25 0 -125 86zM545 14zM580 690q0 20 2 23l4 4v-4q-4 -8 -6 -23zM602 541q0 55 21 121q8 -14 24 -60 q35 -57 92 -70q35 -16 64 -16q20 0 35 8q35 10 94 64q10 4 20 10q23 -70 23 -115q2 -8 2 -14q0 -22 -29 -47q-29 -12 -84 -33q-6 2 -22 -2q-23 20 -23 78q16 12 12 27q-10 10 -40 8q-37 -2 -48 2q-45 23 -36 22q-16 0 -17 -16q0 -10 19 -25q-8 -57 -25 -57q-6 0 -14 12 q-68 8 -68 103zM614 -4q2 0 4 -2q-2 2 -4 2zM621 59q-4 23 18 47l25 11h16q4 0 12 -4l6 -7q16 -16 19 -22v-14q0 -12 -8 -35q-4 0 -4 -4q-25 -18 -41 -19q-33 8 -37 37q-4 2 -6 10zM631 1065q6 -6 37 -27q-14 9 -37 27zM643 172zM645 66q0 -10 12 -25l7 -10q31 -8 30 22v4 q2 2 2 4v15q-2 6 -12 16q-4 2 -10 6q-10 2 -20.5 -10t-8.5 -22zM670 649q23 -4 41 -14q96 -20 137 -12q14 -8 37 -5q12 4 35 9v-2q-2 -8 -5 -7q-18 -37 -104 -36q-53 0 -113 28q-14 12 -28 39zM698 1556q-1 11 9 25q27 23 36 23l-6 -9q-8 -8 -8 -12q0 -14 14 -14 q37 18 88 39l-14 -4q-8 -4 -16 -17q0 -4 4 -10q20 8 98 20q-6 0 -16 -10l-60 -20q-8 -10 -4 -23q18 -4 70 25q6 0 18 -10q10 0 29 -15q-31 -10 -41 -31q4 -8 12 -8q6 0 19.5 7.5t17.5 7.5q-23 -18 -33 -41q-31 -6 -53 -70l-4 -2q0 10 6 35q4 25 -12 31q-6 2 -25 -13 q0 6 4 23q-4 14 -14 18q-12 -4 -18 -20.5t-13 -20.5q0 18 -2 53q-4 8 -24 7q2 2 0 2q4 8 2 16q-4 6 -8 6t-14.5 -7t-14.5 -7q4 10 2 29q-2 6 -29 -3zM713 10q14 6 14 19h2v18q0 6 4 23q4 20 -10 20l-2 2v2q4 2 10 4h10q10 0 15 -2l8 -4l8 2h4q8 2 12 2q2 -2 5 -2l8 -4l4 -6 q2 -6 4 -16v-17q0 -2 -2 -4v-2q-2 -6 -4 -14q-2 -10 0 -19q2 -8 2 -12q-2 -2 -2 -4l-4 -8h-4q-2 2 -7 2h-8q-10 0 -10 10q0 4 3 6t3 4q12 16 10 37q0 4 2 10q0 16 -12 21l-12 -2h-2l-6 -6q-8 -37 -8 -58l4 -10q-4 -10 -13 -6q-6 2 -24 6q-4 2 -2 8zM754 127l8 2h-2z M764 1645q4 4 16 4v-7q-12 0 -16 3zM772 129zM786 -47l5 2q-3 -2 -5 -2zM793 1645q2 4 12 2zM811 1647q2 2 8 2q-6 -2 -8 -2zM819 127zM821 84q-2 6 0 8h6q43 14 27 14h4q0 -14 8 -14h17q4 -2 4 -8v-2q10 10 18 10q6 0 10 -4h7q8 -4 10 -10q2 -4 0 -10q-2 -2 -6 -2h-8 q-12 12 -17 12l-2 -2q0 -4 2 -8q12 -6 35 -48q2 -4 4 -6q0 -8 -14 -20l-4 -4q-4 -2 -17 -4q-4 0 -18 2q-2 0 -4 2q-2 -4 -13 -4q-4 -2 -8 0q-16 0 -26 10v8q0 10 2 27q2 4 2 6l-4 24v7q-4 6 -15 16zM840 1649h8q14 2 18 2q4 -2 13 -9q-6 0 -16.5 3.5t-14.5 3.5q-2 -2 -8 0z M852 -51zM856 43l2 -8q0 -6 4 -25q0 -6 8 -8l4 2h7q0 4 2 6q4 2 14 -4l8 -6q6 0 13 6q0 12 -17 24.5t-27 32.5q0 6 9 15q-4 0 -17 -8q-2 -2 -10 -17v-10zM909 129q2 0 4 -2q-2 2 -4 2zM920 1669h24q25 -4 70 -27q-4 2 -49 17q-16 0 -45 10zM973 -10v-2q0 4 2 6zM1022 657 q2 2 4 2q14 0 14 -12q0 -20 -14 -59q0 -4 -2 -6q2 57 -2 75zM1069 958q6 -14 21 -36q41 -23 45 -23l-5 19q-16 14 -55 43q-2 0 -6 -3zM1100 561q2 -16 4 -16q29 18 49 125q3 29 -20 41q-29 16 -31 -6q8 -31 8 -56q0 -18 -6 -33q4 -10 4 -22q0 -18 -8 -33zM1153 969 q8 -25 27 -37q6 -2 12 8q0 19 -29 33q-10 -2 -10 -4zM1229 1376q4 2 18.5 -4t18.5 -6q10 0 12 12q-8 16 -43 25q12 0 29 16q2 8 18 11q47 -18 53 -19q8 0 17 2q4 10 -9 19q-18 8 -57 18q-10 8 -16 8q33 0 98 -12q4 4 4 10q-6 4 -16 14l-15 7q29 -6 78 -33q4 -4 11 -4 q6 0 10 6q8 12 -6 20l-4 9q6 2 36 -21l11 -22q-14 2 -21 2q-6 0 -8 -2q4 -8 4 -29q-6 0 -16.5 6t-12.5 6q-6 0 -10 -6q0 -8 4 -14l-2 -2l2 -4q-20 4 -24 -7q4 -8 4 -20q0 -14 -4 -31q-20 35 -33 35q-8 -2 -10 -16q2 -20 2 -25q-14 14 -25 12q-14 -10 -8 -32l6 -33v2 q-23 39 -27 41q-16 20 -34 22q-8 23 -35 39zM1296 1176q2 -2 7 -9q2 10 0 17q-7 4 -7 -8zM1313 893q0 -25 41 -47q12 0 12 12q2 8 -39 41q-8 0 -14 -6zM1321 596l6 14l6 -14h2q8 -20 41 -33h8q47 0 52 51q0 55 -52 56h-2q-2 2 -2 6t4 6q59 0 66 -68q0 -65 -66 -65 q-45 0 -63 47zM1346 610q4 2 6 2q14 -10 32 -10q2 -10 9 -18q-6 -2 -9 -2q-20 0 -30 18zM1368 766q4 -37 35 -41q25 0 29 2q31 6 30 47v10q-2 4 -2 7q-18 20 -8 51q4 10 23 8q14 -10 18 -47t6 -39q18 -4 29 18q12 23 -10 72q-33 43 -72 35q-23 -18 -32 -52t-11 -36 q-4 -6 -17 -6q-16 -18 -18 -29zM1380 647q2 2 4 2t7 -2h-11zM1401 610l14 2q0 -2 2 -2q-2 -10 -6 -16q-6 8 -10 16zM1454 565q4 4 8 13h4q51 0 52 53q0 51 -52 51h-2q-2 4 -2 8t4 6q66 0 66 -65q0 -68 -66 -68q-6 0 -12 2zM1462 653h8q8 -20 27 -28q0 -8 -4 -13 q-15 6 -31 41zM1501 1049q6 10 15 36q8 23 -3 41q6 6 9.5 45t11.5 50l4 4q137 -201 137 -443q0 -227 -121 -420q-2 3 -2 5v4q20 94 13 225q43 27 43 76q0 31 -19 53q12 16 21 74q0 33 -15 94q-25 47 -73 61q-16 6 -15 23l6 29q0 8 -6 21t-6 22zM1509 1329q11 -16 13 -20 q-10 10 -13 20zM1518 735l4 4q68 0 67 -67q0 -31 -26 -54q-6 -4 -11 -6v17q8 4 21 24q0 4 2 9v10q0 53 -53 53q-6 2 -4 10zM1552 686q4 -8 4 -14z" />
<glyph unicode="&#xad;" d="M0 788l57 -137l84 -90l119 -18l168 -15l174 2l137 5l140 45l88 88l22 120l-43 138l-86 86l-121 24l-166 11l-176 -11l-137 -2l-135 -43l-84 -86z" />
<glyph unicode="&#xae;" horiz-adv-x="1540" d="M-39 829q0 -395 200.5 -631.5t538.5 -236.5q336 0 538 236.5t202 631.5q0 397 -202 634t-538 237q-338 0 -538.5 -236.5t-200.5 -634.5zM215 829q0 209 74 363q121 254 411 254q291 0 412 -254q74 -154 74 -363q0 -207 -74 -360q-121 -254 -412 -254t-411 254 q-74 154 -74 360zM354 932q4 -158 8 -318q0 -63 -2 -129q2 -66 28 -119t101 -53q74 0 109 60q16 47 18 106q4 37 0 109q-4 78 -2 114q14 8 45 9q41 0 50 2l6 -8l39 -140q18 -66 37 -133q27 -74 79 -106q23 -12 48 -13q39 0 86 28t47 79q0 31 -39 164q-27 88 -51 174 q-6 18 14 37q29 27 31 30q68 70 67 189q0 57 -16 112q-20 74 -87 131.5t-143 65.5q-131 2 -391 6l-30 -8q-33 -16 -52 -70q-4 -131 0 -319zM625 952q10 53 2 144q6 6 27.5 2t31.5 2l68 -2q27 -2 53.5 -7.5t36.5 -27.5q19 -51 -8 -90l-27 -23q-29 -4 -82 0q-49 2 -80 -2z" />
<glyph unicode="&#xaf;" horiz-adv-x="923" d="M0 1825q0 -88 62.5 -150.5t148.5 -62.5h444q88 0 149.5 62.5t61.5 150.5q0 86 -61.5 148.5t-149.5 62.5h-444q-86 0 -148.5 -62.5t-62.5 -148.5z" />
<glyph unicode="&#xb0;" horiz-adv-x="882" d="M-18 995q0 -76 18 -131q31 -100 112 -163.5t187 -71.5q207 -16 338 104q80 74 98 219q8 125 15.5 250t7.5 150q0 150 -76 235q-43 49 -176 133q-90 25 -162 25q-125 0 -220 -80t-114 -203q-8 -59 -6 -157q0 -51 -11 -156t-11 -154zM281 1024q0 27 5 81t5 81q-2 20 4 61 l-4 4q6 61 12 125q16 70 76 84q47 -10 65 -61q8 -41 5 -109q-8 -106 -9 -110q0 -76 -12 -187q-16 -59 -86 -78q-43 8 -52 37t-9 72z" />
<glyph unicode="&#xb1;" horiz-adv-x="1443" d="M0 61q25 -61 150 -63q123 2 411 0l2 -6q-8 -14 43 -15q57 0 180 21q139 6 289 -4q27 2 58 0q33 -4 38 -4q35 0 80 22q43 47 39 117q10 20 2 25q8 6 11.5 -4.5t3.5 -26.5q2 -8 2 -2q8 14 6 35q-4 29 -2 37q-3 -3 -19 -3q2 96 -37 134q-63 18 -132.5 19t-137.5 1 q-51 4 -237 4q-178 -2 -183 -4q-135 -6 -446 4q-102 -25 -119 -131q-8 -61 -2 -156zM49 862q20 -66 53 -69q39 -4 109 0q80 4 98.5 4t18.5 4q-2 0 -4 2q2 2 16 2q14 4 41 -4q18 8 54 5t52 5q8 -37 23 -162q-2 -66 14 -186q0 -2 6 -8q4 -4 0 -9h-6q39 -41 70 -36q16 8 51 5 t47 5q35 4 105 0q78 27 100 78q10 59 10 106q0 29 -7 94.5t-9 120.5q18 25 92 10q63 10 127 13q90 2 125 4q51 14 82 119q-2 76 -2 149q-6 92 -62 127q-63 8 -120 8q-37 0 -117 -6t-142 -6l-6 25q-14 154 -20 327q-14 53 -78 64q-53 2 -106 6q-20 -6 -89 -2q-55 4 -86 -17 q-29 -10 -34 -47q-4 -27 -11 -55q20 -115 25 -321q-86 -12 -305 -23q-88 -4 -113 -68q0 -90 -2 -264z" />
<glyph unicode="&#xb2;" horiz-adv-x="698" d="M-43 1329q16 -33 57 -33q12 0 47 4q29 4 45 3q12 8 23 16q18 41 37 82q27 47 67 57q53 6 80 -24.5t27 -69.5q0 -14 -4 -29q-41 -100 -223 -360q-6 -14 -66 -84q-43 -49 -43 -92q0 -16 6 -35q8 -29 58 -39q168 6 503 23q11 2 25 16q37 23 25 90q-2 16 0 47q-8 39 -56 43 q-66 -4 -192 -14q-27 2 -33 14q4 8 6 27q33 35 82 112q47 66 96 170q4 10 8 29q14 25 17 64q8 14 8 40v46q-4 8 -4 30q-8 18 -27 54q-84 121 -254 120q-80 0 -147 -32q-78 -39 -125 -114t-43 -161z" />
<glyph unicode="&#xb3;" horiz-adv-x="710" d="M-8 997q0 -57 49 -129q55 -80 168 -125q2 4 7 -1t9 1q66 -10 101 -8q178 10 258 172q29 41 28 101q0 45 -37 182q-6 20 11 47q25 35 26 41q31 57 31 129q0 82 -41 135q-94 147 -272 148q-57 0 -113 -21q-76 -27 -131 -82q-63 -63 -70 -137q6 -25 21 -33q29 -8 80 -10 q61 -2 80 -4q20 6 55 43q33 31 57 35q66 10 94 -27q35 -47 9 -96q-16 -31 -54.5 -38t-70 -15.5t-35.5 -42t-8 -66.5q0 -33 35 -47q29 -10 57 -21q49 -27 49 -100q0 -47 -37 -78q-49 -29 -88 -14q-39 16 -57 68q-25 45 -97 47q-29 4 -55 10q-33 2 -51 -19q-8 -20 -8 -45z" />
<glyph unicode="&#xb4;" horiz-adv-x="528" d="M0 1739l18 -49l35 -37l51 -21l52 -2l49 21l246 258l28 63v70l-24 65l-47 47l-66 29l-70 2l-63 -24l-49 -47l-160 -322v-53z" />
<glyph unicode="&#xb5;" horiz-adv-x="1118" d="M0 1085q43 -1032 45 -1491q2 -20 7 -42.5t24 -30.5q39 -16 92 -17q25 0 63 4q47 4 66 5l109 6q59 18 59 92q0 14 -4 53t-2 57q-10 66 -8 160v160q6 6 14 6t24.5 -8t22.5 -10q18 6 32.5 -14.5t22.5 -20.5q10 0 23 12q2 -20 31 -12q10 8 26 8q25 -2 31 -2v-47v-49 q4 -20 9 -42t24 -30q41 -20 96 -20q6 0 123 12l26 4q57 18 58 92q0 16 -4 57q-2 36 -2 54q-4 201 -13 504q-4 86 -2 290q4 197 -4 305q-25 37 -88 37q-18 0 -56 -4t-54 -4q-18 0 -31 4q-41 6 -152 -28q-20 -23 -20 -60q0 -12 3 -39.5t3 -40.5q0 -14 -2 -26q6 -289 12 -643 q-27 -55 -55 -56q-4 4 -12 15q-6 -12 -37 -4q-14 4 -18.5 25.5t-14.5 19.5l4 4q-4 0 -12 8q0 10 4 12q-10 6 -12 37q-8 66 -5 178q0 12 -4 33q-4 33 -4 92q4 29 -2 86q-10 72 -10 94q-2 164 -29 265q-20 25 -61 24q-12 0 -36 -3t-36 -3q-25 0 -41 10q-6 -2 -88 -12 q-59 -6 -94 -33q-35 2 -41 -33zM446 565q4 -2 9 -2q-7 2 -9 2z" />
<glyph unicode="&#xb6;" horiz-adv-x="1357" d="M-88 1083q0 -184 127 -329q88 -100 158 -123q43 -16 196 -23l6 -12q-8 -371 -22 -860q14 -70 20 -90q18 -47 56 -74q57 -37 98 -37q39 0 102.5 36t91.5 155q8 72 19 481q4 203 8 405l72 -4l6 -12q-8 -371 -23 -860q14 -70 23 -90q16 -47 53 -74q57 -37 101 -37 q37 0 104 33q59 39 88 158q8 61 27 782q18 762 26 876q8 119 -86 164q-94 8 -493.5 14.5t-438.5 2.5q-113 -16 -186 -105q-55 -70 -104 -205q-29 -84 -29 -172zM242 1071q0 43 22 117q29 57 60 57q6 0 24.5 -2t30.5 -2h29q14 -2 18 -16q0 -86 -16 -262l-9 -9q-37 4 -73 7 q-25 2 -62 32q-25 29 -24 78zM778 961l13 282q14 -2 40 -2h27q16 -2 19 -16q1 -86 -15 -262l-10 -9q-27 4 -74 7z" />
<glyph unicode="&#xb7;" horiz-adv-x="530" d="M0 727q0 -78 54.5 -132t131.5 -54q78 0 132.5 54t54.5 132t-54.5 132t-132.5 54t-132 -54t-54 -132z" />
<glyph unicode="&#xb8;" horiz-adv-x="649" d="M-4 -420q0 -57 36 -103t92 -59.5t120 -13.5q141 0 235 74q119 94 119 262q0 238 -131 354q-107 94 -238 78q-66 -6 -107.5 -54t-41.5 -112q0 -70 48 -119t116 -51q14 -29 14 -92q-20 -2 -47 2q-33 4 -45 4q-72 0 -121 -49t-49 -121z" />
<glyph unicode="&#xb9;" horiz-adv-x="534" d="M72 1450q0 -18 26.5 -40t30.5 -36q16 -272 31 -626l2 -17q31 -37 123 -31q4 -4 4 -6l28 -2l-14 2v4q35 0 98 11q25 20 23 65q-4 106 -16 316q-4 59 -13 184q2 70 -10 199q2 2 4 2q0 31 -4 84q-2 29 -4 36q-4 20 -16 31q-2 8 -15 10q-18 2 -20 4q12 -2 -19 -2l-2 2l-78 -4 q-45 -6 -69 -26q-27 -47 -86 -142q-4 -10 -4 -18zM379 1518q2 4 4 4v-4h-4z" />
<glyph unicode="&#xba;" horiz-adv-x="901" d="M-2 1358q0 -57 31 -385q4 -49 47 -109q94 -102 282 -102q45 0 146 8q59 16 172 66q98 66 98 225q0 37 -6 82q-8 104 -16 207q-14 119 -56 194q-76 102 -241 103q-43 0 -117 -9q-80 -6 -111 -8q-6 10 -10 10q-2 0 -22 -20q-166 -57 -195 -190q-2 -35 -2 -72zM305 1401 q2 23 24.5 43t47.5 20q43 0 51 -39q2 -12 25 -245q0 -20 5 -66.5t5 -66.5q0 -74 -45 -105q-29 -4 -62 23q-25 37 -30 131z" />
<glyph unicode="&#xbb;" horiz-adv-x="1492" d="M-39 1153q0 -80 55 -135l285 -285l-246 -246q-57 -55 -57 -135q0 -78 56.5 -134t133.5 -56q80 0 136 55l381 381q55 57 55 135q0 80 -55 135l-418 418q-57 57 -135 57q-80 0 -135.5 -56t-55.5 -134zM645 1153q0 -80 57 -135l285 -285l-248 -246q-55 -55 -55 -135 q0 -78 56.5 -134t133.5 -56q80 0 136 55l381 381q55 57 55 135q0 80 -55 135l-420 418q-55 57 -135 57q-78 0 -134.5 -56t-56.5 -134z" />
<glyph unicode="&#xbc;" horiz-adv-x="1353" d="M104 1450q0 -18 27 -39.5t31 -36.5q16 -272 31 -626l2 -17q31 -37 122 -31q4 -4 5 -6l30 -2l-14 2v4q33 0 96 11l-315 -510l2 -21q59 -51 158 -100l28 2q6 12 25 26l809 1340q-39 25 -80 51q-29 18 -90 43q-27 0 -47 -35q-16 -27 -33 -53l-434 -707q2 12 0 29 q-4 106 -17 316q-2 59 -12 184q2 70 -10 199q2 2 4 2q0 31 -4 84q0 29 -2 36q-4 20 -17 31q-4 8 -18 10t-19 4q12 -2 -16 -2q-2 0 -2 2l-78 -4q-45 -6 -71 -26q-25 -47 -86 -142q-4 -10 -5 -18zM414 1518q0 4 4 4v-4h-4zM598 291q0 -53 47 -66l172 -8q39 2 119 -12 q6 -8 8 -37q2 -18 -4 -51q-8 -39 -8 -54q0 -37 35 -55q29 -4 86 -12q8 8 22 6l27 -2q29 0 53 39q4 53 19 160q-2 -2 34 -4q10 0 52 30q22 51 12 131q-14 25 -70 31q-14 8 -16 27q8 158 28 473l-6 18q-16 20 -47 25l-153 10q-25 -4 -43 -22q-109 -152 -336 -447 q-18 -25 -25 -90q2 -14 -2 -43q-4 -35 -4 -47zM834 408q-10 14 0 26q4 6 106 150q6 0 12 -4q8 -25 4 -56q2 -41 -14 -118q-12 -4 -108 2z" />
<glyph unicode="&#xbd;" horiz-adv-x="1310" d="M51 1450q0 -18 25.5 -39.5t32.5 -36.5q14 -270 28 -626l4 -17q29 -37 123 -31q4 -4 2 -6l31 -2l-14 2v4q33 0 96 11l-313 -510v-21q61 -51 157 -100l29 2q6 12 27 26l321 525q16 -31 66 -31h77q14 8 23 14q23 39 45 78q31 43 72 49q53 4 75 -32q41 -47 15 -99 q-49 -96 -254 -340q-4 -6 -76 -77q-47 -49 -47 -97q0 -12 4 -24q6 -31 53 -45q168 -8 502 -21q12 0 29 14q37 18 30 86q1 17 7 48q-6 39 -54 49h-192q-25 4 -31 18q-2 8 3 14.5t5 12.5q35 31 92 102q51 61 111 162q4 10 10 29q16 23 23 61q8 14 10 41q4 35 6 45h-2 q-2 8 0 31q-6 18 -22 53q-82 147 -273 148q-78 0 -149 -37l327 534v29q-39 25 -79 51q-29 18 -91 43q-27 0 -47 -35q-16 -27 -30 -53l-437 -707q2 12 2 29q-6 106 -18 316q-2 59 -10 184q2 70 -10 199l2 2q0 31 -2 84q-2 29 -5 36q-4 20 -16 31q-4 8 -18.5 10t-16.5 4 q12 -2 -18 -2l-2 2l-78 -4q-45 -6 -70 -26q-27 -47 -86 -142q-4 -10 -4 -18zM358 1518q2 4 4 4v-4h-4z" />
<glyph unicode="&#xbe;" horiz-adv-x="1366" d="M-8 997q0 -57 49 -129q55 -80 168 -125q2 4 7 -1t9 1q66 -10 101 -8q102 6 182 76l-377 -612l2 -21q59 -51 158 -100l28 2q6 12 25 26l809 1340q-39 25 -80 51q-29 18 -90 43q-27 0 -47 -35q-16 -27 -33 -53l-293 -477q2 16 2 33q0 41 -37 182q-6 20 11 47q25 35 26 41 q31 57 31 129q0 82 -41 135q-94 147 -272 148q-57 0 -113 -21q-76 -27 -131 -82q-63 -63 -70 -137q6 -25 21 -33q29 -8 80 -10q61 -2 80 -4q20 6 55 43q33 31 57 35q66 10 94 -27q35 -47 9 -96q-16 -31 -54.5 -38t-70 -15.5t-35.5 -42t-8 -66.5q0 -33 35 -47q29 -10 57 -21 q49 -27 49 -100q0 -47 -37 -78q-49 -29 -88 -14q-39 16 -57 68q-25 45 -97 47q-29 4 -55 10q-33 2 -51 -19q-8 -20 -8 -45zM610 291q0 -53 47 -66l172 -8q39 2 119 -12q6 -8 8 -37q2 -18 -4 -51q-8 -39 -8 -54q0 -37 35 -55q29 -4 86 -12q8 8 22 6l27 -2q29 0 53 39 q4 53 19 160q-2 -2 35 -4q12 0 51 30q22 51 12 131q-14 25 -70 31q-14 8 -16 27q8 158 29 473l-6 18q-14 20 -47 25l-154 10q-25 -4 -43 -22q-109 -152 -336 -447q-18 -25 -25 -90q2 -14 0 -43q-6 -35 -6 -47zM846 408q-8 14 0 26q4 6 106 150q6 0 13 -4q8 -25 4 -56 q2 -41 -13 -118q-14 -4 -110 2z" />
<glyph unicode="&#xbf;" horiz-adv-x="782" d="M-59 412q0 -193 106 -295.5t307 -102.5q170 0 273.5 96.5t103.5 251.5q0 70 -44 115t-112 45q-139 0 -159 -164q-10 -68 -72 -67q-76 0 -76 104q0 106 99 217l69 78q121 139 121 309q0 117 -96 154q-70 14 -113 0q-84 -31 -92 -127q-6 -63 -25.5 -100t-80.5 -103l-56 -61 q-154 -168 -153 -350zM209 1393l14 -74l43 -59l60 -41l69 -13l74 15l59 41l41 59l15 72l-19 71l-41 60l-57 43l-72 12l-71 -16l-64 -39l-37 -62z" />
<glyph unicode="&#xc0;" horiz-adv-x="956" d="M-63 2015l28 -65l246 -258l49 -21l51 4l51 21l35 37l19 49l-2 51l-158 321l-49 48l-66 24h-67l-66 -28l-49 -50l-22 -63v-70zM-59 160q0 -59 24 -105q68 -86 170 -86q29 0 55 8q104 6 138 105q0 25 20 72q86 16 307 34q-2 -6 4.5 -9t6.5 -7q0 -10 12 -21.5t10 -21.5 q29 -25 92 -57q70 2 140 2q78 8 114 67q29 35 29 92q-1 48 -19 97q-139 381 -344 848q-74 166 -108 215q-84 119 -203 120q-14 16 -82 9q-8 -4 -24 -4h-7q-35 0 -43 -23q-88 -45 -116 -221q-47 -313 -156 -934q0 -23 -12 -90q-8 -57 -8 -90zM389 506q10 96 37 287 q33 -88 98 -254q2 -14 -10.5 -17.5t-24.5 -5.5q-33 -6 -100 -10z" />
<glyph unicode="&#xc1;" horiz-adv-x="968" d="M-63 160q0 -59 24 -105q68 -86 170 -86q29 0 55 8q106 6 138 105q2 25 20 72q86 16 307 34q-2 -6 4.5 -9t6.5 -7q0 -10 12 -21.5t10 -21.5q29 -25 94 -57q68 2 137 2q80 8 117 67q27 35 27 92q-1 48 -17 97q-139 381 -346 848q-74 166 -108 215q-84 119 -201 120 q-14 16 -84 9q-8 -4 -24 -4h-7q-35 0 -43 -23q-88 -45 -114 -221q-47 -313 -156 -934q-2 -23 -12 -90q-10 -57 -10 -90zM299 1782l18 -49l35 -37l51 -21l52 -4l49 21l246 258l28 65v70l-22 63l-49 50l-66 28h-68l-65 -24l-49 -48l-158 -321zM387 506q10 96 35 287 q35 -88 98 -254q2 -14 -10.5 -17.5t-24.5 -5.5q-31 -6 -98 -10z" />
<glyph unicode="&#xc2;" horiz-adv-x="995" d="M-104 1657l4 -51l24 -47l41 -31l51 -17l54 5l45 26l190 209l236 -158l51 -14l51 10l47 27l31 41l12 51l-6 51q-297 293 -459 297q-45 -12 -98 -57q-129 -102 -274 -342zM-53 160q0 -59 24 -105q66 -86 170 -86q29 0 56 8q104 6 137 105q0 25 20 72q86 16 308 34 q-2 -6 3 -9t7 -7q0 -10 12 -21.5t10 -21.5q29 -25 92 -57q70 2 140 2q78 8 114 67q29 35 29 92q0 48 -18 97q-139 381 -346 848q-72 166 -109 215q-82 119 -201 120q-14 16 -82 9q-8 -4 -24 -4h-6q-35 0 -45 -23q-88 -45 -115 -221q-47 -313 -156 -934q-2 -23 -12 -90 q-8 -57 -8 -90zM395 506q10 96 37 287q33 -88 98 -254q2 -14 -10 -17.5t-24 -5.5q-33 -6 -101 -10z" />
<glyph unicode="&#xc3;" horiz-adv-x="948" d="M-96 1651q2 0 45 -164q2 -4 6 -10q18 -27 49 -23q37 4 76 100q53 127 127 123q25 -29 141 -57q66 -33 166 -33q63 0 94 25q74 82 92 186q2 14 2 29q0 37 -12 84v4q0 16 -6 31l-4 34q0 2 -8 43l-4 11q-4 12 -17 18q-16 41 -37 51q-41 23 -61 -16l-27 -45q-27 -49 -34 -62 q-23 -35 -37 -38q-33 0 -250 81q-33 12 -45 13q8 0 12 -2q-20 6 -43 6q-131 0 -213 -193q-27 -96 -12 -196zM-51 160q0 -59 24 -105q66 -86 170 -86q27 0 54 8q106 6 137 105q2 25 20 72q88 16 310 34q-4 -6 2 -9t8 -7q-2 -10 10 -21.5t10 -21.5q29 -25 94 -57q70 2 138 2 q80 8 116 67q29 35 29 92q0 48 -18 97q-139 381 -346 848q-74 166 -109 215q-84 119 -201 120q-14 16 -82 9q-10 -4 -26 -4h-4q-35 0 -45 -23q-88 -45 -115 -221q-47 -313 -156 -934q-2 -23 -12 -90q-8 -57 -8 -90zM397 506q10 96 35 287q35 -88 98 -254q2 -14 -10 -17.5 t-22 -5.5q-33 -6 -101 -10zM680 1980q0 -2 2 -6q-2 3 -2 11v-5z" />
<glyph unicode="&#xc4;" horiz-adv-x="1050" d="M-88 1747q6 -121 125 -158q12 2 18 -4q31 -14 68 -14q74 0 135 61q0 33 29 62q10 39 10 78q0 80 -49 124q-57 53 -129 54q-43 0 -84 -19q-66 -53 -86 -78q-45 -53 -37 -106zM-16 160q0 -59 24 -105q66 -86 168 -86q29 0 55 8q106 6 138 105q2 25 20 72q86 16 309 34 q-4 -6 2.5 -9t8.5 -7q-2 -10 10 -21.5t10 -21.5q29 -25 94 -57q70 2 138 2q80 8 116 67q27 35 27 92q-1 48 -17 97q-139 381 -346 848q-74 166 -108 215q-84 119 -201 120q-14 16 -84 9q-8 -4 -24 -4h-5q-37 0 -45 -23q-88 -45 -114 -221q-47 -313 -156 -934q-2 -23 -12 -90 q-8 -57 -8 -90zM395 1845l4 -71l37 -66l53 -49l68 -25l72 4l65 35l51 53l23 70l-6 70l-31 67l-57 47l-68 27l-71 -8l-68 -31l-47 -55zM432 506q10 96 35 287q35 -88 98 -254q2 -14 -10.5 -17.5t-22.5 -5.5q-33 -6 -100 -10z" />
<glyph unicode="&#xc5;" horiz-adv-x="976" d="M-61 160q0 -59 24 -105q66 -86 170 -86q29 0 55 8q104 6 138 105q0 25 20 72q86 16 307 34q-2 -6 3.5 -9t7.5 -7q0 -10 12 -21.5t10 -21.5q29 -25 92 -57q70 2 140 2q78 8 114 67q29 35 29 92q-1 48 -19 97q-139 381 -346 848q-72 166 -108 215q-82 119 -201 120 q-14 16 -82 9q-8 -4 -24 -4h-7q-35 0 -45 -23q-88 -45 -114 -221q-47 -313 -156 -934q-2 -23 -12 -90q-8 -57 -8 -90zM-20 1892q0 -117 81.5 -197.5t196.5 -80.5t197 81t82 197q0 115 -82 197t-197 82t-196.5 -82t-81.5 -197zM190 1892q0 27 19.5 47.5t48.5 20.5t48.5 -20.5 t19.5 -47.5q0 -29 -19.5 -48t-48.5 -19t-48.5 19.5t-19.5 47.5zM387 506q10 96 37 287q33 -88 98 -254q2 -14 -10.5 -17.5t-24.5 -5.5q-33 -6 -100 -10z" />
<glyph unicode="&#xc6;" horiz-adv-x="1622" d="M-66 287q0 -59 25 -105q68 -86 170 -86q29 0 55 8q104 6 138 105q0 25 20 72q45 8 70 22q16 8 67 12q-2 -6 4 -9t6 -7q0 -10 12.5 -21.5t10.5 -21.5q14 -12 29 -23q31 -47 82 -63q143 -4 415 6q57 12 140 12q12 0 34 -2h33q164 0 252 82q8 14 18.5 28.5t20.5 12.5 q4 -8 -2 -16l14 35q15 78 -26 125v-9q2 -4 -11 -4q-37 47 -161 72v2q-59 -2 -166 -12q-94 -10 -156 -10q-43 0 -90 4l-27 12q-8 35 9 63q-2 55 -17 123q-2 18 7.5 28.5t27.5 8.5q43 6 98 6h54q35 -2 51 -2q131 0 213 72q45 76 45 123q0 18 -4 35h-6q0 10 -2.5 19t-14.5 11 q-51 90 -145 90l-324 5q-20 20 0 81q8 27 4 80q-4 57 0 78q121 10 414 10q100 12 174 109q29 80 4 131q-39 80 -145 94q-197 -6 -627 -10q-86 0 -119 -8q-150 2 -223 -6q-8 -4 -25 -4h-6q-35 0 -43 -23q-88 -45 -114.5 -218t-116.5 -472q-98 -330 -125 -465q0 -23 -12 -90 q-8 -57 -9 -90zM383 633q6 49 39 145t39 142q18 -43 30.5 -127t24.5 -119v-21q-13 -4 -33 -10q-33 -6 -100 -10z" />
<glyph unicode="&#xc7;" horiz-adv-x="1155" d="M0 506q0 -133 71.5 -249t192.5 -175q8 -2 20.5 -11.5t18.5 -9.5q4 0 8 2q-10 -29 -10 -57q0 -70 48 -119t116 -51q14 -29 14 -92q-20 -2 -47 2q-33 4 -45 4q-72 0 -121 -49t-49 -121q0 -57 36 -103t92 -59.5t120 -13.5q141 0 235 74q119 94 119 262q0 188 -88 303 q219 59 311 244q57 115 58 223q-1 106 -60 172q-86 59 -163 59q-25 0 -48 -6q-102 -25 -135 -160v-71q2 -45 -20 -66q-68 -70 -135 -69q-12 0 -27 2q-12 10 -39 26h-6q-61 39 -55 111h2l-8 8q12 37 6 148q4 78 0 229q0 72 14 211q66 106 178 94q12 -4 66 -37q20 -27 59 -119 q33 -76 78 -108q10 -10 18 6q41 -16 84 -16q70 0 117 34q66 45 66 127q-2 31 -5 62q-2 39 -18 57q-29 92 -80 162t-151 129q-14 -8 -27 8q-25 0 -45 15q-14 2 -51 14l-8 12q-72 4 -91 -4q-25 10 -96 16q6 -4 0 -10q-4 -4 -8 -10q-51 -2 -147 -20q-119 -29 -215.5 -129.5 t-114.5 -221.5q-16 -106 -19 -229q8 -31 -4 -90q4 -12 0 -43q-2 -29 4 -45q-14 -37 -10 -103h6q2 -6 2 -16q0 -8 -2 -14h-6q10 -8 6 -45q-8 0 -10 2l-2 -13q-4 -8 2 -12q-2 -27 -2 -51z" />
<glyph unicode="&#xc8;" horiz-adv-x="1198" d="M0 1389q14 -559 16 -1225q10 -92 105 -121q143 -4 416 6q57 12 155 12q14 0 43 -2h41q217 0 305 82q8 14 17.5 28.5t19.5 12.5q4 -8 -2 -16l17 35q14 78 -27 125v-9q0 -4 -10 -4q-37 47 -162 72v2q-53 -2 -197 -12q-125 -10 -200 -10q-53 0 -101 4l-26 12q-8 35 8 63 q-2 55 -17 123q-2 18 8.5 28.5t26.5 8.5q45 6 109 6h65q43 -2 66 -2q180 0 262 72q45 76 45 123q0 18 -4 35h-6q-2 10 -4 19t-13 11q-51 90 -145 90l-410 5q-20 20 0 81q8 27 5 80q-4 57 0 78q121 10 499 10q98 12 172 109q31 82 6 131q-39 80 -145 94q-240 -6 -713 -10 q-111 2 -153 -25q-66 -39 -72 -122zM162 2015l28 -65l246 -258l49 -21l54 4l49 21l37 37l16 49v51l-158 321l-51 48l-63 24h-70l-63 -28l-50 -50l-22 -63z" />
<glyph unicode="&#xc9;" horiz-adv-x="1198" d="M0 1389q14 -559 16 -1225q10 -92 105 -121q143 -4 416 6q57 12 155 12q14 0 43 -2h41q217 0 305 82q8 14 17.5 28.5t19.5 12.5q4 -8 -2 -16l17 35q14 78 -27 125v-9q0 -4 -10 -4q-37 47 -162 72v2q-53 -2 -197 -12q-125 -10 -200 -10q-53 0 -101 4l-26 12q-8 35 8 63 q-2 55 -17 123q-2 18 8.5 28.5t26.5 8.5q45 6 109 6h65q43 -2 66 -2q180 0 262 72q45 76 45 123q0 18 -4 35h-6q-2 10 -4 19t-13 11q-51 90 -145 90l-410 5q-20 20 0 81q8 27 5 80q-4 57 0 78q121 10 499 10q98 12 172 109q31 82 6 131q-39 80 -145 94q-240 -6 -713 -10 q-111 2 -153 -25q-66 -39 -72 -122zM508 1782l16 -49l37 -37l49 -21l54 -4l49 21l245 258l29 65v70l-24 63l-50 50l-63 28h-70l-63 -24l-51 -48l-158 -321v-51z" />
<glyph unicode="&#xca;" horiz-adv-x="1183" d="M0 1389q14 -559 16 -1225q10 -92 105 -121q143 -4 416 6q57 12 155 12q14 0 43 -2h41q217 0 305 82q8 14 17.5 28.5t19.5 12.5q4 -8 -2 -16l17 35q14 78 -27 125v-9q0 -4 -10 -4q-37 47 -162 72v2q-53 -2 -197 -12q-125 -10 -200 -10q-53 0 -101 4l-26 12q-8 35 8 63 q-2 55 -17 123q-2 18 8.5 28.5t26.5 8.5q45 6 109 6h65q43 -2 66 -2q180 0 262 72q45 76 45 123q0 18 -4 35h-6q-2 10 -4 19t-13 11q-51 90 -145 90l-410 5q-20 20 0 81q8 27 5 80q-4 57 0 78q121 10 499 10q98 12 172 109q31 82 6 131q-39 80 -145 94q-240 -6 -713 -10 q-111 2 -153 -25q-66 -39 -72 -122zM162 1782l18 -49l35 -37l51 -21l51 -4l50 21l215 184l215 -184l49 -21l51 4l51 21l35 37l18 49l-2 51q-258 328 -417 350q-47 -6 -105 -43q-141 -88 -313 -307z" />
<glyph unicode="&#xcb;" horiz-adv-x="1198" d="M0 1389q14 -559 16 -1225q10 -92 105 -121q143 -4 416 6q57 12 155 12q14 0 43 -2h41q217 0 305 82q8 14 17.5 28.5t19.5 12.5q4 -8 -2 -16l17 35q14 78 -27 125v-9q0 -4 -10 -4q-37 47 -162 72v2q-53 -2 -197 -12q-125 -10 -200 -10q-53 0 -101 4l-26 12q-8 35 8 63 q-2 55 -17 123q-2 18 8.5 28.5t26.5 8.5q45 6 109 6h65q43 -2 66 -2q180 0 262 72q45 76 45 123q0 18 -4 35h-6q-2 10 -4 19t-13 11q-51 90 -145 90l-410 5q-20 20 0 81q8 27 5 80q-4 57 0 78q121 10 499 10q98 12 172 109q31 82 6 131q-39 80 -145 94q-240 -6 -713 -10 q-111 2 -153 -25q-66 -39 -72 -122zM137 1835q-8 -123 107 -170q12 0 18 -6q37 -23 84 -23q63 0 123 47q2 33 33 58q20 53 20 100q0 63 -37 107q-59 68 -141 67q-33 0 -65 -10q-72 -47 -95 -70q-51 -47 -47 -100zM625 1808l28 -67l49 -53l64 -33l72 -2l69 26l56 47l28 68 l4 70l-24 71l-51 52l-66 32l-72 2l-69 -24l-54 -51l-30 -64z" />
<glyph unicode="&#xcc;" horiz-adv-x="757" d="M98 2015l29 -65l246 -258l49 -21l51 4l51 21l35 37l19 49v51l-158 321l-51 48l-64 24h-69l-66 -28l-47 -50l-25 -63v-70zM188 193q20 -90 109 -117q37 -12 72 -13q86 0 143 60q29 47 29 57q0 8 -4 17q4 4 6 8q-4 8 4 8q-4 14 4 45q4 27 -4 41l6 6q12 90 14 178q-2 0 -8 4 q0 27 12 33q18 162 41 481l4 7l-2 2q0 27 13 32q-6 33 2 93q10 82 10 94q2 39 0 45q20 96 20 123q0 45 -18 76q-47 82 -160 81q-45 0 -86 -14q-74 -25 -98 -149l-41 -437q-29 -254 -68 -761z" />
<glyph unicode="&#xcd;" horiz-adv-x="731" d="M154 193q20 -90 108 -117q37 -12 72 -13q86 0 143 60q29 47 29 57q0 8 -4 17q2 4 6 8q-4 8 4 8q-4 14 4 45q4 27 -4 41l6 6q12 90 14 178q-2 0 -8 4q0 27 13 33q18 162 41 481l4 7l-2 2q0 27 12 32q-6 33 2 93q10 82 10 94q2 39 0 45q20 96 21 123q-1 45 -19 76 q-47 82 -160 81q-45 0 -86 -14q-74 -25 -98 -149l-41 -437q-29 -254 -67 -761zM367 1782l18 -49l35 -37l51 -21l51 -4l49 21l246 258l29 65v70l-25 63l-47 50l-65 28h-70l-64 -24l-49 -48l-159 -321v-51z" />
<glyph unicode="&#xce;" horiz-adv-x="751" d="M104 1796l17 -49l35 -39l49 -22l53 -5l49 19l221 176l209 -190l47 -23l52 2l51 18l37 35l20 49v52q-245 335 -405 364q-47 -6 -107 -39q-143 -84 -323 -297zM180 193q18 -90 109 -117q35 -12 71 -13q86 0 144 60q27 47 26 57q0 8 -4 17q4 4 9 8q-4 8 2 8q-2 14 4 45 q6 27 -4 41l6 6q14 90 16 178q-4 0 -8 4q0 27 12 33q16 162 39 481l6 7l-4 2q0 27 12 32q-4 33 2 93q10 82 13 94v45q18 96 18 123q0 45 -18 76q-47 82 -160 81q-43 0 -84 -14q-74 -25 -98 -149l-41 -437q-31 -254 -68 -761z" />
<glyph unicode="&#xcf;" horiz-adv-x="757" d="M63 1858q-14 -121 99 -175q12 0 18 -8q41 -27 90 -26q62 0 117 41q4 33 37 55q27 57 27 108q0 57 -33 99q-59 76 -148 76q-29 0 -55 -9q-74 -41 -98 -63q-53 -45 -54 -98zM164 193q20 -90 108 -117q37 -12 74 -13q84 0 141 60q29 47 29 57q0 8 -4 17q4 4 6 8q-4 8 4 8 q-4 14 4 45q4 27 -4 41l6 6q12 90 17 178q-4 0 -10 4q0 27 12 33q18 162 41 481l6 7l-4 2q0 27 12 32q-6 33 2 93q10 82 10 94q2 39 0 45q20 96 21 123q-1 45 -19 76q-47 82 -159 81q-45 0 -86 -14q-74 -25 -99 -149l-39 -437q-31 -254 -69 -761zM549 1806l24 -69l48 -56 l61 -36l72 -7l71 23l58 45l32 66l7 71l-21 72l-49 53l-61 37l-72 4l-72 -20l-55 -47l-35 -64z" />
<glyph unicode="&#xd0;" horiz-adv-x="1234" d="M-295 838q-6 -70 39 -124.5t115 -60.5l168 -14l-35 -313q0 -16 -3 -54.5t-3 -56.5q0 -78 47 -119q27 -23 90 -47q70 -2 162 -22q47 -4 141 -9v-4q23 -8 29 4q63 -12 168 -16q123 -6 168 -10q8 2 63 6q39 2 53 25q117 47 191 217q23 156 43 311q23 180 26 311 q0 45 8.5 144.5t8.5 150.5q-1 193 -105 289q6 18 -18 43q-14 18 -49 10q-8 -12 -25 -12q-6 0 -21.5 3t-23.5 3q-6 0 -12 -2q-166 18 -492 61q-25 -2 -72 6.5t-71 8.5q-27 0 -51 -8q-121 -37 -135 -183q-14 -133 -43 -399l-179 14q-70 6 -123 -39t-59 -114zM430 381 q2 27 23 221l55 -4q70 -6 123 39t59 115t-39 124t-114 60l-50 4l27 238l6 8q86 -4 248 -31l4 4q-16 -200 -57 -579q-2 -78 -25 -226q-25 -10 -63 -6q-31 4 -64 8q-47 4 -133 25z" />
<glyph unicode="&#xd1;" horiz-adv-x="1128" d="M0 274q0 -127 27 -170q49 -76 176 -63q96 8 137 113q4 66 -2 227q-6 156 0 244q2 4 2 53q-2 37 25 39l55 -76l-4 -4q59 -90 162 -279q47 -94 161 -276q53 -51 133 -51q37 0 68 14q74 37 98 145q2 211 0 545q-4 516 -4 547q0 154 -59 207q-47 35 -111 35q-47 0 -84 -21 q-55 -29 -73 -94q2 -158 -11 -475q-18 -18 -18 -16q-76 90 -160 266q-96 203 -139 270q-61 72 -178 72q-63 0 -123 -23q-66 -37 -76 -127zM139 1634q0 -4 2 -10q12 -31 41 -35q39 -6 103.5 78t130.5 84q12 0 24 -4q18 -35 119 -92q27 -23 84 -51q74 -33 125 -33q23 0 39 6 q94 57 139 154q20 55 23 114q4 14 4 25q-2 0 -2 4l6 39q0 2 2 43v10q-2 12 -10 23q-4 43 -23 59q-35 33 -63 2l-37 -37l-51 -51q-31 -25 -47 -27q-31 10 -218 148q-35 23 -49 24q12 0 21 -6q-6 2 -21 6h-2q-29 12 -61 13q-109 0 -213 -129q-51 -86 -64 -185q0 -2 -2 -172z M926 1999v2q8 2 14 0q-4 0 -14 -2zM977 1907v10v-4v-6z" />
<glyph unicode="&#xd2;" horiz-adv-x="1163" d="M-6 1001q0 -41 4 -116q6 -82 6 -119v-129q2 -238 84 -350q160 -217 404 -213q186 4 262 20q135 31 213 129q121 123 120 373q0 43 -4 115q-6 85 -6 116q0 127 -2 254q-6 152 -57 244q-70 125 -194 189.5t-267 64.5q-258 0 -426 -170q-137 -139 -137 -408zM199 2015 l28 -65l246 -258l49 -21l53 4l50 21l37 37l16 49v51l-158 321l-51 48l-63 24h-70l-64 -28l-49 -50l-22 -63zM393 881q-4 119 2 200q8 25 18.5 53.5t30.5 45.5q49 49 117 41q96 -31 117 -91q0 -72 7 -223t7 -229q0 -100 -8 -182q-25 -78 -82 -97q-12 -4 -24 -4q-35 0 -115 41 q-55 57 -55 119q0 14 4 29h2q0 -2 -6 100h-5q-4 98 -10 197z" />
<glyph unicode="&#xd3;" horiz-adv-x="1157" d="M-6 1001q0 -41 4 -116q6 -82 6 -119v-129q2 -238 84 -350q160 -217 404 -213q186 4 262 20q135 31 213 129q121 123 120 373q0 43 -4 115q-6 85 -6 116q0 127 -2 254q-6 152 -57 244q-70 125 -194 189.5t-267 64.5q-258 0 -426 -170q-137 -139 -137 -408zM393 881 q-4 119 2 200q8 25 18.5 53.5t30.5 45.5q49 49 117 41q96 -31 117 -91q0 -72 7 -223t7 -229q0 -100 -8 -182q-25 -78 -82 -97q-12 -4 -24 -4q-35 0 -115 41q-55 57 -55 119q0 14 4 29h2q0 -2 -6 100h-5q-4 98 -10 197zM481 1782l17 -49l37 -37l49 -21l53 -4l49 21l246 258 l29 65l-3 70l-22 63l-49 50l-64 28h-69l-64 -24l-51 -48l-158 -321v-51z" />
<glyph unicode="&#xd4;" horiz-adv-x="1169" d="M-6 1001q0 -41 4 -116q6 -82 6 -119v-129q2 -238 84 -350q160 -217 404 -213q186 4 262 20q135 31 213 129q121 123 120 373q0 43 -4 115q-6 85 -6 116q0 127 -2 254q-6 152 -57 244q-70 125 -194 189.5t-267 64.5q-258 0 -426 -170q-137 -139 -137 -408zM156 1782 l18 -49l37 -37l49 -21l53 -4l47 21l215 184l216 -184l49 -21l53 4l49 21l37 37l16 49v51q-258 328 -420 350q-47 -6 -104 -43q-139 -88 -313 -307zM393 881q-4 119 2 200q8 25 18.5 53.5t30.5 45.5q49 49 117 41q96 -31 117 -91q0 -72 7 -223t7 -229q0 -100 -8 -182 q-25 -78 -82 -97q-12 -4 -24 -4q-35 0 -115 41q-55 57 -55 119q0 14 4 29h2q0 -2 -6 100h-5q-4 98 -10 197z" />
<glyph unicode="&#xd5;" horiz-adv-x="1153" d="M-6 1001q0 -41 4 -116q6 -82 6 -119v-129q2 -238 84 -350q160 -217 404 -213q186 4 262 20q135 31 213 129q121 123 120 373q0 43 -4 115q-6 85 -6 116q0 127 -2 254q-6 152 -57 244q-70 125 -194 189.5t-267 64.5q-258 0 -426 -170q-137 -139 -137 -408zM113 1634 q0 -4 2 -10q10 -31 41 -35q37 -6 102.5 78t130.5 84q12 0 25 -4q16 -35 118 -92q25 -23 84 -51q74 -33 123 -33q25 0 41 6q92 57 140 154q20 55 20 114q4 14 4 25l-2 4l8 39q0 2 2 43v10q-2 12 -12 23q-4 43 -20 59q-35 33 -64 2l-39 -37q-37 -39 -51 -51q-29 -25 -45 -27 q-31 10 -217 148q-35 23 -49 24q12 0 20 -6q-6 2 -20 6h-2q-31 12 -62 13q-109 0 -215 -129q-49 -86 -61 -185q0 -2 -2 -172zM393 881q-4 119 2 200q8 25 18.5 53.5t30.5 45.5q49 49 117 41q96 -31 117 -91q0 -72 7 -223t7 -229q0 -100 -8 -182q-25 -78 -82 -97 q-12 -4 -24 -4q-35 0 -115 41q-55 57 -55 119q0 14 4 29h2q0 -2 -6 100h-5q-4 98 -10 197zM897 2001q10 2 14 0q-2 0 -12 -2zM948 1907l2 10v-4q-2 -2 -2 -6z" />
<glyph unicode="&#xd6;" horiz-adv-x="1169" d="M-6 1001q0 -41 4 -116q6 -82 6 -119v-129q2 -238 84 -350q160 -217 404 -213q186 4 262 20q135 31 213 129q121 123 120 373q0 43 -4 115q-6 85 -6 116q0 127 -2 254q-6 152 -57 244q-70 125 -194 189.5t-267 64.5q-258 0 -426 -170q-137 -139 -137 -408zM160 1851 q-13 -121 100 -174q12 2 19 -6q39 -25 90 -24q59 0 116 41q4 33 37 57q25 55 25 106q0 57 -35 101q-57 72 -145 71q-29 0 -58 -8q-74 -43 -98 -63q-51 -47 -51 -101zM393 881q-4 119 2 200q8 25 18.5 53.5t30.5 45.5q49 49 117 41q96 -31 117 -91q0 -72 7 -223t7 -229 q0 -100 -8 -182q-25 -78 -82 -97q-12 -4 -24 -4q-35 0 -115 41q-55 57 -55 119q0 14 4 29h2q0 -2 -6 100h-5q-4 98 -10 197zM645 1806l27 -69l47 -56l63 -34l72 -5l70 25l57 45l33 66l4 69l-21 72l-49 55l-63 35l-72 4l-72 -22l-55 -47l-33 -66z" />
<glyph unicode="&#xd7;" horiz-adv-x="1189" d="M-51 367q0 -14 6 -29q37 -72 176 -172l-2 -2q27 -16 80 -51q27 -10 53 -11q45 0 74 29l190 252h9q8 -12 22 -37q0 -6 8 -14t6 -17q4 0 15 -18q18 -4 24 -25q6 -29 13 -34q0 -6 11 -13.5t7 -15.5q47 -94 129 -123q14 -6 31 -6q16 0 46 9t42 11q61 45 125 88q70 55 61 129 q-41 82 -137 226.5t-135 218.5q61 94 203 274q6 23 53 78q39 45 35 86q-14 47 -68 96l-94 82q-14 6 -68 49q-39 31 -73 31q-59 6 -105 -57q-31 -57 -61 -113q-10 -16 -31 -45q-8 -6 -10 0q-8 -4 -9 -20l-36 -47l-25 14l-131 207l-64 43q-4 8 -9 15t-15 1q-16 4 -33 4 q-37 0 -86 -30q-72 -47 -80 -50q-31 -25 -65.5 -51t-38.5 -65q-2 -10 -2 -21q0 -29 19.5 -59.5t37.5 -59.5q4 -14 27 -32q23 -27 63 -88q0 -12 21 -31q8 -16 28 -39q31 -45 78 -137q-82 -111 -258 -336q-57 -70 -57 -94z" />
<glyph unicode="&#xd8;" horiz-adv-x="1185" d="M-6 1001q0 -37 4 -102q4 -74 6 -104q2 -131 4 -263q12 -156 80 -245q76 -100 160 -150l-111 -332q-4 -12 -4 -26q0 -35 25.5 -59.5t60.5 -24.5q59 0 80 57l107 330q51 -8 86 -8q188 4 262 20q135 31 213 129q121 123 120 373q0 59 -8 184q0 139 -2 279q-6 170 -61 267 t-148 161l107 325q4 12 4 27q0 35 -24.5 59.5t-59.5 24.5q-61 0 -80 -59l-102 -308q-127 35 -246 17q-205 -31 -336 -164q-137 -139 -137 -408zM393 881q-4 119 2 200q8 25 18.5 53.5t30.5 45.5q49 49 117 41q18 -6 37 -15l-186 -567q-2 14 -4 45h-5q-4 98 -10 197zM514 412 l170 514q14 -291 0 -430q-25 -78 -82 -97q-39 -10 -88 13z" />
<glyph unicode="&#xd9;" horiz-adv-x="1204" d="M-20 1434q4 -209 16 -334q6 -66 6 -162q0 -33 -2 -96v-94q0 -379 143 -541q109 -145 357 -162l4 -4q12 -2 28 4q133 10 146 12q80 8 137 29q109 43 182.5 138t92.5 214q12 178 14 449l4 454q2 122 -57 175q-100 57 -179 57q-23 0 -43 -4l-8 6v-10q-55 -6 -108 -72 q0 -8 -15 -63q0 47 -4 -877q0 -92 -43 -127q-51 -45 -112 -45q-27 0 -50 10q-88 39 -94 182l-20 721q-6 164 -68 222q-33 12 -96 45v-5q-49 16 -141 0q-37 -14 -63.5 -50t-26.5 -72zM168 2015l29 -65l245 -258l50 -21l51 4l51 21l35 37l18 49v51l-160 321l-49 48l-63 24h-70 l-65 -28l-47 -50l-25 -63v-70z" />
<glyph unicode="&#xda;" horiz-adv-x="1212" d="M-20 1434q4 -209 14 -334q6 -66 6 -162v-96q-2 -63 -2 -94q0 -379 145 -541q109 -145 355 -162l6 -4q10 -2 26 4q135 10 146 12q82 8 137 29q111 43 184.5 138t92.5 214q10 178 14 449l4 454q2 122 -57 175q-102 57 -179 57q-23 0 -43 -4l-10 6v-10q-55 -6 -106 -72 q0 -8 -15 -63q0 47 -6 -877q0 -92 -41 -127q-51 -45 -114 -45q-27 0 -48 10q-90 39 -94 182l-22 721q-4 164 -68 222q-31 12 -94 45l-2 -5q-47 16 -139 0q-37 -14 -65 -50t-25 -72zM428 1698l16 -49l37 -37l49 -23l54 -2l49 21l246 258l28 65l-2 68l-22 65l-49 47l-64 31 h-70l-63 -24l-51 -47l-158 -322v-51z" />
<glyph unicode="&#xdb;" horiz-adv-x="1204" d="M-20 1434q4 -209 14 -334q6 -66 6 -162v-96q-2 -63 -2 -94q0 -379 145 -541q109 -145 355 -162l6 -4q10 -2 26 4q135 10 146 12q82 8 137 29q111 43 184.5 138t92.5 214q10 178 14 449l4 454q2 122 -57 175q-102 57 -179 57q-23 0 -43 -4l-10 6v-10q-55 -6 -106 -72 q0 -8 -15 -63q0 47 -6 -877q0 -92 -41 -127q-51 -45 -114 -45q-27 0 -48 10q-90 39 -94 182l-22 721q-4 164 -68 222q-31 12 -94 45l-2 -5q-47 16 -139 0q-37 -14 -65 -50t-25 -72zM102 1782l19 -49l37 -37l49 -21l53 -4l47 21l215 184l215 -184l49 -21l54 4l49 21l37 37 l16 49v51q-258 328 -420 350q-47 -6 -104 -43q-139 -88 -314 -307z" />
<glyph unicode="&#xdc;" horiz-adv-x="1183" d="M-35 1434q4 -209 15 -334q6 -66 6 -162v-96q-2 -63 -2 -94q0 -379 145 -541q109 -145 354 -162l6 -4q10 -2 27 4q135 10 146 12q82 8 137 29q111 43 184.5 138t91.5 214q10 178 15 449l4 454q1 122 -58 175q-102 57 -178 57q-23 0 -43 -4l-10 6v-10q-55 -6 -107 -72 q0 -8 -14 -63q0 47 -6 -877q0 -92 -41 -127q-51 -45 -115 -45q-27 0 -49 10q-88 39 -92 182l-23 721q-4 164 -67 222q-31 12 -94 45l-2 -5q-47 16 -140 0q-37 -14 -64.5 -50t-25.5 -72zM49 1858q-13 -120 98 -175q12 0 19 -8q41 -27 92 -26q59 0 115 41q6 33 37 55 q27 59 26 110q0 55 -30 97q-59 76 -148 76q-29 0 -57 -9q-74 -41 -99 -61q-51 -45 -53 -100zM535 1806l26 -71l45 -56l64 -34l71 -7l70 23l57 43l33 65l8 72l-20 72l-49 55l-62 35l-71 6l-72 -20l-57 -47l-35 -64z" />
<glyph unicode="&#xdd;" horiz-adv-x="983" d="M-186 1243q0 -45 16 -86q61 -102 180 -246q100 -119 201 -237l12 -35q12 -78 27 -291q12 -182 35 -282q29 -88 127 -99q57 -6 94 -6q129 0 196 82q39 51 21 162q-2 84 -25 250q-23 160 -24 247q92 174 139 289q37 82 76 164q43 98 43 174q0 26 -4 51q-18 68 -131 117 q-35 6 -64 6q-127 0 -213 -149q-61 -129 -125 -258q-68 88 -135 174q-84 106 -160 149q-31 8 -63 8q-100 0 -172 -55q-51 -49 -51 -129zM256 1698l18 -49l35 -37l51 -23l52 -2l49 21l246 258l28 65v68l-24 65l-47 47l-66 31h-70l-63 -24l-49 -47l-160 -322v-51z" />
<glyph unicode="&#xde;" horiz-adv-x="1157" d="M-45 244q18 -121 74 -164q78 -51 176 -51q63 0 110 24q53 35 93 156q2 10 12 143l6 13q164 -10 199 -11q225 0 336 105q162 150 161 364q0 62 -16 125q-29 121 -126 218.5t-218 123.5q-47 4 -146 27l-2 -4q-55 0 -122 4q2 37 6 104q-10 68 -17 90q-14 47 -49 78 q-63 45 -156 45q-74 0 -133 -28q-61 -35 -96 -152q-10 -49 -22 -170q-10 -31 -13 -59q-14 -246 -32 -731q0 -12 -15 -27q4 -29 -6 -51q-6 -123 -4 -172zM442 717q-6 63 11 262q4 16 20 16q-23 0 27 -4q106 -6 110 -6q63 -14 84 -65q12 -61 13 -97q0 -63 -33 -98 q-35 -20 -88 -20q-16 0 -68 4q-41 2 -67 0z" />
<glyph unicode="&#xdf;" horiz-adv-x="1142" d="M-12 172q0 -59 20 -98q45 -70 131 -80q61 0 140 -2q137 51 137 192l2 987q59 -2 123.5 -4t95.5 -41q33 -74 8 -147q-96 -61 -113 -82q-43 -45 -63 -152q-18 -160 166 -159q27 -51 27 -92q0 -27 -15 -48q-12 -53 -72 -59q-80 -2 -96 -180q2 -180 160 -180q74 2 145 6 q109 37 193 145q78 100 100 221q2 23 2 45q0 217 -164 322l-4 14q4 14 37 33q133 119 133 285q0 59 -20 119q-39 119 -119 206q-94 102 -199 105l-337 8q-242 6 -340 -213q-39 -90 -44.5 -215t-14.5 -333t-9 -320q0 -66 2 -131q0 -23 -6 -74t-6 -78z" />
<glyph unicode="&#xe0;" horiz-adv-x="1101" d="M0 539q8 -31 3 -88.5t2 -86t5 -81.5q8 -4 13.5 -22.5t11.5 -20.5q10 -35 47 -78q25 -31 49 -62l2 6q106 -72 215 -69q6 0 76 -12q18 16 71.5 23t71.5 28q12 -2 22.5 -18.5t18.5 -20.5l269 -4q33 0 68.5 2t43.5 39q-8 139 -10 313v311q2 224 0 308q-2 10 -2 22q0 16 6 50 t6 48q0 45 -39 64q-102 8 -254 -4q-8 2 -18 2q-20 0 -56 -21.5t-59 -21.5q-41 14 -83 26.5t-83 12.5q-135 0 -266 -101.5t-131 -337.5q0 27 4 -147q6 -23 -4 -59zM195 1591l30 -63l246 -258l47 -21l53 2l50 21l36 37l19 49l-2 53l-158 322l-49 47l-66 24h-69l-64 -30 l-49 -48l-22 -65zM410 604q-2 82 0 127q2 70 8 125q20 39 51 53q12 8 27 9q29 0 57 -35q27 -55 22 -221q0 -86 3 -173q-1 -102 -15 -172q-23 -12 -100 0q-35 20 -41 72q-10 84 -10 88q0 35 -2 127z" />
<glyph unicode="&#xe1;" horiz-adv-x="1101" d="M0 539q8 -31 3 -88.5t2 -86t5 -81.5q8 -4 13.5 -22.5t11.5 -20.5q10 -35 47 -78q25 -31 49 -62l2 6q106 -72 215 -69q6 0 76 -12q18 16 71.5 23t71.5 28q12 -2 22.5 -18.5t18.5 -20.5l269 -4q33 0 68.5 2t43.5 39q-8 139 -10 313v311q2 224 0 308q-2 10 -2 22q0 16 6 50 t6 48q0 45 -39 64q-102 8 -254 -4q-8 2 -18 2q-20 0 -56 -21.5t-59 -21.5q-41 14 -83 26.5t-83 12.5q-135 0 -266 -101.5t-131 -337.5q0 27 4 -147q6 -23 -4 -59zM410 604q-2 82 0 127q2 70 8 125q20 39 51 53q12 8 27 9q29 0 57 -35q27 -55 22 -221q0 -86 3 -173 q-1 -102 -15 -172q-23 -12 -100 0q-35 20 -41 72q-10 84 -10 88q0 35 -2 127zM449 1358l18 -49l37 -37l49 -21l53 -2l47 21l246 258l29 63v70l-23 65l-49 48l-63 30h-70l-66 -24l-49 -47l-157 -322z" />
<glyph unicode="&#xe2;" horiz-adv-x="1101" d="M0 539q8 -31 3 -88.5t2 -86t5 -81.5q8 -4 13.5 -22.5t11.5 -20.5q10 -35 47 -78q25 -31 49 -62l2 6q106 -72 215 -69q6 0 76 -12q18 16 71.5 23t71.5 28q12 -2 22.5 -18.5t18.5 -20.5l269 -4q33 0 68.5 2t43.5 39q-8 139 -10 313v311q2 224 0 308q-2 10 -2 22q0 16 6 50 t6 48q0 45 -39 64q-102 8 -254 -4q-8 2 -18 2q-20 0 -56 -21.5t-59 -21.5q-41 14 -83 26.5t-83 12.5q-135 0 -266 -101.5t-131 -337.5q0 27 4 -147q6 -23 -4 -59zM82 1421l18 -49l37 -37l49 -20l54 -2l47 20l215 183l215 -183l49 -20l51 2l51 20l35 37l19 49v54 q-260 326 -420 350q-47 -8 -105 -45q-139 -88 -313 -305zM410 604q-2 82 0 127q2 70 8 125q20 39 51 53q12 8 27 9q29 0 57 -35q27 -55 22 -221q0 -86 3 -173q-1 -102 -15 -172q-23 -12 -100 0q-35 20 -41 72q-10 84 -10 88q0 35 -2 127z" />
<glyph unicode="&#xe3;" horiz-adv-x="1093" d="M0 539q8 -31 3 -88.5t2 -86t5 -81.5q8 -4 13.5 -22.5t11.5 -20.5q10 -35 47 -78q25 -31 49 -62l2 6q106 -72 215 -69q6 0 76 -12q18 16 71.5 23t71.5 28q12 -2 22.5 -18.5t18.5 -20.5l269 -4q33 0 68.5 2t43.5 39q-8 139 -10 313v311q2 223 0 308q-2 10 -2 22q0 16 6 50 t6 48q0 46 -39 64q-102 8 -254 -4q-8 2 -18 2q-20 0 -56 -21.5t-59 -21.5q-41 14 -83 26.5t-85 12.5q-133 0 -264 -101.5t-131 -337.5q0 27 4 -147q6 -23 -4 -59zM174 1413l21 -168l4 -12q14 -29 45 -29q39 -2 90 88q70 119 145 103q20 -33 129 -76q86 -59 197 -59 q37 0 59 14q86 68 119 170q10 39 10 78q0 16 -4 39q2 10 2 14t-2 14v37q0 4 -2 45l-2 10q-2 10 -12 19q-10 43 -29 57q-39 29 -65 -6l-33 -41q-33 -43 -43 -57q-27 -29 -43 -33q-35 8 -236 119q-33 18 -47 18q10 0 19 -4q-31 14 -64 14q-119 0 -219 -161q-39 -92 -39 -193z M410 604q-2 82 0 127q2 70 8 125q20 39 51 53q12 8 27 9q29 0 57 -35q27 -55 22 -221q0 -86 3 -173q-1 -102 -15 -172q-23 -12 -100 0q-35 20 -41 72q-10 84 -10 88q0 35 -2 127zM928 1706v2q8 2 14 2q-4 0 -14 -4zM989 1622v10v-6v-4z" />
<glyph unicode="&#xe4;" horiz-adv-x="1110" d="M0 539q8 -31 3 -88.5t2 -86t5 -81.5q8 -4 13.5 -22.5t11.5 -20.5q10 -35 47 -78q25 -31 49 -62l2 6q106 -72 215 -69q6 0 76 -12q18 16 71.5 23t71.5 28q12 -2 22.5 -18.5t18.5 -20.5l269 -4q33 0 68.5 2t43.5 39q-8 139 -10 313v311q2 223 0 308q-2 10 -2 22q0 16 6 50 t6 48q0 46 -39 64q-102 8 -254 -4q-8 2 -18 2q-20 0 -56 -21.5t-59 -21.5q-41 14 -83 26.5t-83 12.5q-135 0 -266 -101.5t-131 -337.5q0 27 4 -147q6 -23 -4 -59zM170 1485q-9 -121 106 -170q12 0 19 -6q37 -23 84 -23q63 0 121 47q4 31 35 58q23 53 22 100q0 61 -37 104 q-59 70 -143 70q-31 0 -64 -12q-72 -45 -96 -66q-49 -49 -47 -102zM410 604q-2 82 0 127q2 70 8 125q20 39 51 53q12 8 27 9q29 0 57 -35q27 -55 22 -221q0 -86 3 -173q-1 -102 -15 -172q-23 -12 -100 0q-35 20 -41 72q-10 84 -10 88q0 35 -2 127zM657 1456l29 -70l47 -53 l66 -33l71 -2l70 27l55 47l31 66l2 71l-24 70l-50 53l-65 33l-72 2l-69 -25l-54 -49l-32 -65z" />
<glyph unicode="&#xe5;" horiz-adv-x="1079" d="M0 539q8 -31 3 -88.5t2 -86t5 -81.5q8 -4 13.5 -22.5t11.5 -20.5q10 -35 47 -78q25 -31 49 -62l2 6q106 -72 215 -69q6 0 76 -12q18 16 71.5 23t71.5 28q12 -2 22.5 -18.5t18.5 -20.5l269 -4q33 0 68.5 2t43.5 39q-8 139 -10 313v311q2 224 0 308q-2 10 -2 22q0 16 6 50 t6 48q0 45 -39 64q-102 8 -254 -4q-8 2 -18 2q-20 0 -56 -21.5t-59 -21.5q-41 14 -83 26.5t-83 12.5q-135 0 -266 -101.5t-131 -337.5q0 27 4 -147q6 -23 -4 -59zM254 1528q0 -115 81.5 -197t196.5 -82q117 0 199 82t82 197t-82 196.5t-199 81.5q-115 0 -196.5 -82 t-81.5 -196zM410 604q-2 82 0 127q2 70 8 125q20 39 51 53q12 8 27 9q29 0 57 -35q27 -55 22 -221q0 -86 3 -173q-1 -102 -15 -172q-23 -12 -100 0q-35 20 -41 72q-10 84 -10 88q0 35 -2 127zM465 1528q0 29 20 48t47 19q29 0 48.5 -19.5t19.5 -47.5q0 -29 -19.5 -48.5 t-48.5 -19.5q-27 0 -47 19.5t-20 48.5z" />
<glyph unicode="&#xe6;" horiz-adv-x="1761" d="M0 539q8 -31 3 -88.5t2 -86t5 -81.5q8 -4 13.5 -22.5t11.5 -20.5q10 -35 47 -78q25 -31 49 -62l2 6q106 -72 215 -69q6 0 76 -12q18 16 71.5 23t71.5 28q12 -2 22.5 -18.5t18.5 -20.5l269 -4q25 -2 71 2q106 -37 219 -37q166 0 308 78q84 45 130 124t35 171 q-23 43 -81 43q-12 0 -40 -2t-40 -2q-17 0 -29 2q-53 0 -164 -25q-16 -63 -22 -78q-18 -45 -52 -61q-20 -8 -75 -2q-23 14 -54 53q-20 139 13 190q182 18 280 9q23 2 68 -2q53 -4 72 -4q90 0 120 61q25 240 -16 367q-80 248 -436 247q-94 0 -197 -18q-8 29 -37 41 q-102 8 -254 -4q-8 2 -18 2q-20 0 -56 -21.5t-59 -21.5q-41 14 -83 26.5t-83 12.5q-135 0 -266 -101.5t-131 -337.5q0 27 4 -147q6 -23 -4 -59zM410 604q-2 82 0 127q2 70 8 125q20 39 51 53q12 8 27 9q29 0 57 -35q27 -55 22 -221q0 -86 3 -173q-1 -102 -15 -172 q-23 -12 -100 0q-35 20 -41 72q-10 84 -10 88q0 35 -2 127zM1071 725q-24 103 21 166q45 43 110 24q43 -20 53 -49q29 -84 9 -139q-63 -12 -193 -2z" />
<glyph unicode="&#xe7;" horiz-adv-x="1028" d="M0 545q0 -106 2 -211q6 -119 59 -189q27 -37 74 -71q72 -55 80 -62l-4 -4l8 6q0 -14 0 -8q0 -70 48 -119t116 -51q14 -29 14 -92q-20 -2 -47 2q-33 4 -45 4q-72 0 -121 -49t-49 -121q0 -57 36 -103t92 -59.5t120 -13.5q141 0 235 74q119 94 119 262q0 180 -75 291 q221 57 268 229q24 90 -21 113q-55 8 -153 8q-111 0 -156 4q-18 -12 -47 -84q-25 -55 -74 -57q-35 -10 -76 20q-31 51 -30 135q0 27 4 79t4 77q0 29 -4 51q4 18 4 43q0 18 -3 58.5t-3 58.5q0 82 43 127q39 27 90 12q33 -14 51 -63q20 -57 41 -74l293 -14l16 14q25 29 25 72 q0 53 -42 123.5t-120 119.5q-137 66 -313 66q-180 0 -314 -70q-123 -63 -141 -233q-2 -152 -4 -301z" />
<glyph unicode="&#xe8;" horiz-adv-x="1036" d="M-2 780q0 -55 9 -164.5t9 -158.5q0 -41 -4 -74l11 -6q-8 -86 26 -170q39 -92 115 -135q133 -76 295 -76q166 0 313 80q84 45 130 124t36 171q-23 43 -80 43q-14 0 -42 -2t-40 -2q-16 0 -28 2q-53 0 -162 -25q-18 -63 -23 -78q-20 -45 -53 -61q-18 -8 -76 -2 q-23 14 -51 53q-23 139 10 190q184 18 283 9q23 2 65 -2q53 -4 72 -4q92 0 123 61q23 240 -18 367q-80 254 -435 254q-123 0 -243 -35q-242 -66 -242 -359zM80 1591l29 -63l245 -258l47 -21l54 2l49 21l37 37l18 49l-2 53l-158 322l-49 47l-65 24h-70l-63 -30l-50 -48 l-22 -65v-70zM371 725q-27 103 20 166q45 43 109 24q43 -20 53 -49q29 -84 8 -139q-61 -12 -190 -2z" />
<glyph unicode="&#xe9;" horiz-adv-x="1050" d="M-2 780q0 -55 9 -164.5t9 -158.5q0 -41 -4 -74l11 -6q-8 -86 26 -170q39 -92 115 -135q133 -76 295 -76q166 0 313 80q84 45 130 124t36 171q-23 43 -80 43q-14 0 -42 -2t-40 -2q-16 0 -28 2q-53 0 -162 -25q-18 -63 -23 -78q-20 -45 -53 -61q-18 -8 -76 -2 q-23 14 -51 53q-23 139 10 190q184 18 283 9q23 2 65 -2q53 -4 72 -4q92 0 123 61q23 240 -18 367q-80 254 -435 254q-123 0 -243 -35q-242 -66 -242 -359zM354 1358l17 -49l37 -37l49 -21l53 -2l49 21l246 258l29 63l-3 70l-22 65l-49 48l-64 30h-69l-64 -24l-51 -47 l-158 -322v-53zM371 725q-27 103 20 166q45 43 109 24q43 -20 53 -49q29 -84 8 -139q-61 -12 -190 -2z" />
<glyph unicode="&#xea;" horiz-adv-x="1042" d="M0 780q0 -55 9 -164.5t9 -158.5q0 -41 -4 -74l9 -6q-8 -86 26 -170q39 -92 115 -135q133 -76 295 -76q168 0 315 80q84 45 130 124t36 171q-25 43 -82 43q-12 0 -39.5 -2t-42.5 -2q-14 0 -26 2q-53 0 -164 -25q-16 -63 -23 -78q-18 -45 -51 -61q-20 -8 -76 -2 q-23 14 -53 53q-23 139 12 190q182 18 281 9q23 2 71 -2t68 -4q90 0 121 61q25 240 -16 367q-82 254 -435 254q-123 0 -243 -35q-242 -66 -242 -359zM0 1413l4 -51l23 -47l39 -35l51 -14l53 2l47 24l197 203l231 -162l49 -16l51 8l50 27l32 39l13 51l-6 51 q-289 301 -451 309q-45 -12 -100 -53q-131 -102 -283 -336zM371 725q-25 103 20 166q45 43 111 24q43 -20 51 -49q31 -84 10 -139q-63 -12 -192 -2z" />
<glyph unicode="&#xeb;" horiz-adv-x="1042" d="M-2 780q0 -55 9 -164.5t9 -158.5q0 -41 -4 -74l11 -6q-8 -86 26 -170q39 -92 115 -135q133 -76 295 -76q166 0 313 80q84 45 130 124t36 171q-23 43 -80 43q-14 0 -42 -2t-40 -2q-16 0 -28 2q-53 0 -162 -25q-18 -63 -23 -78q-20 -45 -53 -61q-18 -8 -76 -2 q-23 14 -51 53q-23 139 10 190q184 18 283 9q23 2 65 -2q53 -4 72 -4q92 0 123 61q23 240 -18 367q-80 254 -435 254q-123 0 -243 -35q-242 -66 -242 -359zM59 1475q-4 -121 111 -168q12 2 20 -7q35 -20 80 -20q66 0 125 49q2 33 33 60q18 49 18 96q0 66 -38 108 q-59 66 -140 66q-35 0 -69 -12q-70 -47 -93 -70q-49 -49 -47 -102zM371 725q-27 103 20 166q45 43 109 24q43 -20 53 -49q29 -84 8 -139q-61 -12 -190 -2zM549 1458l29 -69l51 -52l65 -30l72 -2l68 28l55 47l26 68l3 72l-25 69l-53 51l-66 33l-72 -2l-69 -24l-51 -52 l-31 -65z" />
<glyph unicode="&#xec;" horiz-adv-x="757" d="M0 1591l29 -63l245 -258l50 -21l51 2l51 21l35 37l18 49v53l-157 322l-52 47l-63 24h-70l-65 -30l-47 -48l-25 -65v-70zM199 45q0 -31 37 -41q117 -2 325 -4l23 25q14 370 4 1085q-10 14 -39 25l-252 10q-33 -4 -90 -31q-8 -29 -8 -70v-999z" />
<glyph unicode="&#xed;" horiz-adv-x="751" d="M176 45q0 -31 37 -41q117 -2 324 -4l24 25q14 371 4 1085q-10 15 -39 25l-254 10q-31 -4 -88 -31q-8 -29 -8 -70v-999zM295 1358l16 -49l37 -37l49 -21l54 -2l49 21l243 258l31 63l-2 70l-22 65l-50 48l-63 30h-70l-63 -24l-51 -47l-158 -322v-53z" />
<glyph unicode="&#xee;" horiz-adv-x="802" d="M0 1421l18 -49l35 -37l51 -20l52 -2l49 20l215 183l215 -183l47 -20l53 2l49 20l37 37l19 49l-2 54q-258 326 -418 350q-47 -8 -105 -45q-141 -88 -315 -305v-54zM205 45q0 -31 37 -41q119 -2 325 -4l25 25q12 371 2 1085q-8 15 -37 25l-254 10q-33 -4 -90 -31 q-8 -29 -8 -70v-999z" />
<glyph unicode="&#xef;" horiz-adv-x="817" d="M0 1479q-6 -121 109 -168q12 0 18 -6q37 -23 82 -23q66 0 123 49q4 33 35 58q20 51 20 98q0 66 -39 108q-59 66 -141 66q-33 0 -66 -12q-72 -45 -94 -68q-49 -49 -47 -102zM203 45q0 -31 37 -41q119 -2 325 -4l23 25q14 371 4 1085q-8 15 -37 25l-254 10q-33 -4 -90 -31 q-8 -29 -8 -70v-999zM487 1458l29 -69l51 -54l64 -30l71 -2l70 26l55 47l29 68l2 72l-24 69l-52 51l-65 33h-72l-70 -24l-53 -50l-30 -65z" />
<glyph unicode="&#xf0;" horiz-adv-x="1179" d="M-80 600q0 -152 72 -276q86 -150 278 -236q35 -16 136 -37q2 -2 14 0q25 -4 74 2l8 -6q6 12 20 12q4 0 14.5 -2t16.5 -2q10 0 18 8q145 12 267.5 103.5t183.5 228.5q53 117 45 250q-12 195 -68 518q-8 61 -61 211l80 27q115 39 115 160q0 70 -49 120t-119 50 q-29 0 -56 -9l-67 -24q-25 90 -99 151q-72 55 -145 56q-57 0 -90 -39q-98 -113 -98 -199q0 -51 30 -104l-63 -21q-115 -39 -115 -160q0 -70 49 -120t121 -50q27 0 53 11l64 20q6 -31 14 -102q-98 18 -129 10q-8 -14 -31 -18q-31 -4 -36 -7q-190 -45 -316 -186 q-131 -150 -131 -340zM299 594q0 59 41 114.5t96 77.5q18 4 35 5q49 0 133 -64q47 -59 47 -135q0 -41 -14 -76q-43 -113 -168 -123q-53 -4 -117 60q-53 72 -53 141z" />
<glyph unicode="&#xf1;" horiz-adv-x="1093" d="M0 31q158 -43 362 -27q37 25 39 98q2 100 5 109q6 78 10 321q2 188 18 299q35 47 70 50q76 -18 86 -52q8 -420 8 -557q-6 -88 0 -260q166 -33 363 -12q18 6 22 26.5t8 39.5v755q1 76 -69 170q-96 135 -301 135q-37 0 -76 -4q-4 -2 -121 -28q-4 23 -27 30q-53 8 -166 19 q-2 16 -19 12t-24 2q-16 -8 -84 -8q-53 -2 -71 -33q-14 -362 -33 -1085zM78 1296q0 -4 2 -12q10 -31 41 -35q37 -4 102.5 79t130.5 83q12 0 25 -4q16 -33 117 -90q27 -25 86 -51q72 -35 123 -35q23 0 38 8q94 57 142 154q18 55 20 114q4 12 4 25l-2 2l6 39q0 4 5 45l-3 10 q0 12 -10 21q-4 45 -20 61q-35 33 -66 2l-37 -37q-37 -39 -51 -51q-31 -27 -45 -27q-31 10 -219 146q-33 25 -47 26q12 -2 20 -6q-6 0 -20 6h-4q-29 12 -60 13q-109 0 -215 -129q-51 -86 -63 -187v-170zM862 1663h15q-4 0 -13 -4q-2 2 -2 4zM913 1569q2 8 2 10l-2 -6v-4z " />
<glyph unicode="&#xf2;" horiz-adv-x="1028" d="M-39 768q0 -76 41 -500q6 -66 59 -143q123 -131 369 -131q59 0 188 10q2 0 115 37q68 20 109 49q129 84 129 291q0 47 -6 106q-12 135 -23 271q-18 156 -72 252q-98 133 -315 133q-53 0 -153.5 -9.5t-141.5 -9.5q-6 12 -14 13q-2 0 -29 -29q-217 -74 -252 -246 q-4 -45 -4 -94zM23 1591l28 -63l246 -258l49 -21l51 2l52 21l34 37l19 49v53l-160 322l-49 47l-64 24h-69l-66 -30l-47 -48l-24 -65v-70zM362 823q2 31 31 56.5t60 25.5q57 0 67 -49q14 -61 21 -158q6 -82 12 -161q0 -27 6 -86.5t6 -88.5q0 -94 -55 -135q-41 -4 -82 29 q-33 49 -41 170z" />
<glyph unicode="&#xf3;" horiz-adv-x="1042" d="M-31 768q0 -76 39 -500q6 -66 62 -143q121 -131 368 -131q59 0 189 10l112 37q70 20 111 49q129 84 129 291q0 47 -8 106q-10 135 -23 271q-18 156 -71 252q-96 133 -316 133q-53 0 -149 -8q-104 -10 -144 -11q-8 12 -16 13l-29 -29q-215 -74 -252 -246q-2 -45 -2 -94z M305 1358l17 -49l36 -37l50 -21l53 -2l49 21l244 258l30 63l-2 70l-22 65l-49 48l-64 30h-69l-66 -24l-49 -47l-158 -322v-53zM369 823q2 31 31.5 56.5t60.5 25.5q57 0 67 -49q12 -61 21 -158q6 -82 10 -161q0 -27 7 -86.5t7 -88.5q0 -94 -57 -135q-39 -4 -82 29 q-33 49 -39 170z" />
<glyph unicode="&#xf4;" horiz-adv-x="1028" d="M-39 768q0 -76 39 -500q6 -66 61 -143q121 -131 369 -131q59 0 188 10l113 37q70 20 111 49q129 84 129 291q0 47 -8 106q-10 135 -23 271q-18 156 -72 252q-96 133 -315 133q-53 0 -150 -8q-104 -10 -143 -11q-8 12 -16 13l-29 -29q-215 -74 -252 -246q-2 -45 -2 -94z M-6 1421l16 -49l37 -37l49 -20l54 -2l47 20l215 183l215 -183l49 -20l53 2l49 20l37 37l16 49v54q-258 326 -419 350q-45 -8 -105 -45q-139 -88 -313 -305v-54zM360 823q2 31 32 56.5t61 25.5q57 0 67 -49q12 -61 21 -158q6 -82 10 -161q0 -27 7 -86.5t7 -88.5 q0 -94 -57 -135q-39 -4 -82 29q-33 49 -39 170z" />
<glyph unicode="&#xf5;" horiz-adv-x="1013" d="M-59 1335q0 -2 34 -168q3 -4 7 -10q16 -27 47 -24q37 2 82 96q59 123 133 114q23 -31 137 -65q76 -41 180 -41q51 0 78 20q80 76 104 181q2 25 2 49q0 29 -6 65v9q0 14 -4 26l-2 33l-6 43l-4 10q-2 12 -14 19q-14 43 -33 55q-41 25 -64 -12l-28 -45q-29 -45 -39 -60 q-25 -33 -39 -37q-33 4 -244 97q-35 14 -47 14q8 0 14 -2q-25 10 -51 10q-125 0 -215 -182q-33 -94 -22 -195zM-45 768q0 -76 39 -500q6 -66 61 -143q123 -131 369 -131q59 0 188 10l113 37q70 20 111 49q129 84 129 291q-1 47 -9 106q-10 135 -22 271q-16 156 -72 252 q-96 133 -315 133q-53 0 -150 -8q-104 -10 -143 -11q-8 12 -14 13q-2 0 -31 -29q-215 -74 -252 -246q-2 -45 -2 -94zM354 823q2 31 32 56.5t60 25.5q57 0 68 -49q12 -61 21 -158q6 -82 12 -161q-2 -27 5 -86.5t7 -88.5q0 -94 -57 -135q-39 -4 -82 29q-33 49 -39 170z M672 1696q20 4 10 4q2 0 -10 -4zM682 1700h2h-2zM733 1616v10v-6v-4z" />
<glyph unicode="&#xf6;" horiz-adv-x="1028" d="M-47 768q0 -76 41 -500q6 -66 59 -143q123 -131 369 -131q59 0 188 10q2 0 115 37q68 20 109 49q129 84 129 291q-1 47 -7 106q-12 135 -22 271q-18 156 -72 252q-98 133 -315 133q-53 0 -153.5 -9.5t-141.5 -9.5q-6 12 -14 13q-2 0 -29 -29q-217 -74 -252 -246 q-4 -45 -4 -94zM-31 1397q4 -121 123 -158q12 2 21 -4q31 -14 67 -14q74 0 133 59q0 33 29 61q12 41 12 78q0 80 -49 125q-57 55 -129 55q-41 0 -82 -20q-68 -51 -88 -76q-45 -53 -37 -106zM354 823q2 31 31 56.5t59 25.5q57 0 68 -49q14 -61 20 -158q6 -82 13 -161 q0 -27 6 -86.5t6 -88.5q0 -94 -55 -135q-41 -4 -82 29q-33 49 -41 170zM453 1491l4 -72l35 -65l55 -47l67 -27l72 4l66 35l51 51l22 70l-4 71l-33 68l-55 47l-67 27l-72 -6l-68 -31l-47 -55z" />
<glyph unicode="&#xf7;" horiz-adv-x="1603" d="M0 655q25 -61 150 -63q166 2 495 -2l221 -6l4 6q141 6 289 -2q27 0 77 -3t71 -3q68 0 114 22q43 47 39 119q10 18 2 22q10 8 17 54q8 14 6 35q-4 28 -4 34q0 -2 -17 0q0 96 -37 131q-70 20 -176 21q-168 0 -178 2q-78 -8 -233 4l-187 4q2 -6 0 -10q-178 -4 -532 4 q-102 -23 -119 -129q-12 -90 -2 -240zM571 342l19 -72l41 -59l59 -43l70 -12l74 16l61 39l39 61l12 70l-14 74l-43 59l-58 41l-71 12l-74 -14l-59 -41l-41 -59zM571 1260l19 -74l41 -60l59 -41l70 -12l74 17l61 36l39 64l12 70l-14 73l-43 58l-58 43l-71 12l-74 -14l-59 -41 l-41 -62z" />
<glyph unicode="&#xf8;" horiz-adv-x="1107" d="M-2 768q0 -76 39 -500q6 -66 61 -143q35 -39 90 -70l-96 -213q-8 -16 -8 -35q0 -35 24.5 -59t59.5 -24q55 0 78 49l104 229q98 -14 305 2l113 37q70 20 111 49q129 84 129 291q-1 47 -9 106q-10 135 -22 271q-18 156 -72 252q-29 39 -65 67l110 246q8 18 8 35 q0 37 -24.5 61.5t-59.5 24.5q-55 0 -77 -49l-117 -258q-41 6 -90 6q-53 0 -150 -8q-104 -10 -143 -11q-8 12 -14 13q-2 0 -31 -29q-215 -74 -252 -246q-2 -45 -2 -94zM397 823q2 31 32 56.5t60 25.5q53 0 66 -45l-139 -307zM465 254l125 274q0 -25 6 -81t6 -85 q0 -94 -57 -135q-39 -4 -80 27z" />
<glyph unicode="&#xf9;" horiz-adv-x="999" d="M-43 328q-2 -18 10 -49q12 -37 15 -50q98 -162 237 -186q8 -4 31 -4q16 0 22 -12q70 16 211 49q18 -29 21 -33q10 -14 28 -20q31 -2 127 -15q76 -10 127 -10q27 0 52 2q23 14 28 51q8 61 8 66l89 975q-43 31 -110 41t-128 20q-14 -2 -45 1t-43 3q-55 0 -66 -53 q-8 -145 -36 -383q-31 -260 -39 -381l-15 -29q-47 -33 -82 -32q-14 0 -28 6q-43 27 -54 100l66 752l-8 20q-47 18 -150 41l-172 6q-10 6 -45 -22q-16 -43 -16 -131q0 -162 2 -144q-4 -63 -23 -289q-14 -186 -14 -290zM154 1591l28 -63l246 -258l49 -21l51 2l52 21l34 37 l19 49l-2 53l-158 322l-49 47l-66 24h-67l-66 -30l-49 -48l-22 -65v-70z" />
<glyph unicode="&#xfa;" horiz-adv-x="1007" d="M-31 328q0 -18 11 -49q14 -37 16 -50q98 -162 237 -186q8 -4 28 -4t26 -12q70 16 211 49q16 -29 18 -33q12 -14 31 -20q31 -2 127 -15q76 -10 125 -10q27 0 53 2q23 14 29 51q6 61 8 66l88 975q-43 31 -110 41t-128 20q-14 -2 -44.5 1t-43.5 3q-55 0 -67 -53 q-6 -145 -35 -383q-31 -260 -39 -381l-14 -29q-49 -33 -82 -32q-14 0 -29 6q-43 27 -53 100l65 752l-10 20q-47 18 -147 41l-172 6q-10 6 -45 -22q-16 -43 -17 -131q0 -162 2 -144q-4 -63 -22 -289q-16 -186 -17 -290zM422 1358l16 -49l37 -37l49 -21l54 -2l47 21l245 258 l31 63l-2 70l-22 65l-50 48l-63 30h-70l-65 -24l-49 -47l-158 -322v-53z" />
<glyph unicode="&#xfb;" horiz-adv-x="1021" d="M-37 328q-2 -18 10 -49q14 -37 15 -50q98 -162 239 -186q6 -4 26.5 -4t25.5 -12q72 16 213 49q16 -29 18 -33q10 -14 31 -20q29 -2 127 -15q76 -10 125 -10q27 0 51 2q25 14 28 51q8 61 11 66l88 975q-45 31 -115 43q-62 8 -125 18q-14 -2 -44 1t-42 3q-55 0 -67 -53 q-8 -145 -35 -383q-31 -260 -41 -381l-15 -29q-47 -33 -81 -32q-14 0 -29 6q-43 27 -51 100l63 752l-8 20q-47 18 -150 41l-170 6q-12 6 -47 -22q-16 -43 -16 -131q2 -162 2 -144q-2 -63 -23 -289q-14 -186 -14 -290zM100 1454l15 -51l32 -39l50 -25l51 -6l51 17l227 166 l201 -199l47 -23l51 -2l52 17l38 34l23 48l2 53q-233 344 -391 381q-47 -4 -109 -37q-145 -78 -336 -283z" />
<glyph unicode="&#xfc;" horiz-adv-x="1007" d="M-43 328q-2 -18 10 -49q14 -37 15 -50q98 -162 239 -186q6 -4 26.5 -4t24.5 -12q72 16 213 49q16 -29 19 -33q10 -14 31 -20q29 -2 127 -15q76 -10 124 -10q27 0 52 2q25 14 28 51q8 61 11 66l88 975q-45 31 -115 43q-62 8 -125 18q-14 -2 -44 1t-42 3q-55 0 -68 -53 q-8 -145 -34 -383q-31 -260 -41 -381l-15 -29q-47 -33 -82 -32q-14 0 -28 6q-43 27 -52 100l64 752l-8 20q-47 18 -150 41l-170 6q-12 6 -47 -22q-16 -43 -16 -131q2 -162 2 -144q-2 -63 -23 -289q-14 -186 -14 -290zM51 1509q0 -96 86 -147q12 0 17 -8q47 -37 104 -37 q53 0 104 31q8 33 41 53q37 63 37 123q0 45 -22 82q-57 90 -158 90q-18 0 -39 -4q-78 -33 -104 -54q-55 -39 -62 -92q-4 -18 -4 -37zM535 1448l18 -72l41 -59l57 -41l72 -14l72 16l63 39l37 61l14 70l-14 74l-43 59l-59 43l-70 10l-74 -12l-59 -43l-41 -59z" />
<glyph unicode="&#xfd;" horiz-adv-x="1114" d="M-23 1108q14 -90 23 -229q10 -182 14 -230q6 -111 11 -219q6 -127 30 -213q35 -88 122 -151.5t177 -63.5q37 0 114 15.5t107 17.5q27 -49 27 -98q0 -27 -14 -107q-43 -55 -92 -55q-12 0 -25 4q-14 -2 -37.5 8t-34.5 10q-16 0 -26 -18q-8 -41 -8 -74q0 -74 41 -108 q90 -66 202 -66q66 0 119 25q94 33 161.5 119.5t72.5 187.5l-23 440l-55 834l-21 34l-18 13q-90 2 -273 -17q-37 -18 -36 -67q0 -14 4 -40t4 -34q2 -27 12 -207q10 -135 8 -209q0 -27 7.5 -89t7.5 -93q0 -86 -39 -133q-53 -37 -97 -21q-49 16 -73 82q-31 467 -37 734 q-16 57 -94 63q-61 4 -125 6q-16 -12 -68.5 -18t-67.5 -33zM338 1358l16 -49l37 -37l49 -21l54 -2l49 21l245 258l29 63l-2 70l-22 65l-50 48l-63 30h-70l-63 -24l-51 -47l-158 -322v-53z" />
<glyph unicode="&#xfe;" horiz-adv-x="1179" d="M0 33q-2 -29 6 -174q25 -119 82 -160q72 -39 160 -39q76 0 128 34t83 156q-2 61 0 70q4 14 4 74l6 12q213 0 283 10q160 25 245 115q141 147 142 344q0 76 -23 152q-37 121 -139.5 212t-222.5 111q-49 2 -150 19l-2 -4q-53 -4 -121 -4q-2 37 0 104q-14 70 -22 90 q-16 47 -53 74q-57 37 -140 37q-82 0 -149 -35q-59 -39 -88 -158q-6 -49 -13 -172q-8 -31 -8 -59q2 -61 2 -135v-396q2 -113 6 -200q0 -12 -12 -29q4 -29 -4 -49zM461 623q4 14 20 16q-23 -2 27 -2q106 0 110 -2q63 -8 89 -60q16 -70 16 -108q0 -53 -27 -86 q-39 -27 -108 -27q-109 -2 -113 -2l-8 8q-10 63 -6 263z" />
<glyph unicode="&#xff;" horiz-adv-x="1019" d="M-47 1108q14 -90 22 -229q10 -182 15 -230q4 -111 8 -219q6 -127 33 -213q35 -88 121 -151.5t178 -63.5q35 0 112.5 15.5t108.5 17.5q27 -49 27 -98q0 -27 -17 -107q-41 -55 -92 -55q-12 0 -25 4q-12 -2 -35.5 8t-33.5 10q-16 0 -29 -18q-8 -41 -8 -74q0 -74 41 -108 q92 -66 205 -66q63 0 116 25q94 33 162 119.5t74 187.5l-25 440l-53 834l-20 34l-21 13q-90 2 -270 -17q-37 -18 -37 -67q0 -14 4 -40t4 -34q0 -27 12 -207q8 -135 9 -209q0 -27 6 -89t6 -93q0 -86 -39 -133q-51 -37 -96 -21q-47 16 -72 82q-33 467 -37 734q-16 57 -94 63 q-63 4 -127 6q-14 -12 -72 -18q-47 -6 -61 -33zM-2 1479q-7 -121 108 -168q12 0 19 -8q37 -20 82 -21q66 0 123 49q4 33 35 58q18 51 18 98q0 66 -37 108q-59 66 -141 66q-33 0 -68 -12q-70 -45 -94 -68q-49 -49 -45 -102zM485 1456l29 -67l49 -54l66 -30l71 -2l70 26l55 47 l27 68l4 72l-27 69l-51 53l-63 31h-72l-72 -24l-53 -50l-31 -65z" />
<glyph unicode="&#x152;" horiz-adv-x="1800" d="M-6 1001q0 -41 4 -116q6 -82 6 -119v-129q2 -238 84 -350q158 -217 404 -213q205 4 296 30q20 -12 41 -18q141 -6 414 6q57 10 139 10h35h35q164 0 252 82q8 12 17.5 26.5t19.5 14.5q4 -8 -2 -16l16 35q12 76 -29 125v-9q2 -6 -10 -6q-35 49 -160 74v2q-61 -2 -167 -12 q-94 -10 -154 -10q-45 0 -92 4l-27 12q-8 33 8 63q-2 55 -16 121q-2 18 8 29.5t27 9.5q45 6 98 6q20 0 53 -2h52q133 0 215 72q43 76 43 123q0 16 -5 35h-4q-2 8 -4 18t-12 10q-51 92 -145 92l-326 5q-20 18 0 79q8 29 4 82q-4 57 0 78q121 10 416 10q98 12 172 109 q31 80 6 131q-41 78 -145 94q-197 -6 -629 -10q-121 0 -170 -39q-104 39 -211 39q-252 0 -420 -170q-137 -139 -137 -408zM393 881q-4 119 2 200q8 25 18.5 53.5t30.5 45.5q49 49 117 41q96 -31 117 -91q0 -72 7 -223t7 -229q0 -100 -8 -182q-25 -78 -82 -97q-12 -4 -24 -4 q-35 0 -115 41q-55 57 -55 119q0 14 4 29h2q0 -2 -6 100h-5q-4 98 -10 197z" />
<glyph unicode="&#x153;" horiz-adv-x="1689" d="M-2 768q0 -76 39 -500q6 -66 61 -143q123 -131 369 -131q59 0 188 10q61 16 179 62q135 -68 288 -68q164 0 308 78q84 45 130 124t35 171q-25 43 -82 43q-12 0 -39.5 -2t-41.5 -2q-17 0 -29 2q-51 0 -162 -25q-16 -63 -22 -78q-18 -45 -54 -61q-18 -8 -73 -2 q-25 14 -54 53q-23 139 13 190q182 18 280 9q23 2 71 -2t68 -4q90 0 121 61q25 240 -16 367q-80 250 -436 249q-119 0 -242 -30q-39 -8 -92 -41q-82 45 -215 45q-53 0 -150 -8q-104 -10 -143 -11q-8 12 -14 13q-2 0 -31 -29q-215 -74 -252 -246q-2 -45 -2 -94zM397 823 q2 31 32 56.5t60 25.5q57 0 68 -49q12 -61 21 -158q6 -82 12 -161q-2 -27 5 -86.5t7 -88.5q0 -94 -57 -135q-39 -4 -82 29q-33 49 -39 170zM1026 725q-24 103 21 166q45 43 110 24q43 -20 51 -49q31 -84 11 -139q-63 -12 -193 -2z" />
<glyph unicode="&#x178;" horiz-adv-x="972" d="M-193 1243q0 -45 17 -86q61 -102 180 -246q100 -119 201 -237l12 -35q12 -78 27 -291q12 -182 35 -282q29 -88 127 -99q57 -6 92 -6q131 0 198 82q39 51 21 162q-2 84 -25 250q-23 160 -24 247q92 174 139 289q37 82 76 164q43 98 43 174q0 26 -4 51q-18 68 -131 117 q-35 6 -64 6q-127 0 -213 -149q-63 -129 -125 -258q-68 88 -135 174q-84 106 -160 149q-31 8 -63 8q-100 0 -172 -55q-51 -49 -52 -129zM-170 1747q6 -121 125 -156q12 2 20 -6q29 -12 66 -12q76 0 135 59q0 33 29 62q10 41 10 78q0 80 -49 124q-57 53 -129 54 q-41 0 -82 -19q-66 -53 -88 -78q-45 -51 -37 -106zM315 1845l4 -71l35 -68l54 -47l67 -25l72 4l67 35l50 51l22 70l-4 72l-33 67l-55 47l-68 25l-71 -6l-68 -31l-47 -55z" />
<glyph unicode="&#x2c6;" horiz-adv-x="882" d="M0 1782l18 -49l35 -37l51 -21l52 -4l49 21l215 184l215 -184l47 -21l53 4l49 21l37 37l19 49l-2 51q-258 328 -418 350q-47 -6 -105 -43q-141 -88 -315 -307v-51z" />
<glyph unicode="&#x2dc;" horiz-adv-x="870" d="M0 1677q0 -4 2 -12q12 -31 41 -35q37 -6 102.5 78t130.5 84q12 0 25 -4q16 -33 119 -90q27 -25 84 -51q74 -35 123 -35q25 0 41 8q92 57 139 154q20 55 20 114q4 12 4 23q0 2 -2 4l9 39q0 4 2 45v10q-2 12 -11 21q-4 45 -22 61q-35 33 -64 2l-38 -39q-37 -37 -52 -49 q-29 -27 -45 -27q-31 10 -217 146q-35 25 -49 26q12 -2 20 -6q-6 0 -20 6h-2q-31 12 -61 13q-109 0 -213 -129q-51 -86 -64 -187zM827 2001q10 2 15 0q-5 0 -13 -2q-2 0 -2 2z" />
<glyph unicode="&#x2000;" horiz-adv-x="1113" />
<glyph unicode="&#x2001;" horiz-adv-x="2226" />
<glyph unicode="&#x2002;" horiz-adv-x="1113" />
<glyph unicode="&#x2003;" horiz-adv-x="2226" />
<glyph unicode="&#x2004;" horiz-adv-x="742" />
<glyph unicode="&#x2005;" horiz-adv-x="556" />
<glyph unicode="&#x2006;" horiz-adv-x="371" />
<glyph unicode="&#x2007;" horiz-adv-x="371" />
<glyph unicode="&#x2008;" horiz-adv-x="278" />
<glyph unicode="&#x2009;" horiz-adv-x="445" />
<glyph unicode="&#x200a;" horiz-adv-x="123" />
<glyph unicode="&#x2010;" d="M0 788l57 -137l84 -90l119 -18l168 -15l174 2l137 5l140 45l88 88l22 120l-43 138l-86 86l-121 24l-166 11l-176 -11l-137 -2l-135 -43l-84 -86z" />
<glyph unicode="&#x2011;" d="M0 788l57 -137l84 -90l119 -18l168 -15l174 2l137 5l140 45l88 88l22 120l-43 138l-86 86l-121 24l-166 11l-176 -11l-137 -2l-135 -43l-84 -86z" />
<glyph unicode="&#x2012;" d="M0 788l57 -137l84 -90l119 -18l168 -15l174 2l137 5l140 45l88 88l22 120l-43 138l-86 86l-121 24l-166 11l-176 -11l-137 -2l-135 -43l-84 -86z" />
<glyph unicode="&#x2013;" horiz-adv-x="1484" d="M0 788l31 -143l92 -84l121 -26l231 10h164l170 -17l190 19l148 -12l141 40l74 99l45 114l-43 146l-98 78l-119 41h-229l-166 -4l-170 -15l-148 4l-190 17l-140 -58l-79 -94z" />
<glyph unicode="&#x2014;" horiz-adv-x="1910" d="M0 788l39 -139l92 -80l117 -41l170 19l379 -12l254 -17l217 25l157 -4l107 10l145 20l90 93l13 126l-33 144l-90 92l-125 20l-170 5l-168 8l-211 -13l-254 5l-176 -9l-199 9l-106 -11l-135 -49l-90 -82z" />
<glyph unicode="&#x2018;" horiz-adv-x="530" d="M0 1280q0 -90 49 -154q56 -71 146 -71q82 0 138 56t56 136q0 57 -37 109q-43 59 -119 69q37 45 78 58q78 27 78 94q0 35 -26.5 62.5t-67.5 27.5q-106 0 -200.5 -114.5t-94.5 -272.5z" />
<glyph unicode="&#x2019;" horiz-adv-x="546" d="M0 1145q0 -35 26.5 -62.5t67.5 -27.5q106 0 200.5 114.5t94.5 272.5q0 90 -49 153q-55 72 -145 72q-82 0 -138.5 -56.5t-56.5 -135.5q0 -59 35 -109q43 -59 121 -70q-39 -45 -78 -57q-78 -29 -78 -94z" />
<glyph unicode="&#x201a;" horiz-adv-x="522" d="M0 201l55 -353l31 -43l41 -30l51 -11l53 13l45 28l27 43l53 353l-14 71l-39 56l-57 39l-68 12l-69 -14l-56 -39l-39 -58z" />
<glyph unicode="&#x201c;" horiz-adv-x="940" d="M0 1280q0 -90 49 -154q56 -71 146 -71q82 0 138 56t56 136q0 57 -37 109q-43 59 -119 69q37 45 78 58q78 27 78 94q0 35 -26.5 62.5t-67.5 27.5q-106 0 -200.5 -114.5t-94.5 -272.5zM410 1280q0 -90 49 -154q53 -71 145 -71q82 0 138.5 56t56.5 136q0 57 -37 109 q-43 59 -119 69q37 45 76 58q80 27 80 94q0 35 -28 62.5t-66 27.5q-109 0 -199 -113q-96 -117 -96 -274z" />
<glyph unicode="&#x201d;" horiz-adv-x="909" d="M0 1145q0 -35 26.5 -62.5t67.5 -27.5q106 0 200.5 114.5t94.5 272.5q0 90 -49 153q-55 72 -145 72q-82 0 -138.5 -56.5t-56.5 -135.5q0 -59 35 -109q43 -59 121 -70q-39 -45 -78 -57q-78 -29 -78 -94zM410 1145q0 -35 26.5 -62.5t65.5 -27.5q109 0 198 112q98 117 99 275 q0 90 -51 153q-54 72 -144 72q-82 0 -138 -56.5t-56 -135.5q0 -59 34 -109q43 -59 119 -70q-37 -45 -76 -57q-78 -29 -77 -94z" />
<glyph unicode="&#x201e;" horiz-adv-x="909" d="M0 201l55 -353l31 -43l41 -30l51 -11l53 13l45 28l27 43l53 353l-14 71l-39 56l-57 39l-68 12l-69 -14l-56 -39l-39 -58zM395 201l56 -353l28 -43l43 -30l51 -11l54 13l45 28l26 43l54 353l-15 71l-41 56l-55 39l-68 12l-69 -14l-58 -39l-38 -58z" />
<glyph unicode="&#x2022;" horiz-adv-x="841" d="M0 770q0 -143 101.5 -244.5t244.5 -101.5t244.5 101.5t101.5 244.5t-101.5 244.5t-244.5 101.5t-244.5 -101.5t-101.5 -244.5z" />
<glyph unicode="&#x2026;" horiz-adv-x="1923" d="M0 201l18 -72l41 -59l60 -43l69 -13l74 17l62 39l38 61l13 70l-15 73l-43 60l-57 41l-72 12l-73 -12l-60 -43l-41 -60zM621 201l18 -72l41 -59l59 -43l70 -13l74 17l61 39l39 61l12 70l-14 73l-43 60l-57 41l-72 12l-74 -12l-59 -43l-41 -60zM1270 201l18 -72l41 -59 l57 -43l72 -13l72 17l63 39l37 61l15 70l-15 73l-43 60l-59 41l-70 12l-74 -12l-59 -43l-41 -60z" />
<glyph unicode="&#x202f;" horiz-adv-x="445" />
<glyph unicode="&#x2039;" horiz-adv-x="821" d="M-70 733q0 -78 56 -135l381 -381q55 -55 135 -55q78 0 134 56t56 134q0 80 -57 135l-246 246l285 285q55 55 55 135q0 78 -55.5 134t-134.5 56q-78 0 -136 -57l-417 -418q-55 -55 -56 -135z" />
<glyph unicode="&#x203a;" horiz-adv-x="790" d="M-55 1153q0 78 55 134t135 56q78 0 133 -57l420 -418q55 -55 55 -135q0 -78 -55 -135l-381 -381q-55 -55 -135 -55q-78 0 -134 56t-56 134q0 80 55 135l248 246l-285 285q-55 55 -55 135z" />
<glyph unicode="&#x205f;" horiz-adv-x="556" />
<glyph unicode="&#x2122;" horiz-adv-x="1488" d="M0 1405q12 -53 76 -66q57 -6 112 -10q25 0 27 -10q0 -195 -6 -571q-2 -123 47 -164q39 -33 131 -17q86 16 98 78q0 41 7 160q6 100 2 160q2 25 -2 75q-2 8 6 23h-4q0 2 4 14q4 68 -11 199q-4 27 2 39q53 -2 154 6q0 -57 6 -313q2 -193 0 -316q0 -43 19 -71 q37 -51 104 -52q14 0 27 2q66 18 84 95q2 78 -9 233l7 12q12 -4 19 -21.5t13 -33.5q12 -33 25 -65q16 -41 43 -56q29 -8 53 15q6 8 70 163q6 2 14 -2q-2 -72 -6 -213q-8 -8 2 -28l-4 -2l4 -9q0 -2 -4 -2q4 -10 7 -22t16 -12l2 -11q43 -43 104 -43q20 0 41 6q53 20 70 91v706 q-1 102 -19 141q-6 12 -47 43q-33 16 -65 17q-37 0 -64 -19l-2 2v-6q-2 0 -4 -3t-9 -5t-10 -6q-16 -18 -33.5 -54t-43 -113t-45.5 -114q-10 -8 -19 5q-18 33 -63 133q-20 51 -39 100q-27 55 -74 70q-74 25 -123 -23q-16 2 -43 14q-135 6 -403 21q-20 -2 -60 0q-45 4 -61 4 q-63 0 -96 -29q-49 -47 -27 -145z" />
<glyph unicode="&#x25fc;" horiz-adv-x="1208" d="M0 0v1208h1208v-1208h-1208z" />
</font>
</defs>
</svg>
