<?xml version="1.0" encoding="UTF-8" standalone="no"?>
<!DOCTYPE svg  PUBLIC '-//W3C//DTD SVG 1.1//EN'  'http://www.w3.org/Graphics/SVG/1.1/DTD/svg11.dtd'>
<svg xmlns="http://www.w3.org/2000/svg">
<defs>
<font id="RoundsBlack-Regular" horiz-adv-x="670">
<font-face underline-position="-50" font-weight="400" descent="-200" panose-1="2 0 5 3 3 0 0 2 0 3" units-per-em="1000" unicode-range="U+0020-2122" bbox="-20 -220 1255 810" x-height="700" underline-thickness="50" font-family="RoundsBlack" ascent="800" cap-height="710"/>
<missing-glyph horiz-adv-x="1000"/>
<glyph glyph-name=".notdef" horiz-adv-x="1000"/>
<glyph glyph-name=".null" horiz-adv-x="0"/>
<glyph glyph-name="nonmarkingreturn" horiz-adv-x="333"/>
<glyph glyph-name="space" horiz-adv-x="280" unicode=" "/>
<glyph glyph-name="exclam" horiz-adv-x="310" unicode="!" d="M155 720q52 0 86 -32t34 -78l-20 -270q-8 -100 -100 -100t-100 100l-20 270q0 46 34 78t86 32zM155 200q52 0 83.5 -29.5t31.5 -75.5t-31.5 -75.5t-83.5 -29.5t-83.5 29.5t-31.5 75.5t31.5 75.5t83.5 29.5z"/>
<glyph glyph-name="quotedbl" horiz-adv-x="460" unicode='&quot;' d="M345 400q-29 0 -47.5 15.5t-22.5 39.5l-25 165q0 38 27 64t68 26t68 -26t27 -64l-25 -165q-4 -24 -22.5 -39.5t-47.5 -15.5zM115 400q-29 0 -47.5 15.5t-22.5 39.5l-25 165q0 38 27 64t68 26t68 -26t27 -64l-25 -165q-4 -24 -22.5 -39.5t-47.5 -15.5z"/>
<glyph glyph-name="numbersign" horiz-adv-x="780" unicode="#" d="M355 395l-25 -90h90l25 90h-90zM95 160h-15q-34 0 -57 23t-23 57t23 57t57 23h60l15 60h-10q-34 0 -57 23t-23 57t23 57t57 23h60l20 75q25 95 115 95q40 0 67.5 -25.5t27.5 -59.5q0 -11 -2.5 -25t-4.5 -22l-3 -8l-10 -30h60l20 75q25 95 115 95q40 0 67.5 -25.5 t27.5 -59.5q0 -11 -2.5 -25t-4.5 -22l-3 -8l-10 -30h15q34 0 57 -23t23 -57t-23 -57t-57 -23h-60l-20 -60h15q34 0 57 -23t23 -57t-23 -57t-57 -23h-60l-20 -75q-25 -95 -115 -95q-40 0 -67.5 25.5t-27.5 59.5q0 11 2.5 25t4.5 22l3 8l10 30h-60l-20 -75q-25 -95 -115 -95 q-40 0 -67.5 25.5t-27.5 59.5q0 11 2.5 25t4.5 22l3 8z"/>
<glyph glyph-name="dollar" horiz-adv-x="645" unicode="$" d="M400 220q0 14 -27.5 24.5t-68.5 18.5t-89 24.5t-89 39t-68.5 65t-27.5 98.5q0 80 52 138t133 77v5q0 46 29 73t81 27t81 -27t29 -73q66 -15 118 -64.5t52 -95.5q0 -42 -27.5 -66t-82.5 -24q-41 0 -84.5 35t-80.5 35q-35 0 -52.5 -11.5t-17.5 -28.5q0 -16 27.5 -28.5 t68.5 -21.5t89 -25.5t89 -37.5t68.5 -62t27.5 -95q0 -88 -53 -147t-142 -78v-5q0 -46 -29 -73t-81 -27t-81 27t-29 73q-94 14 -147 59.5t-53 100.5q0 42 27.5 66t82.5 24q39 0 85.5 -35t89.5 -35q52 0 76 14.5t24 35.5z"/>
<glyph glyph-name="percent" horiz-adv-x="885" unicode="%" d="M725 145v45q0 11 -9.5 20.5t-20.5 9.5t-20.5 -9.5t-9.5 -20.5v-45q0 -11 9.5 -20.5t20.5 -9.5t20.5 9.5t9.5 20.5zM515 145v45q0 66 49.5 110.5t130.5 44.5t130.5 -44.5t49.5 -110.5v-45q0 -65 -49.5 -110t-130.5 -45t-130.5 45t-49.5 110zM220 510v45q0 11 -9.5 20.5 t-20.5 9.5t-20.5 -9.5t-9.5 -20.5v-45q0 -11 9.5 -20.5t20.5 -9.5t20.5 9.5t9.5 20.5zM10 510v45q0 66 49.5 110.5t130.5 44.5t130.5 -45t49.5 -110v-45q0 -66 -49.5 -110.5t-130.5 -44.5t-130.5 44.5t-49.5 110.5zM700 555l-365 -515q-3 -6 -10 -14t-31.5 -22t-53.5 -14 q-34 0 -57 23t-23 57q0 18 6 36.5t12 28.5l7 10l365 515q3 6 10 14t31.5 22t53.5 14q34 0 57 -23t23 -57q0 -18 -6.5 -36.5t-12.5 -28.5z"/>
<glyph glyph-name="ampersand" horiz-adv-x="760" unicode="&amp;" d="M340 550q-18 0 -31.5 -12.5t-13.5 -27.5q0 -13 11.5 -25.5t22.5 -18.5l11 -6q5 2 12.5 6.5t20 17.5t12.5 26q0 15 -13.5 27.5t-31.5 12.5zM240 200q0 -16 16 -28t44 -12q18 0 33 7.5t21 14.5l6 8l-75 65q-5 -2 -12.5 -5.5t-20 -17.5t-12.5 -32zM520 60h-10 q-2 -3 -7.5 -8.5t-25.5 -19.5t-44.5 -24.5t-68.5 -19t-94 -8.5q-115 0 -187.5 60.5t-72.5 139.5q0 39 15.5 73t37.5 54.5t44 35.5t37 21l16 6v10q-3 2 -8 5t-18 15.5t-23 27t-18 39.5t-8 53q0 79 72 139.5t184 60.5q111 0 182.5 -60.5t71.5 -139.5q0 -31 -12 -57.5 t-28.5 -43t-33.5 -28t-29 -16.5l-12 -5v-10l35 -30q4 6 12.5 14t33.5 22t49 14q45 0 72.5 -27.5t27.5 -72.5q0 -13 -9 -29.5t-17 -26.5l-9 -10v-10q75 -51 75 -114q0 -41 -29.5 -70.5t-70.5 -29.5q-28 0 -55 13t-40.5 24.5t-34.5 32.5z"/>
<glyph glyph-name="quotesingle" horiz-adv-x="230" unicode="&apos;" d="M115 400q-29 0 -47.5 15.5t-22.5 39.5l-25 165q0 38 27 64t68 26t68 -26t27 -64l-25 -165q-4 -24 -22.5 -39.5t-47.5 -15.5z"/>
<glyph glyph-name="parenleft" horiz-adv-x="435" unicode="(" d="M265 285q0 -74 17.5 -135.5t42.5 -100t50 -69.5t42.5 -58.5t17.5 -51.5q0 -38 -26.5 -64t-63.5 -26q-46 0 -99 35.5t-100.5 98t-79 161t-31.5 210.5t31.5 210.5t79 161t100.5 98t99 35.5q37 0 63.5 -26t26.5 -64q0 -24 -17.5 -51.5t-42.5 -58.5t-50 -69.5t-42.5 -100 t-17.5 -135.5z"/>
<glyph glyph-name="parenright" horiz-adv-x="435" unicode=")" d="M170 285q0 74 -17.5 135.5t-42.5 100t-50 69.5t-42.5 58.5t-17.5 51.5q0 38 26 64t64 26q46 0 99 -35.5t100.5 -98t79 -161t31.5 -210.5t-31.5 -210.5t-79 -161t-100.5 -98t-99 -35.5q-38 0 -64 26t-26 64q0 24 17.5 51.5t42.5 58.5t50 69.5t42.5 100t17.5 135.5z"/>
<glyph glyph-name="asterisk" horiz-adv-x="452" unicode="*" d="M228 395h-4q-24 -59 -38 -80q-21 -31 -58 -31q-20 0 -42 11q-34 19 -34 58q0 22 14 42q11 16 31 32t35 25l14 8v5q-33 -5 -63 -5q-27 0 -37 5q-45 20 -45 68q0 12 5 27q9 23 27.5 35.5t39.5 12.5q9 0 18 -3q16 -4 36 -16.5t32 -22.5l12 -11l5 5l-2 6q-3 5 -6.5 14.5 t-7.5 20.5t-6.5 24.5t-2.5 24.5q0 30 21 50t54 20t54 -20t21 -50q0 -11 -2.5 -24.5t-6.5 -24.5t-7.5 -20.5t-6.5 -14.5l-2 -6l5 -5q45 40 80 50q9 3 18 3q21 0 39.5 -12.5t27.5 -35.5q5 -15 5 -27q0 -48 -45 -68q-10 -5 -37 -5l-63 5v-5q55 -30 80 -65q14 -20 14 -42 q0 -39 -34 -58q-22 -11 -42 -11q-37 0 -58 31q-6 9 -15.5 29t-16.5 36z"/>
<glyph glyph-name="plus" horiz-adv-x="570" unicode="+" d="M195 515q0 44 26 72t64 28t64 -28t26 -72v-85h85q44 0 72 -26t28 -64t-28 -64t-72 -26h-85v-85q0 -44 -26 -72t-64 -28t-64 28t-26 72v85h-85q-44 0 -72 26t-28 64t28 64t72 26h85v85z"/>
<glyph glyph-name="comma" horiz-adv-x="255" unicode="," d="M10 95q0 46 31.5 75.5t83.5 29.5q47 0 78.5 -36.5t31.5 -98.5q0 -75 -54 -130t-126 -55q-18 0 -29 10t-11 25t11 25.5t25 15.5t27.5 16t16.5 28q-34 0 -59.5 27.5t-25.5 67.5z"/>
<glyph glyph-name="hyphen" horiz-adv-x="520" unicode="-" d="M410 430q44 0 72 -26t28 -64t-28 -64t-72 -26h-300q-44 0 -72 26t-28 64t28 64t72 26h300z"/>
<glyph glyph-name="period" horiz-adv-x="270" unicode="." d="M135 200q52 0 83.5 -29.5t31.5 -75.5t-31.5 -75.5t-83.5 -29.5t-83.5 29.5t-31.5 75.5t31.5 75.5t83.5 29.5z"/>
<glyph glyph-name="slash" horiz-adv-x="560" unicode="/" d="M530 595l-325 -595q-3 -6 -9.5 -14t-29 -22t-46.5 -14q-51 0 -80.5 25.5t-29.5 64.5q0 13 5 29.5t10 26.5l5 9l325 595q3 6 9.5 14t29 22t46.5 14q51 0 80.5 -25.5t29.5 -64.5q0 -13 -5 -29.5t-10 -26.5z"/>
<glyph glyph-name="zero" horiz-adv-x="700" unicode="0" d="M40 255v190q0 119 85 197t225 78t225 -78t85 -197v-190q0 -119 -85 -197t-225 -78t-225 78t-85 197zM435 255v190q0 47 -25 76t-60 29t-60 -29t-25 -76v-190q0 -47 25 -76t60 -29t60 29t25 76z"/>
<glyph glyph-name="one" horiz-adv-x="485" unicode="1" d="M420 610v-520q0 -46 -29 -73t-81 -27t-81 27t-29 73v290h-10q-4 -6 -12.5 -14t-34.5 -22t-53 -14q-38 0 -64 26t-26 64q0 18 10 38t20 31l10 11l160 165q4 5 13 12.5t37.5 20t59.5 12.5q52 0 81 -27t29 -73z"/>
<glyph glyph-name="two" horiz-adv-x="630" unicode="2" d="M610 475q0 -42 -15 -75.5t-38 -55t-56.5 -41.5t-63.5 -32t-67 -29t-60 -32v-10h190q52 0 81 -27t29 -73q0 -45 -29 -72.5t-81 -27.5h-370q-52 0 -86 32t-34 78q0 59 27.5 107t68.5 77.5t89 56t89 43.5t68.5 38t27.5 43q0 24 -20.5 39.5t-59.5 15.5q-37 0 -80.5 -35 t-84.5 -35q-110 0 -110 89q0 65 75.5 118t199.5 53q145 0 227.5 -69.5t82.5 -175.5z"/>
<glyph glyph-name="three" horiz-adv-x="640" unicode="3" d="M540 500l-120 -80v-10q8 -1 21.5 -3.5t48 -15t61 -32t48 -57.5t21.5 -87q0 -99 -84.5 -167t-235.5 -68q-131 0 -210.5 54.5t-79.5 114.5q0 91 110 91q39 0 86.5 -35t93.5 -35t68 15.5t22 39.5t-20.5 39.5t-59.5 15.5h-90q-37 0 -58.5 19.5t-21.5 50.5q0 20 12.5 39 t25.5 27l12 9l100 65v10h-145q-52 0 -81 27t-29 73t29 73t81 27h345q52 0 81 -27t29 -73q0 -27 -15 -52t-30 -36z"/>
<glyph glyph-name="four" horiz-adv-x="700" unicode="4" d="M275 350h95v120h-10l-85 -110v-10zM590 150v-60q0 -46 -29 -73t-81 -27t-81 27t-29 73v60h-250q-52 0 -81 27t-29 73q0 22 10 47t20 39l10 14l180 239q52 69 98 100t122 31q59 0 99.5 -38.5t40.5 -91.5v-240q45 0 72.5 -27.5t27.5 -72.5t-27.5 -72.5t-72.5 -27.5z"/>
<glyph glyph-name="five" horiz-adv-x="640" unicode="5" d="M275 500v-60q50 10 100 10q110 0 180 -64t70 -156q0 -109 -83 -179.5t-232 -70.5q-131 0 -210.5 54.5t-79.5 114.5q0 91 110 91q39 0 86.5 -35t93.5 -35q39 0 62 18t23 42t-22 42t-58 18q-35 0 -75 -10t-75 -10q-52 0 -81 27t-29 73v240q0 90 90 90h340q52 0 81 -27 t29 -73t-29 -73t-81 -27h-210z"/>
<glyph glyph-name="six" horiz-adv-x="665" unicode="6" d="M270 455v-15q40 10 100 10q131 0 205.5 -64.5t74.5 -165.5q0 -109 -77 -174.5t-223 -65.5q-142 0 -226 74t-84 186v215q0 119 81.5 192t228.5 73q124 0 199.5 -53t75.5 -118q0 -89 -110 -89q-41 0 -84.5 35t-80.5 35t-58.5 -20.5t-21.5 -54.5zM270 270v-29 q0 -34 23 -57.5t57 -23.5q29 0 49.5 18.5t20.5 41.5q0 24 -24 42t-66 18q-13 0 -28 -2.5t-24 -5.5z"/>
<glyph glyph-name="seven" horiz-adv-x="595" unicode="7" d="M570 500l-205 -430q-36 -80 -110 -80q-47 0 -81 27.5t-34 62.5q0 18 5 38t10 31l5 11l160 330v10h-210q-52 0 -81 27t-29 73t29 73t81 27h375q52 0 81 -27t29 -73q0 -22 -6.5 -47t-12.5 -39z"/>
<glyph glyph-name="eight" d="M335 450q50 17 50 60q0 19 -14 32t-36 13t-36 -13t-14 -32q0 -43 50 -60zM335 150q40 0 65 21t25 49q0 50 -90 80q-90 -30 -90 -80q0 -28 25 -49t65 -21zM335 720q135 0 207.5 -55t72.5 -135q0 -44 -25 -79t-50 -48l-25 -13v-10q6 -2 15.5 -5.5t33.5 -18t42.5 -32.5 t33.5 -51.5t15 -72.5q0 -96 -81.5 -158t-238.5 -62t-238.5 62t-81.5 158q0 39 14.5 72t35 52t41 32.5t34.5 18.5l15 5v10q-4 2 -11 5t-24 15.5t-30 27t-24 39.5t-11 53q0 80 72.5 135t207.5 55z" unicode="8"/>
<glyph glyph-name="nine" horiz-adv-x="665" unicode="9" d="M395 245v15q-40 -10 -100 -10q-131 0 -205.5 64.5t-74.5 165.5q0 109 77 174.5t223 65.5q142 0 226 -74t84 -186v-215q0 -119 -81.5 -192t-228.5 -73q-124 0 -199.5 53t-75.5 118q0 89 110 89q41 0 84.5 -35t80.5 -35t58.5 20.5t21.5 54.5zM395 430v29q0 34 -23 57.5 t-57 23.5q-29 0 -49.5 -18.5t-20.5 -41.5q0 -24 23.5 -42t66.5 -18q13 0 28 2.5t23 5.5z"/>
<glyph glyph-name="colon" horiz-adv-x="270" unicode=":" d="M135 530q52 0 83.5 -29.5t31.5 -75.5t-31.5 -75.5t-83.5 -29.5t-83.5 29.5t-31.5 75.5t31.5 75.5t83.5 29.5zM135 200q52 0 83.5 -29.5t31.5 -75.5t-31.5 -75.5t-83.5 -29.5t-83.5 29.5t-31.5 75.5t31.5 75.5t83.5 29.5z"/>
<glyph glyph-name="semicolon" horiz-adv-x="260" unicode=";" d="M10 95q0 46 31.5 75.5t83.5 29.5q47 0 78.5 -36.5t31.5 -98.5q0 -80 -52 -137.5t-118 -57.5q-22 0 -36 13t-14 32t15.5 29.5t36 22.5t28.5 33q-34 0 -59.5 27.5t-25.5 67.5zM125 530q52 0 83.5 -29.5t31.5 -75.5t-31.5 -75.5t-83.5 -29.5t-83.5 29.5t-31.5 75.5 t31.5 75.5t83.5 29.5z"/>
<glyph glyph-name="less" horiz-adv-x="590" unicode="&lt;" d="M20 260q0 105 120 145l240 90q60 25 95 25q41 0 68 -24t27 -61q0 -44 -23 -67t-77 -38l-200 -65v-10l200 -65q53 -16 76.5 -40t23.5 -65q0 -38 -25.5 -61.5t-69.5 -23.5q-16 0 -39.5 6t-39.5 12l-16 7l-240 90q-62 23 -91 56.5t-29 88.5z"/>
<glyph glyph-name="equal" horiz-adv-x="550" unicode="=" d="M115 310h320q40 0 67.5 -25.5t27.5 -59.5t-27.5 -59.5t-67.5 -25.5h-320q-40 0 -67.5 25.5t-27.5 59.5t27.5 59.5t67.5 25.5zM115 540h320q40 0 67.5 -25.5t27.5 -59.5t-27.5 -59.5t-67.5 -25.5h-320q-40 0 -67.5 25.5t-27.5 59.5t27.5 59.5t67.5 25.5z"/>
<glyph glyph-name="greater" horiz-adv-x="590" unicode="&gt;" d="M570 260q0 -55 -29 -88.5t-91 -56.5l-240 -90q-60 -25 -95 -25q-44 0 -69.5 23.5t-25.5 61.5q0 41 23.5 65t76.5 40l200 65v10l-200 65q-54 15 -77 38t-23 67q0 37 27 61t68 24q16 0 39.5 -6.5t39.5 -12.5l16 -6l240 -90q120 -40 120 -145z"/>
<glyph glyph-name="question" horiz-adv-x="590" unicode="?" d="M280 200q52 0 83.5 -29.5t31.5 -75.5t-31.5 -75.5t-83.5 -29.5t-83.5 29.5t-31.5 75.5t31.5 75.5t83.5 29.5zM185 340q7 30 32 55.5t51 38.5t46.5 28t20.5 28q0 16 -16 28t-44 12q-31 0 -72 -35t-83 -35q-55 0 -82.5 24t-27.5 66q0 66 71 118t194 52q139 0 217 -61 t78 -149q0 -36 -14 -63t-35.5 -43t-44 -28t-43 -26t-28.5 -30q-40 -80 -120 -80q-46 0 -74 22t-28 58q0 13 2 20z"/>
<glyph glyph-name="at" horiz-adv-x="1000" unicode="@" d="M550 265v60q0 19 -14 32t-36 13t-36 -13t-14 -32v-60q0 -19 14 -32t36 -13t36 13t14 32zM595 150h-5q-4 -6 -13 -14t-40 -22t-67 -14q-75 0 -122.5 46.5t-47.5 118.5v60q0 72 47.5 118.5t122.5 46.5q27 0 49.5 -7.5t31.5 -14.5l9 -8h5q2 3 5.5 8t19 13.5t35.5 8.5 q33 0 54 -20t21 -50v-200q10 -5 20 -5q70 0 70 114q0 108 -82.5 184.5t-207.5 76.5q-120 0 -205 -85t-85 -205t85 -205t205 -85q69 0 125.5 15t69.5 15q33 0 51.5 -17.5t18.5 -47.5q0 -63 -55 -79q-90 -36 -210 -36q-200 0 -335 128.5t-135 309.5q0 184 135 313t335 129 q98 0 186.5 -34.5t150 -91.5t97.5 -131.5t36 -152.5q0 -98 -68 -164t-172 -66q-42 0 -76 12.5t-46 25.5z"/>
<glyph glyph-name="A" horiz-adv-x="720" unicode="A" d="M255 150l-25 -60q-42 -100 -120 -100q-48 0 -79 29t-31 71q0 13 6 35.5t12 38.5l7 16l160 420q24 60 64 90t111 30t111.5 -30t63.5 -90l160 -420q25 -60 25 -90q0 -42 -31 -71t-79 -29q-78 0 -120 100l-25 60h-210zM300 330h120l-55 150h-10z"/>
<glyph glyph-name="B" horiz-adv-x="725" unicode="B" d="M175 700h200q150 0 220 -50.5t70 -134.5q0 -29 -11.5 -54t-27.5 -39t-32 -24.5t-28 -13.5l-11 -4v-10q6 -1 16 -4t36 -15.5t46 -29t36 -47.5t16 -69q0 -92 -75 -148.5t-225 -56.5h-230q-52 0 -81 27t-29 73v500q1 46 29.5 73t80.5 27zM285 280v-110h120q33 0 51.5 16 t18.5 39t-18.5 39t-51.5 16h-120zM285 530v-90h90q29 0 44.5 12.5t15.5 32.5t-15.5 32.5t-44.5 12.5h-90z"/>
<glyph glyph-name="C" d="M40 280v140q0 130 92 215t243 85q122 0 198.5 -55t76.5 -115q0 -42 -27.5 -66t-82.5 -24q-41 0 -84.5 35t-80.5 35q-49 0 -79.5 -30.5t-30.5 -79.5v-140q0 -49 30.5 -79.5t79.5 -30.5q43 0 89.5 35t85.5 35q55 0 82.5 -24t27.5 -66q0 -60 -78.5 -115t-206.5 -55 q-151 0 -243 85t-92 215z" unicode="C"/>
<glyph glyph-name="D" horiz-adv-x="735" unicode="D" d="M350 520h-65v-340h65q52 0 86 34t34 86v100q0 52 -34 86t-86 34zM695 400v-100q0 -131 -93.5 -215.5t-251.5 -84.5h-175q-52 0 -81 27t-29 73v500q0 46 29 73t81 27h175q158 0 251.5 -84.5t93.5 -215.5z"/>
<glyph glyph-name="E" horiz-adv-x="685" unicode="E" d="M555 500h-270v-60h190q44 0 72 -26t28 -64t-28 -64t-72 -26h-190v-60h280q52 0 81 -27t29 -73t-29 -73t-81 -27h-390q-52 0 -81 27t-29 73v500q0 46 29 73t81 27h380q52 0 81 -27t29 -73t-29 -73t-81 -27z"/>
<glyph glyph-name="F" horiz-adv-x="665" unicode="F" d="M555 500h-270v-80h150q52 0 81 -27t29 -73t-29 -73t-81 -27h-150v-130q0 -46 -29 -73t-81 -27t-81 27t-29 73v510q0 46 29 73t81 27h380q52 0 81 -27t29 -73t-29 -73t-81 -27z"/>
<glyph glyph-name="G" horiz-adv-x="710" unicode="G" d="M40 280v140q0 130 92 215t243 85q122 0 198.5 -55t76.5 -115q0 -42 -27.5 -66t-82.5 -24q-41 0 -84.5 35t-80.5 35q-49 0 -79.5 -30.5t-30.5 -79.5v-140q0 -49 30.5 -79.5t79.5 -30.5q24 0 48 7.5t35 14.5l12 8v40h-30q-44 0 -72 26t-28 64t28 64t72 26h140q90 0 90 -90 v-180q0 -59 -83 -114.5t-212 -55.5q-151 0 -243 85t-92 215z"/>
<glyph glyph-name="H" horiz-adv-x="770" unicode="H" d="M285 610v-170h200v170q0 46 29 73t81 27t81 -27t29 -73v-520q0 -46 -29 -73t-81 -27t-81 27t-29 73v160h-200v-160q0 -46 -29 -73t-81 -27t-81 27t-29 73v520q0 46 29 73t81 27t81 -27t29 -73z"/>
<glyph glyph-name="I" horiz-adv-x="350" unicode="I" d="M285 610v-520q0 -46 -29 -73t-81 -27t-81 27t-29 73v520q0 46 29 73t81 27t81 -27t29 -73z"/>
<glyph glyph-name="J" horiz-adv-x="465" unicode="J" d="M180 300v310q0 46 29 73t81 27t81 -27t29 -73v-310q0 -142 -87 -231t-223 -89q-52 0 -81 27t-29 73q0 36 20.5 56t50 29.5t59 20.5t50 39t20.5 75z"/>
<glyph glyph-name="K" horiz-adv-x="715" unicode="K" d="M340 255l-55 -50v-115q0 -46 -29 -73t-81 -27t-81 27t-29 73v520q0 46 29 73t81 27t81 -27t29 -73v-140l220 210q30 30 80 30q45 0 72.5 -27.5t27.5 -72.5q0 -22 -10 -42t-20 -29l-10 -9l-140 -135l170 -215q40 -50 40 -90q0 -46 -29 -73t-81 -27q-24 0 -48 12.5 t-35 25.5l-12 12z"/>
<glyph glyph-name="L" horiz-adv-x="635" unicode="L" d="M285 200h240q52 0 81 -27t29 -73t-29 -73t-81 -27h-350q-52 0 -81 27t-29 73v510q0 46 29 73t81 27t81 -27t29 -73v-410z"/>
<glyph glyph-name="M" horiz-adv-x="980" unicode="M" d="M490 60q-83 0 -120 100l-75 190h-10l-45 -260q-8 -46 -37.5 -73t-77.5 -27t-76.5 27.5t-28.5 72.5q0 18 2.5 40.5t5.5 35.5l2 14l70 420q9 55 46 87.5t99 32.5q102 0 150 -120l90 -234h10l90 234q46 120 150 120q62 0 99 -32.5t46 -87.5l70 -420q10 -50 10 -90 q0 -45 -28.5 -72.5t-76.5 -27.5t-77.5 27t-37.5 73l-45 260h-10l-75 -190q-38 -100 -120 -100z"/>
<glyph glyph-name="N" horiz-adv-x="780" unicode="N" d="M295 320h-10v-230q0 -46 -29 -73t-81 -27t-81 27t-29 73v520q0 45 29 72.5t81 27.5q42 0 72.5 -23.5t67.5 -76.5l170 -230h10v230q0 46 29 73t81 27t81 -27t29 -73v-520q0 -45 -29 -72.5t-81 -27.5q-42 0 -72.5 23.5t-67.5 76.5z"/>
<glyph glyph-name="O" horiz-adv-x="750" unicode="O" d="M485 280v140q0 58 -32 94t-78 36t-78 -36t-32 -94v-140q0 -58 32 -94t78 -36t78 36t32 94zM710 420v-140q0 -130 -92 -215t-243 -85t-243 85t-92 215v140q0 130 92 215t243 85t243 -85t92 -215z"/>
<glyph glyph-name="P" horiz-adv-x="705" unicode="P" d="M375 210h-90v-120q0 -46 -29 -73t-81 -27t-81 27t-29 73v510q0 46 29 73t81 27h200q145 0 227.5 -69.5t82.5 -175.5t-82.5 -175.5t-227.5 -69.5zM285 390h90q36 0 58 19t22 46t-22 46t-58 19h-90v-130z"/>
<glyph glyph-name="Q" horiz-adv-x="750" unicode="Q" d="M485 280v140q0 58 -32 94t-78 36t-78 -36t-32 -94v-140q0 -49 28.5 -85.5t61.5 -44.5q-20 20 -20 55q0 41 27 68t68 27q16 0 29.5 -5t19.5 -10zM660 110l25 -25q20 -20 20 -55q0 -41 -27 -68t-68 -27q-16 0 -29.5 5t-19.5 10l-6 5l-50 45q-40 -20 -130 -20 q-151 0 -243 85t-92 215v140q0 130 92 215t243 85t243 -85t92 -215v-140q0 -47 -12.5 -89.5t-25.5 -61.5z"/>
<glyph glyph-name="R" horiz-adv-x="730" unicode="R" d="M285 420h100q33 0 51.5 16t18.5 39t-18.5 39t-51.5 16h-100v-110zM345 250h-60v-160q0 -46 -29 -73t-81 -27t-81 27t-29 73v510q0 46 29 73t81 27h210q152 0 226 -59.5t74 -165.5q0 -35 -11.5 -65t-27.5 -47.5t-32 -30t-28 -17.5l-11 -5v-10l100 -120q40 -50 40 -90 q0 -46 -30.5 -73t-89.5 -27q-22 0 -44.5 12.5t-34.5 25.5l-11 12z"/>
<glyph glyph-name="S" horiz-adv-x="645" unicode="S" d="M400 220q0 14 -27.5 24.5t-68.5 18.5t-89 24.5t-89 39t-68.5 65t-27.5 98.5q0 102 77.5 166t222.5 64q122 0 198.5 -55t76.5 -115q0 -42 -27.5 -66t-82.5 -24q-41 0 -84.5 35t-80.5 35q-35 0 -52.5 -11.5t-17.5 -28.5q0 -16 27.5 -28.5t68.5 -21.5t89 -25.5t89 -37.5 t68.5 -62t27.5 -95q0 -103 -86 -171.5t-244 -68.5q-128 0 -206.5 55t-78.5 115q0 42 27.5 66t82.5 24q39 0 85.5 -35t89.5 -35q52 0 76 14.5t24 35.5z"/>
<glyph glyph-name="T" horiz-adv-x="660" unicode="T" d="M220 500h-110q-52 0 -81 27t-29 73t29 73t81 27h440q52 0 81 -27t29 -73t-29 -73t-81 -27h-110v-410q0 -46 -29 -73t-81 -27t-81 27t-29 73v410z"/>
<glyph glyph-name="U" horiz-adv-x="770" unicode="U" d="M385 -20q-148 0 -234 80t-86 210v340q0 46 29 73t81 27t81 -27t29 -73v-340q0 -52 27 -81t73 -29t73 29t27 81v340q0 46 29 73t81 27t81 -27t29 -73v-340q0 -130 -86 -210t-234 -80z"/>
<glyph glyph-name="V" horiz-adv-x="700" unicode="V" d="M355 230l115 380q28 100 120 100q48 0 79 -29t31 -71q0 -13 -6 -35.5t-12 -38.5l-7 -16l-150 -420q-21 -59 -62 -89.5t-113 -30.5t-113 30.5t-62 89.5l-150 420q-25 60 -25 90q0 42 31 71t79 29q92 0 120 -100l115 -380h10z"/>
<glyph glyph-name="W" horiz-adv-x="1090" unicode="W" d="M550 360h-10l-55 -260q-33 -120 -170 -120t-170 120l-115 420q-20 60 -20 90q0 42 31 71t79 29q100 0 125 -100l80 -330h10l65 310q26 120 145 120t145 -120l65 -310h10l80 330q25 100 125 100q48 0 79 -29t31 -71q0 -13 -5 -35.5t-10 -38.5l-5 -16l-115 -420 q-33 -120 -170 -120t-170 120z"/>
<glyph glyph-name="X" d="M45 180l150 180l-130 160q-40 50 -40 90q0 45 28.5 72.5t76.5 27.5q27 0 52 -12.5t36 -25.5l12 -12l100 -130h10l100 130q4 6 12.5 14t34.5 22t53 14q48 0 76.5 -27.5t28.5 -72.5q0 -18 -10 -40.5t-20 -35.5l-10 -14l-130 -160l150 -180q40 -50 40 -90q0 -45 -28.5 -72.5 t-76.5 -27.5q-27 0 -52 12.5t-36 25.5l-12 12l-120 145h-10l-120 -145q-4 -6 -12.5 -14t-34.5 -22t-53 -14q-48 0 -76.5 27.5t-28.5 72.5q0 18 10 40.5t20 35.5z" unicode="X"/>
<glyph glyph-name="Y" horiz-adv-x="680" unicode="Y" d="M335 470h10l130 190q4 6 11.5 14t31 22t47.5 14q55 0 85 -27t30 -73q0 -18 -10 -40.5t-20 -35.5l-10 -14l-190 -270v-160q0 -46 -29 -73t-81 -27t-81 27t-29 73v160l-190 270q-40 50 -40 90q0 46 30 73t85 27q24 0 46.5 -12.5t32.5 -25.5l11 -12z"/>
<glyph glyph-name="Z" horiz-adv-x="630" unicode="Z" d="M40 200l270 290v10h-190q-52 0 -81 27t-29 73t29 73t81 27h390q52 0 81 -27t29 -73q0 -27 -10 -52t-20 -36l-10 -12l-250 -290v-10h190q52 0 81 -27t29 -73t-29 -73t-81 -27h-410q-52 0 -81 27t-29 73q0 27 10 52t20 36z"/>
<glyph glyph-name="bracketleft" horiz-adv-x="455" unicode="[" d="M285 580v-590h60q52 0 81 -27t29 -73t-29 -73t-81 -27h-170q-52 0 -81 27t-29 73v790q0 46 29 73t81 27h170q52 0 81 -27t29 -73t-29 -73t-81 -27h-60z"/>
<glyph glyph-name="backslash" horiz-adv-x="560" unicode="\" d="M355 0l-325 595q-20 35 -20 65q0 39 29.5 64.5t80.5 25.5q24 0 45.5 -12.5t30.5 -25.5l9 -12l325 -595q20 -35 20 -65q0 -39 -29.5 -64.5t-80.5 -25.5q-24 0 -45.5 12.5t-30.5 25.5z"/>
<glyph glyph-name="bracketright" horiz-adv-x="455" unicode="]" d="M170 -10v600h-60q-52 0 -81 27t-29 73t29 73t81 27h170q52 0 81 -27t29 -73v-800q0 -46 -29 -73t-81 -27h-170q-52 0 -81 27t-29 73t29 73t81 27h60z"/>
<glyph glyph-name="asciicircum" horiz-adv-x="550" unicode="^" d="M270 505l-75 -85q-23 -27 -42 -38.5t-53 -11.5q-30 0 -55 26t-25 59q0 43 40 85l100 110q54 60 115 60t115 -60l100 -110q40 -42 40 -85q0 -33 -25 -59t-55 -26q-34 0 -53.5 12t-41.5 38l-75 85h-10z"/>
<glyph glyph-name="underscore" horiz-adv-x="500" unicode="_" d="M400 -40q44 0 72 -26t28 -64t-28 -64t-72 -26h-300q-44 0 -72 26t-28 64t28 64t72 26h300z"/>
<glyph glyph-name="grave" horiz-adv-x="255" unicode="`" d="M170 450q-56 0 -90 56l-45 74q-15 25 -15 55q0 34 21.5 54.5t58.5 20.5q75 0 100 -75l25 -75q10 -25 10 -50q0 -27 -17.5 -43.5t-47.5 -16.5z"/>
<glyph glyph-name="a" horiz-adv-x="720" unicode="a" d="M255 150l-25 -60q-42 -100 -120 -100q-48 0 -79 29t-31 71q0 13 6 35.5t12 38.5l7 16l160 420q24 60 64 90t111 30t111.5 -30t63.5 -90l160 -420q25 -60 25 -90q0 -42 -31 -71t-79 -29q-78 0 -120 100l-25 60h-210zM300 330h120l-55 150h-10z"/>
<glyph glyph-name="b" horiz-adv-x="725" unicode="b" d="M175 700h200q150 0 220 -50.5t70 -134.5q0 -29 -11.5 -54t-27.5 -39t-32 -24.5t-28 -13.5l-11 -4v-10q6 -1 16 -4t36 -15.5t46 -29t36 -47.5t16 -69q0 -92 -75 -148.5t-225 -56.5h-230q-52 0 -81 27t-29 73v500q1 46 29.5 73t80.5 27zM285 280v-110h120q33 0 51.5 16 t18.5 39t-18.5 39t-51.5 16h-120zM285 530v-90h90q29 0 44.5 12.5t15.5 32.5t-15.5 32.5t-44.5 12.5h-90z"/>
<glyph glyph-name="c" d="M40 280v140q0 130 92 215t243 85q122 0 198.5 -55t76.5 -115q0 -42 -27.5 -66t-82.5 -24q-41 0 -84.5 35t-80.5 35q-49 0 -79.5 -30.5t-30.5 -79.5v-140q0 -49 30.5 -79.5t79.5 -30.5q43 0 89.5 35t85.5 35q55 0 82.5 -24t27.5 -66q0 -60 -78.5 -115t-206.5 -55 q-151 0 -243 85t-92 215z" unicode="c"/>
<glyph glyph-name="d" horiz-adv-x="735" unicode="d" d="M350 520h-65v-340h65q52 0 86 34t34 86v100q0 52 -34 86t-86 34zM695 400v-100q0 -131 -93.5 -215.5t-251.5 -84.5h-175q-52 0 -81 27t-29 73v500q0 46 29 73t81 27h175q158 0 251.5 -84.5t93.5 -215.5z"/>
<glyph glyph-name="e" horiz-adv-x="685" unicode="e" d="M555 500h-270v-60h190q44 0 72 -26t28 -64t-28 -64t-72 -26h-190v-60h280q52 0 81 -27t29 -73t-29 -73t-81 -27h-390q-52 0 -81 27t-29 73v500q0 46 29 73t81 27h380q52 0 81 -27t29 -73t-29 -73t-81 -27z"/>
<glyph glyph-name="f" horiz-adv-x="665" unicode="f" d="M555 500h-270v-80h150q52 0 81 -27t29 -73t-29 -73t-81 -27h-150v-130q0 -46 -29 -73t-81 -27t-81 27t-29 73v510q0 46 29 73t81 27h380q52 0 81 -27t29 -73t-29 -73t-81 -27z"/>
<glyph glyph-name="g" horiz-adv-x="710" unicode="g" d="M40 280v140q0 130 92 215t243 85q122 0 198.5 -55t76.5 -115q0 -42 -27.5 -66t-82.5 -24q-41 0 -84.5 35t-80.5 35q-49 0 -79.5 -30.5t-30.5 -79.5v-140q0 -49 30.5 -79.5t79.5 -30.5q24 0 48 7.5t35 14.5l12 8v40h-30q-44 0 -72 26t-28 64t28 64t72 26h140q90 0 90 -90 v-180q0 -59 -83 -114.5t-212 -55.5q-151 0 -243 85t-92 215z"/>
<glyph glyph-name="h" horiz-adv-x="770" unicode="h" d="M285 610v-170h200v170q0 46 29 73t81 27t81 -27t29 -73v-520q0 -46 -29 -73t-81 -27t-81 27t-29 73v160h-200v-160q0 -46 -29 -73t-81 -27t-81 27t-29 73v520q0 46 29 73t81 27t81 -27t29 -73z"/>
<glyph glyph-name="i" horiz-adv-x="350" unicode="i" d="M285 610v-520q0 -46 -29 -73t-81 -27t-81 27t-29 73v520q0 46 29 73t81 27t81 -27t29 -73z"/>
<glyph glyph-name="j" horiz-adv-x="465" unicode="j" d="M180 300v310q0 46 29 73t81 27t81 -27t29 -73v-310q0 -142 -87 -231t-223 -89q-52 0 -81 27t-29 73q0 36 20.5 56t50 29.5t59 20.5t50 39t20.5 75z"/>
<glyph glyph-name="k" horiz-adv-x="715" unicode="k" d="M340 255l-55 -50v-115q0 -46 -29 -73t-81 -27t-81 27t-29 73v520q0 46 29 73t81 27t81 -27t29 -73v-140l220 210q30 30 80 30q45 0 72.5 -27.5t27.5 -72.5q0 -22 -10 -42t-20 -29l-10 -9l-140 -135l170 -215q40 -50 40 -90q0 -46 -29 -73t-81 -27q-24 0 -48 12.5 t-35 25.5l-12 12z"/>
<glyph glyph-name="l" horiz-adv-x="635" unicode="l" d="M285 200h240q52 0 81 -27t29 -73t-29 -73t-81 -27h-350q-52 0 -81 27t-29 73v510q0 46 29 73t81 27t81 -27t29 -73v-410z"/>
<glyph glyph-name="m" horiz-adv-x="980" unicode="m" d="M490 60q-83 0 -120 100l-75 190h-10l-45 -260q-8 -46 -37.5 -73t-77.5 -27t-76.5 27.5t-28.5 72.5q0 18 2.5 40.5t5.5 35.5l2 14l70 420q9 55 46 87.5t99 32.5q102 0 150 -120l90 -234h10l90 234q46 120 150 120q62 0 99 -32.5t46 -87.5l70 -420q10 -50 10 -90 q0 -45 -28.5 -72.5t-76.5 -27.5t-77.5 27t-37.5 73l-45 260h-10l-75 -190q-38 -100 -120 -100z"/>
<glyph glyph-name="n" horiz-adv-x="780" unicode="n" d="M295 320h-10v-230q0 -46 -29 -73t-81 -27t-81 27t-29 73v520q0 45 29 72.5t81 27.5q42 0 72.5 -23.5t67.5 -76.5l170 -230h10v230q0 46 29 73t81 27t81 -27t29 -73v-520q0 -45 -29 -72.5t-81 -27.5q-42 0 -72.5 23.5t-67.5 76.5z"/>
<glyph glyph-name="o" horiz-adv-x="750" unicode="o" d="M485 280v140q0 58 -32 94t-78 36t-78 -36t-32 -94v-140q0 -58 32 -94t78 -36t78 36t32 94zM710 420v-140q0 -130 -92 -215t-243 -85t-243 85t-92 215v140q0 130 92 215t243 85t243 -85t92 -215z"/>
<glyph glyph-name="p" horiz-adv-x="705" unicode="p" d="M375 210h-90v-120q0 -46 -29 -73t-81 -27t-81 27t-29 73v510q0 46 29 73t81 27h200q145 0 227.5 -69.5t82.5 -175.5t-82.5 -175.5t-227.5 -69.5zM285 390h90q36 0 58 19t22 46t-22 46t-58 19h-90v-130z"/>
<glyph glyph-name="q" horiz-adv-x="750" unicode="q" d="M485 280v140q0 58 -32 94t-78 36t-78 -36t-32 -94v-140q0 -49 28.5 -85.5t61.5 -44.5q-20 20 -20 55q0 41 27 68t68 27q16 0 29.5 -5t19.5 -10zM660 110l25 -25q20 -20 20 -55q0 -41 -27 -68t-68 -27q-16 0 -29.5 5t-19.5 10l-6 5l-50 45q-40 -20 -130 -20 q-151 0 -243 85t-92 215v140q0 130 92 215t243 85t243 -85t92 -215v-140q0 -47 -12.5 -89.5t-25.5 -61.5z"/>
<glyph glyph-name="r" horiz-adv-x="730" unicode="r" d="M285 420h100q33 0 51.5 16t18.5 39t-18.5 39t-51.5 16h-100v-110zM345 250h-60v-160q0 -46 -29 -73t-81 -27t-81 27t-29 73v510q0 46 29 73t81 27h210q152 0 226 -59.5t74 -165.5q0 -35 -11.5 -65t-27.5 -47.5t-32 -30t-28 -17.5l-11 -5v-10l100 -120q40 -50 40 -90 q0 -46 -30.5 -73t-89.5 -27q-22 0 -44.5 12.5t-34.5 25.5l-11 12z"/>
<glyph glyph-name="s" horiz-adv-x="645" unicode="s" d="M400 220q0 14 -27.5 24.5t-68.5 18.5t-89 24.5t-89 39t-68.5 65t-27.5 98.5q0 102 77.5 166t222.5 64q122 0 198.5 -55t76.5 -115q0 -42 -27.5 -66t-82.5 -24q-41 0 -84.5 35t-80.5 35q-35 0 -52.5 -11.5t-17.5 -28.5q0 -16 27.5 -28.5t68.5 -21.5t89 -25.5t89 -37.5 t68.5 -62t27.5 -95q0 -103 -86 -171.5t-244 -68.5q-128 0 -206.5 55t-78.5 115q0 42 27.5 66t82.5 24q39 0 85.5 -35t89.5 -35q52 0 76 14.5t24 35.5z"/>
<glyph glyph-name="t" horiz-adv-x="660" unicode="t" d="M220 500h-110q-52 0 -81 27t-29 73t29 73t81 27h440q52 0 81 -27t29 -73t-29 -73t-81 -27h-110v-410q0 -46 -29 -73t-81 -27t-81 27t-29 73v410z"/>
<glyph glyph-name="u" horiz-adv-x="770" unicode="u" d="M385 -20q-148 0 -234 80t-86 210v340q0 46 29 73t81 27t81 -27t29 -73v-340q0 -52 27 -81t73 -29t73 29t27 81v340q0 46 29 73t81 27t81 -27t29 -73v-340q0 -130 -86 -210t-234 -80z"/>
<glyph glyph-name="v" horiz-adv-x="700" unicode="v" d="M355 230l115 380q28 100 120 100q48 0 79 -29t31 -71q0 -13 -6 -35.5t-12 -38.5l-7 -16l-150 -420q-21 -59 -62 -89.5t-113 -30.5t-113 30.5t-62 89.5l-150 420q-25 60 -25 90q0 42 31 71t79 29q92 0 120 -100l115 -380h10z"/>
<glyph glyph-name="w" horiz-adv-x="1090" unicode="w" d="M550 360h-10l-55 -260q-33 -120 -170 -120t-170 120l-115 420q-20 60 -20 90q0 42 31 71t79 29q100 0 125 -100l80 -330h10l65 310q26 120 145 120t145 -120l65 -310h10l80 330q25 100 125 100q48 0 79 -29t31 -71q0 -13 -5 -35.5t-10 -38.5l-5 -16l-115 -420 q-33 -120 -170 -120t-170 120z"/>
<glyph glyph-name="x" d="M45 180l150 180l-130 160q-40 50 -40 90q0 45 28.5 72.5t76.5 27.5q27 0 52 -12.5t36 -25.5l12 -12l100 -130h10l100 130q4 6 12.5 14t34.5 22t53 14q48 0 76.5 -27.5t28.5 -72.5q0 -18 -10 -40.5t-20 -35.5l-10 -14l-130 -160l150 -180q40 -50 40 -90q0 -45 -28.5 -72.5 t-76.5 -27.5q-27 0 -52 12.5t-36 25.5l-12 12l-120 145h-10l-120 -145q-4 -6 -12.5 -14t-34.5 -22t-53 -14q-48 0 -76.5 27.5t-28.5 72.5q0 18 10 40.5t20 35.5z" unicode="x"/>
<glyph glyph-name="y" horiz-adv-x="680" unicode="y" d="M335 470h10l130 190q4 6 11.5 14t31 22t47.5 14q55 0 85 -27t30 -73q0 -18 -10 -40.5t-20 -35.5l-10 -14l-190 -270v-160q0 -46 -29 -73t-81 -27t-81 27t-29 73v160l-190 270q-40 50 -40 90q0 46 30 73t85 27q24 0 46.5 -12.5t32.5 -25.5l11 -12z"/>
<glyph glyph-name="z" horiz-adv-x="630" unicode="z" d="M40 200l270 290v10h-190q-52 0 -81 27t-29 73t29 73t81 27h390q52 0 81 -27t29 -73q0 -27 -10 -52t-20 -36l-10 -12l-250 -290v-10h190q52 0 81 -27t29 -73t-29 -73t-81 -27h-410q-52 0 -81 27t-29 73q0 27 10 52t20 36z"/>
<glyph glyph-name="braceleft" horiz-adv-x="505" unicode="{" d="M255 290v-10q4 -1 11 -4t24 -14t30 -25t24 -40t11 -57v-100q0 -22 12 -36t28 -14q52 0 81 -27t29 -73t-29 -73t-81 -27q-119 0 -189.5 68.5t-70.5 181.5v100q0 18 -13 31.5t-32 18.5q-70 18 -70 95t70 95q19 5 32 18.5t13 31.5v100q0 113 70.5 181.5t189.5 68.5 q52 0 81 -27t29 -73t-29 -73t-81 -27q-16 0 -28 -14t-12 -36v-100q0 -31 -10.5 -56.5t-25 -40.5t-29 -25t-24.5 -14z"/>
<glyph glyph-name="bar" horiz-adv-x="370" unicode="|" d="M295 660v-750q0 -46 -29 -73t-81 -27t-81 27t-29 73v750q0 46 29 73t81 27t81 -27t29 -73z"/>
<glyph glyph-name="braceright" horiz-adv-x="505" unicode="}" d="M250 280v10q-4 1 -11 4t-24 14t-30 25t-24 40t-11 57v100q0 22 -12 36t-28 14q-52 0 -81 27t-29 73t29 73t81 27q119 0 189.5 -68.5t70.5 -181.5v-100q0 -18 13 -31.5t32 -18.5q70 -18 70 -95t-70 -95q-19 -5 -32 -18.5t-13 -31.5v-100q0 -113 -70.5 -181.5t-189.5 -68.5 q-52 0 -81 27t-29 73t29 73t81 27q16 0 28 14t12 36v100q0 31 10.5 56.5t25 40.5t29 25t25.5 14z"/>
<glyph glyph-name="asciitilde" horiz-adv-x="570" unicode="~" d="M390 220q-39 0 -73 15t-58 30t-39 15q-16 0 -30 -9.5t-22.5 -20.5t-26 -20.5t-41.5 -9.5q-41 0 -65.5 24t-24.5 65q0 62 48.5 106.5t121.5 44.5q39 0 73 -15t58 -30t39 -15q16 0 30 9.5t22.5 20.5t26 20.5t41.5 9.5q41 0 65.5 -24t24.5 -65q0 -62 -48.5 -106.5 t-121.5 -44.5z"/>
<glyph glyph-name="currency" horiz-adv-x="680" unicode="¤" d="M70 90v15q-24 8 -42 29t-18 46t18 46t42 29v25q-23 8 -41.5 29.5t-18.5 45.5q0 25 18 46t42 29v170q0 46 29 73t81 27h180q144 0 222 -62.5t78 -157.5q0 -81 -79 -140.5t-221 -59.5h-70v-25h190q33 0 56.5 -22.5t23.5 -52.5t-23.5 -52.5t-56.5 -22.5h-190v-15 q0 -46 -29 -73t-81 -27t-81 27t-29 73zM290 430h70q32 0 51 15t19 35t-19 35t-51 15h-70v-100z"/>
<glyph glyph-name="brokenbar" horiz-adv-x="370" unicode="¦" d="M295 140v-230q0 -46 -29 -73t-81 -27t-81 27t-29 73v230q0 46 29 73t81 27t81 -27t29 -73zM295 660v-230q0 -46 -29 -73t-81 -27t-81 27t-29 73v230q0 46 29 73t81 27t81 -27t29 -73z"/>
<glyph glyph-name="section" horiz-adv-x="555" unicode="§" d="M230 320q0 -16 17.5 -27t34.5 -15l18 -3q20 10 20 25q0 16 -20 27.5t-40 14.5l-20 4q-10 -11 -10 -26zM30 310q0 22 8 43t20 34t24 23.5t20 15.5l8 4v10l-4 2q-4 2 -10 6t-13.5 10t-15 15.5t-13.5 20t-10 25.5t-4 31q0 66 69.5 118t185.5 52q100 0 160 -40.5t60 -84.5 q0 -35 -23 -55t-67 -20q-37 0 -72 22.5t-58 22.5q-21 0 -33 -8t-12 -17q0 -13 28.5 -25t69 -26t80.5 -34t68.5 -57.5t28.5 -87.5q0 -27 -20 -52t-40 -36l-20 -12v-10l5 -3q4 -3 11 -9t15.5 -14t17 -19t15.5 -22.5t11.5 -27t4.5 -30.5q0 -70 -72.5 -122.5t-202.5 -52.5 q-106 0 -168 40.5t-62 84.5q0 35 23 55t67 20q36 0 73.5 -22.5t66.5 -22.5q65 0 65 30q0 12 -29.5 23t-71 24.5t-83.5 33t-71.5 57t-29.5 87.5z"/>
<glyph glyph-name="copyright" horiz-adv-x="1000" unicode="©" d="M970 300q0 -182 -135 -311t-335 -129t-335 129t-135 311t135 311t335 129t335 -129t135 -311zM790 300q0 120 -85 205t-205 85t-205 -85t-85 -205t85 -205t205 -85t205 85t85 205zM320 265v60q0 70 53.5 117.5t141.5 47.5q70 0 112.5 -31.5t42.5 -68.5q0 -27 -17.5 -43.5 t-47.5 -16.5q-26 0 -48.5 17.5t-41.5 17.5q-18 0 -31.5 -12.5t-13.5 -27.5v-60q0 -15 13.5 -27.5t31.5 -12.5t42 17.5t53 17.5q30 0 47.5 -16.5t17.5 -43.5q0 -38 -43.5 -69t-116.5 -31q-88 0 -141.5 47.5t-53.5 117.5z"/>
<glyph glyph-name="guillemotleft" horiz-adv-x="635" unicode="«" d="M300 250q0 8 1.5 16t2.5 14t5.5 14t6 11.5t8 12t8 10.5t9.5 11t9 11l75 90q44 55 100 55q37 0 58.5 -19.5t21.5 -50.5q0 -8 -2 -17t-4.5 -15t-8.5 -14.5t-9 -12.5t-11 -13.5t-10 -12.5l-70 -85v-10l70 -85q2 -3 10 -12.5t11 -13.5t9 -12.5t8.5 -14.5t4.5 -15t2 -17 q0 -31 -21.5 -50.5t-58.5 -19.5q-56 0 -100 55l-75 90q-1 2 -9 11t-9.5 11t-8 10.5t-8 12t-6 11.5t-5.5 14t-2.5 14t-1.5 16zM30 250q0 8 1.5 16t2.5 14t5.5 14t6 11.5t8 12t8 10.5t9.5 11t9 11l75 90q44 55 100 55q37 0 58.5 -19.5t21.5 -50.5q0 -8 -2 -17t-4.5 -15 t-8.5 -14.5t-9 -12.5t-11 -13.5t-10 -12.5l-70 -85v-10l70 -85q2 -3 10 -12.5t11 -13.5t9 -12.5t8.5 -14.5t4.5 -15t2 -17q0 -31 -21.5 -50.5t-58.5 -19.5q-56 0 -100 55l-75 90q-1 2 -9 11t-9.5 11t-8 10.5t-8 12t-6 11.5t-5.5 14t-2.5 14t-1.5 16z"/>
<glyph glyph-name="logicalnot" horiz-adv-x="570" unicode="¬" d="M10 380q0 38 28 64t72 26h340q44 0 72 -26t28 -64v-145q0 -38 -28 -64t-72 -26t-72 26t-28 64v55h-240q-44 0 -72 26t-28 64z"/>
<glyph glyph-name="uni00AD" horiz-adv-x="520" unicode="­" d="M410 430q44 0 72 -26t28 -64t-28 -64t-72 -26h-300q-44 0 -72 26t-28 64t28 64t72 26h300z"/>
<glyph glyph-name="registered" horiz-adv-x="1000" unicode="®" d="M970 300q0 -182 -135 -311t-335 -129t-335 129t-135 311t135 311t335 129t335 -129t135 -311zM790 300q0 120 -85 205t-205 85t-205 -85t-85 -205t85 -205t205 -85t205 85t85 205zM470 340h45q11 0 18 6t7 14t-7 14t-18 6h-45v-40zM490 240h-20v-70q0 -27 -20 -46 t-50 -19t-50 19t-20 46v255q0 23 17 39t43 16h125q82 0 128.5 -35.5t46.5 -84.5q0 -29 -14 -50t-28 -28l-13 -7v-5l45 -65q20 -25 20 -45q0 -23 -18 -39t-47 -16q-52 0 -75 35z"/>
<glyph glyph-name="degree" horiz-adv-x="420" unicode="°" d="M400 540q0 -73 -52.5 -121.5t-137.5 -48.5t-137.5 48.5t-52.5 121.5t52.5 121.5t137.5 48.5t137.5 -48.5t52.5 -121.5zM265 540q0 26 -16 43t-39 17t-39 -17t-16 -43t16 -43t39 -17t39 17t16 43z"/>
<glyph glyph-name="plusminus" horiz-adv-x="590" unicode="±" d="M470 204q44 0 72 -26t28 -64t-28 -64t-72 -26h-350q-44 0 -72 26t-28 64t28 64t72 26h85v86h-85q-44 0 -72 26t-28 64t28 64t72 26h85v85q0 44 26 72t64 28t64 -28t26 -72v-85h85q44 0 72 -26t28 -64t-28 -64t-72 -26h-85v-86h85z"/>
<glyph glyph-name="mu" horiz-adv-x="620" unicode="µ" d="M310 0q-13 0 -25.5 5t-18.5 11l-6 5h-10v-151q0 -38 -28 -64t-72 -26t-72 26t-28 64v565q0 38 28 64t72 26t72 -26t28 -64v-210q0 -32 18 -51t42 -19t42 19t18 51v210q0 38 28 64t72 26t72 -26t28 -64v-350q0 -38 -28 -64t-72 -26q-31 0 -53.5 8.5t-29.5 17.5l-7 9h-10 q-20 -30 -60 -30z"/>
<glyph glyph-name="paragraph" horiz-adv-x="710" unicode="¶" d="M620 530v-670q0 -34 -25 -57t-65 -23t-65 23t-25 57v670h-50v-670q0 -34 -25 -57t-65 -23t-65 23t-25 57v460q-85 0 -142.5 55.5t-57.5 134.5t57.5 134.5t142.5 55.5h410q30 0 55 -26t25 -59t-23 -57t-57 -28z"/>
<glyph glyph-name="periodcentered" horiz-adv-x="280" unicode="·" d="M140 455q52 0 83.5 -29.5t31.5 -75.5t-31.5 -75.5t-83.5 -29.5t-83.5 29.5t-31.5 75.5t31.5 75.5t83.5 29.5z"/>
<glyph glyph-name="guillemotright" horiz-adv-x="635" unicode="»" d="M335 250q0 -8 -1.5 -16t-2.5 -14t-5.5 -14t-6 -11.5t-8 -12t-8 -10.5t-9.5 -11t-9 -11l-75 -90q-44 -55 -100 -55q-37 0 -58.5 19.5t-21.5 50.5q0 8 2 17t4.5 15t8.5 14.5t9 12.5t11 13.5t10 12.5l70 85v10l-70 85q-2 3 -10 12.5t-11 13.5t-9 12.5t-8.5 14.5t-4.5 15 t-2 17q0 31 21.5 50.5t58.5 19.5q56 0 100 -55l75 -90q1 -2 9 -11t9.5 -11t8 -10.5t8 -12t6 -11.5t5.5 -14t2.5 -14t1.5 -16zM605 250q0 -8 -1.5 -16t-2.5 -14t-5.5 -14t-6 -11.5t-8 -12t-8 -10.5t-9.5 -11t-9 -11l-75 -90q-44 -55 -100 -55q-37 0 -58.5 19.5t-21.5 50.5 q0 8 2 17t4.5 15t8.5 14.5t9 12.5t11 13.5t10 12.5l70 85v10l-70 85q-2 3 -10 12.5t-11 13.5t-9 12.5t-8.5 14.5t-4.5 15t-2 17q0 31 21.5 50.5t58.5 19.5q56 0 100 -55l75 -90q1 -2 9 -11t9.5 -11t8 -10.5t8 -12t6 -11.5t5.5 -14t2.5 -14t1.5 -16z"/>
<glyph glyph-name="endash" horiz-adv-x="650" unicode="–" d="M540 410q44 0 72 -26t28 -64t-28 -64t-72 -26h-430q-44 0 -72 26t-28 64t28 64t72 26h430z"/>
<glyph glyph-name="emdash" horiz-adv-x="900" unicode="—" d="M790 410q44 0 72 -26t28 -64t-28 -64t-72 -26h-680q-44 0 -72 26t-28 64t28 64t72 26h680z"/>
<glyph glyph-name="quoteleft" horiz-adv-x="255" unicode="‘" d="M245 496q0 -46 -31.5 -75.5t-83.5 -29.5q-47 0 -78.5 36.5t-31.5 98.5q0 75 54 130t126 55q18 0 29 -10t11 -25t-11 -25.5t-25 -15.5t-27.5 -16t-16.5 -28q34 0 59.5 -27.5t25.5 -67.5z"/>
<glyph glyph-name="quotesinglbase" horiz-adv-x="255" unicode="‚" d="M10 95q0 46 31.5 75.5t83.5 29.5q47 0 78.5 -36.5t31.5 -98.5q0 -75 -54 -130t-126 -55q-18 0 -29 10t-11 25t11 25.5t25 15.5t27.5 16t16.5 28q-34 0 -59.5 27.5t-25.5 67.5z"/>
<glyph glyph-name="quotedblleft" horiz-adv-x="505" unicode="“" d="M245 496q0 -46 -31.5 -75.5t-83.5 -29.5q-47 0 -78.5 36.5t-31.5 98.5q0 75 54 130t126 55q18 0 29 -10t11 -25t-11 -25.5t-25 -15.5t-27.5 -16t-16.5 -28q34 0 59.5 -27.5t25.5 -67.5zM495 496q0 -46 -31.5 -75.5t-83.5 -29.5q-47 0 -78.5 36.5t-31.5 98.5q0 75 54 130 t126 55q18 0 29 -10t11 -25t-11 -25.5t-25 -15.5t-27.5 -16t-16.5 -28q34 0 59.5 -27.5t25.5 -67.5z"/>
<glyph glyph-name="quotedblright" horiz-adv-x="505" unicode="”" d="M260 606q0 46 31.5 75.5t83.5 29.5q47 0 78.5 -36.5t31.5 -98.5q0 -75 -54 -130t-126 -55q-18 0 -29 10t-11 25t11 25.5t25 15.5t27.5 16t16.5 28q-34 0 -59.5 27.5t-25.5 67.5zM10 606q0 46 31.5 75.5t83.5 29.5q47 0 78.5 -36.5t31.5 -98.5q0 -75 -54 -130t-126 -55 q-18 0 -29 10t-11 25t11 25.5t25 15.5t27.5 16t16.5 28q-34 0 -59.5 27.5t-25.5 67.5z"/>
<glyph glyph-name="dagger" horiz-adv-x="620" unicode="†" d="M500 540q44 0 72 -26t28 -64t-28 -64t-72 -26h-85v-320q0 -46 -29 -73t-81 -27t-81 27t-29 73v320h-75q-44 0 -72 26t-28 64t28 64t72 26h75v120q0 46 29 73t81 27t81 -27t29 -73v-120h85z"/>
<glyph glyph-name="daggerdbl" horiz-adv-x="640" unicode="‡" d="M425 660v-80h85q44 0 72 -26t28 -64t-28 -64t-72 -26h-85v-100h85q44 0 72 -26t28 -64t-28 -64t-72 -26h-85v-80q0 -46 -29 -73t-81 -27t-81 27t-29 73v80h-75q-44 0 -72 26t-28 64t28 64t72 26h75v100h-75q-44 0 -72 26t-28 64t28 64t72 26h75v80q0 46 29 73t81 27 t81 -27t29 -73z"/>
<glyph glyph-name="ellipsis" horiz-adv-x="890" unicode="…" d="M755 200q52 0 83.5 -29.5t31.5 -75.5t-31.5 -75.5t-83.5 -29.5t-83.5 29.5t-31.5 75.5t31.5 75.5t83.5 29.5zM445 200q52 0 83.5 -29.5t31.5 -75.5t-31.5 -75.5t-83.5 -29.5t-83.5 29.5t-31.5 75.5t31.5 75.5t83.5 29.5zM135 200q52 0 83.5 -29.5t31.5 -75.5t-31.5 -75.5 t-83.5 -29.5t-83.5 29.5t-31.5 75.5t31.5 75.5t83.5 29.5z"/>
<glyph glyph-name="perthousand" horiz-adv-x="1265" unicode="‰" d="M1105 145v45q0 11 -9.5 20.5t-20.5 9.5t-20.5 -9.5t-9.5 -20.5v-45q0 -11 9.5 -20.5t20.5 -9.5t20.5 9.5t9.5 20.5zM895 145v45q0 66 49.5 110.5t130.5 44.5t130.5 -44.5t49.5 -110.5v-45q0 -65 -49.5 -110t-130.5 -45t-130.5 45t-49.5 110zM715 145v45q0 11 -9.5 20.5 t-20.5 9.5t-20.5 -9.5t-9.5 -20.5v-45q0 -11 9.5 -20.5t20.5 -9.5t20.5 9.5t9.5 20.5zM505 145v45q0 66 49.5 110.5t130.5 44.5t130.5 -44.5t49.5 -110.5v-45q0 -65 -49.5 -110t-130.5 -45t-130.5 45t-49.5 110zM220 510v45q0 11 -9.5 20.5t-20.5 9.5t-20.5 -9.5t-9.5 -20.5 v-45q0 -11 9.5 -20.5t20.5 -9.5t20.5 9.5t9.5 20.5zM10 510v45q0 66 49.5 110.5t130.5 44.5t130.5 -45t49.5 -110v-45q0 -66 -49.5 -110.5t-130.5 -44.5t-130.5 44.5t-49.5 110.5zM700 555l-365 -515q-3 -6 -10 -14t-31.5 -22t-53.5 -14q-34 0 -57 23t-23 57q0 18 6 36.5 t12 28.5l7 10l365 515q3 6 10 14t31.5 22t53.5 14q34 0 57 -23t23 -57q0 -18 -6.5 -36.5t-12.5 -28.5z"/>
<glyph glyph-name="guilsinglleft" horiz-adv-x="435" unicode="‹" d="M30 260q0 64 65 115l110 90q2 2 9.5 8t10.5 8.5t11 8t13.5 8t14.5 6.5t16.5 6t18 3.5t21.5 1.5q37 0 61 -22t24 -53q0 -51 -55 -95l-100 -80v-10l100 -80q55 -44 55 -95q0 -31 -24 -53t-61 -22q-12 0 -23.5 1.5t-22 5.5t-17 6t-16 9t-12.5 9t-13 10.5t-11 8.5l-110 90 q-65 51 -65 115z"/>
<glyph glyph-name="guilsinglright" horiz-adv-x="435" unicode="›" d="M405 260q0 -64 -65 -115l-110 -90q-2 -2 -9.5 -8t-10.5 -8.5t-11 -8t-13.5 -8t-14.5 -6.5t-16.5 -6t-18 -3.5t-21.5 -1.5q-37 0 -61 22t-24 53q0 51 55 95l100 80v10l-100 80q-55 44 -55 95q0 31 24 53t61 22q12 0 23.5 -1.5t22 -5.5t17 -6t16 -9t12.5 -9t13 -10.5 t11 -8.5l110 -90q65 -51 65 -115z"/>
<glyph glyph-name="Euro" horiz-adv-x="690" unicode="€" d="M85 340v20h-5q-30 0 -50 20t-20 50q0 27 20 46t50 19h15q12 92 93.5 158.5t206.5 66.5q124 0 199.5 -52t75.5 -108q0 -39 -27 -62t-78 -23q-40 0 -85 32.5t-85 32.5q-24 0 -41.5 -11t-23.5 -23l-5 -11h95q30 0 50 -19t20 -46q0 -30 -20 -50t-50 -20h-110v-20h110 q30 0 50 -20t20 -50q0 -27 -20 -46t-50 -19h-95q2 -5 6 -12.5t23 -20t46 -12.5q43 0 89.5 32.5t85.5 32.5q51 0 78 -23t27 -62q0 -56 -76 -108t-204 -52t-210.5 66.5t-94.5 158.5h-15q-30 0 -50 19t-20 46q0 30 20 50t50 20h5z"/>
<glyph glyph-name="trademark" horiz-adv-x="940" unicode="™" d="M647 550h6l32 85q14 36 35 53t60 17q74 0 90 -70l39 -180q6 -25 6 -50q0 -27 -20 -46t-50 -19q-60 0 -75 65l-20 90h-5l-29 -75q-16 -40 -66 -40t-66 40l-29 75h-5l-20 -90q-15 -65 -75 -65q-30 0 -50 19t-20 46l6 50l39 180q16 70 90 70q39 0 60 -17t35 -53zM70 700h250 q30 0 50 -19t20 -46t-20 -46t-50 -19h-50v-165q0 -27 -21 -46t-54 -19t-54 19t-21 46v165h-50q-30 0 -50 19t-20 46t20 46t50 19z"/>
</font>
</defs>
</svg>
